SplineFontDB: 3.2
FontName: DEP
FullName: DEP
FamilyName: Temmie
Weight: Medium
Copyright: https://tuyoki.itch.io/dwellers-empty-path\nhttps://spiritaxolotl.github.io/depfont.html\n\nOriginal Font made by Temmie Chang (@tuyoki)\nModified by Spax (@SpiritAxolotl or Spax#3103)\n\nOriginal note written by Temmie in the Dweller's Empty Path files:\n\n-----\n   About fanworks/fan art: \n\n   Yes! Fanworks and fan art is allowed of any content I ever make!\n   I also allow the distribution of fanworks through conventions and fan-markets, but please do not label them as official works!\n   Thank you for liking my work enough to make such works..!\n\n   Use of my works on Social media: \n\n   You may use any of my personal works as icons, headers and etc for use on\nany social media, however please do not claim that any of these works are yours!\n   This also only applies to works for my personal works, this does not extend to commercial projects I've worked on for any of my clients.\n-----\n\nAdding onto this, please don't claim that you made ths font. If you use this font for anything public, crediting me and Temmie are required; Temmie for the original font sprite and me for the file conversion and modifications.\nModifications of this font are allowed, as long as I am credited, as well as Temmie, as stated above. The license for any modifications of this font must be the same as this one, with the exception that you can add yourself as creditable.\n\nFor any questions about this license, please Direct Message Spax#3103 on Discord. Thank you.
Version: 2.20
ItalicAngle: 0
UnderlinePosition: -149
UnderlineWidth: 50
Ascent: 768
Descent: 256
InvalidEm: 0
sfntRevision: 0x00010000
LayerCount: 2
Layer: 0 1 "Back" 1
Layer: 1 1 "Fore" 0
XUID: [1021 873 1382639360 13761375]
StyleMap: 0x0040
FSType: 0
OS2Version: 2
OS2_WeightWidthSlopeOnly: 0
OS2_UseTypoMetrics: 0
CreationTime: 1280473793
ModificationTime: 1648959995
PfmFamily: 17
TTFWeight: 500
TTFWidth: 5
LineGap: 92
VLineGap: 0

StartChar: .notdef
Encoding: 65536 -1 0
Width: 373
GlyphClass: 1
Flags: W
LayerCount: 2
Fore
SplineSet
34 0 m 1,0,-1
 34 682 l 1,1,-1
 306 682 l 1,2,-1
 306 0 l 1,3,-1
 34 0 l 1,0,-1
68 34 m 1,4,-1
 272 34 l 1,5,-1
 272 648 l 1,6,-1
 68 648 l 1,7,-1
 68 34 l 1,4,-1
EndSplineSet
Validated: 1
EndChar

StartChar: exclam
Encoding: 33 33 4
Width: 384
GlyphClass: 1
Flags: W
LayerCount: 2
Fore
SplineSet
256 0 m 1,0,-1
 63 0 l 1,1,-1
 63 193 l 1,2,-1
 256 193 l 1,3,-1
 256 0 l 1,0,-1
256 256 m 1,4,-1
 63 256 l 1,5,-1
 63 384 l 1,6,-1
 0 384 l 1,7,-1
 0 896 l 1,8,-1
 63 896 l 1,9,10
 63 897 63 897 63 961 c 1,11,-1
 256 961 l 1,12,-1
 256 896 l 5,13,-1
 319 896 l 1,14,-1
 319 384 l 1,15,-1
 256 384 l 1,16,-1
 256 256 l 1,4,-1
EndSplineSet
Validated: 1
EndChar

StartChar: quotedbl
Encoding: 34 34 5
Width: 640
GlyphClass: 1
Flags: W
LayerCount: 2
Fore
SplineSet
512 640 m 1,0,-1
 319 640 l 1,1,-1
 319 768 l 1,2,-1
 384 768 l 1,3,-1
 384 896 l 1,4,5
 383 896 383 896 575 896 c 1,6,7
 575 897 575 897 575 705 c 1,8,-1
 512 705 l 1,9,-1
 512 640 l 1,0,-1
193 640 m 1,10,-1
 0 640 l 1,11,-1
 0 768 l 1,12,-1
 63 768 l 1,13,-1
 63 896 l 1,14,-1
 256 896 l 1,15,16
 256 897 256 897 256 705 c 1,17,-1
 193 705 l 1,18,-1
 193 640 l 1,10,-1
EndSplineSet
Validated: 33
EndChar

StartChar: numbersign
Encoding: 35 35 6
Width: 896
GlyphClass: 1
Flags: W
LayerCount: 2
Fore
SplineSet
705 0 m 1,0,-1
 512 0 l 1,1,-1
 512 128 l 1,2,-1
 319 128 l 1,3,-1
 319 0 l 1,4,-1
 128 0 l 1,5,-1
 128 128 l 1,6,-1
 0 128 l 1,7,8
 0 127 0 127 0 319 c 1,9,-1
 128 319 l 1,10,-1
 128 512 l 1,11,-1
 0 512 l 1,12,-1
 0 705 l 1,13,-1
 128 705 l 1,14,-1
 128 831 l 1,15,16
 127 831 127 831 319 831 c 1,17,-1
 319 705 l 1,18,-1
 512 705 l 1,19,-1
 512 831 l 1,20,-1
 705 831 l 1,21,-1
 705 705 l 1,22,-1
 831 705 l 1,23,-1
 831 512 l 1,24,-1
 705 512 l 1,25,-1
 705 319 l 1,26,-1
 831 319 l 1,27,-1
 831 128 l 1,28,-1
 705 128 l 1,29,-1
 705 0 l 1,0,-1
319 319 m 1,30,-1
 512 319 l 1,31,-1
 512 512 l 1,32,-1
 319 512 l 1,33,-1
 319 319 l 1,30,-1
EndSplineSet
Validated: 33
EndChar

StartChar: dollar
Encoding: 36 36 7
Width: 768
GlyphClass: 1
Flags: W
LayerCount: 2
Fore
SplineSet
575 -193 m 1,0,-1
 384 -193 l 1,1,-1
 384 -63 l 1,2,3
 383 -63 383 -63 319 -63 c 1,4,-1
 319 -193 l 1,5,-1
 128 -193 l 1,6,-1
 128 0 l 1,7,8
 127 0 127 0 63 0 c 1,9,-1
 63 63 l 1,10,-1
 0 63 l 1,11,-1
 0 193 l 1,12,-1
 128 193 l 1,13,-1
 128 384 l 1,14,15
 127 384 127 384 63 384 c 1,16,17
 63 385 63 385 63 449 c 1,18,-1
 0 449 l 1,19,-1
 0 705 l 1,20,-1
 63 705 l 1,21,-1
 63 768 l 1,22,-1
 128 768 l 1,23,-1
 128 961 l 1,24,25
 127 961 127 961 319 961 c 1,26,-1
 319 831 l 1,27,-1
 384 831 l 1,28,-1
 384 961 l 1,29,30
 383 961 383 961 575 961 c 1,31,-1
 575 768 l 1,32,-1
 640 768 l 1,33,-1
 640 705 l 1,34,35
 641 705 641 705 705 705 c 1,36,-1
 705 575 l 1,37,-1
 575 575 l 1,38,-1
 575 449 l 1,39,-1
 640 449 l 1,40,-1
 640 384 l 1,41,42
 641 384 641 384 705 384 c 1,43,44
 705 383 705 383 705 63 c 1,45,-1
 640 63 l 1,46,-1
 640 0 l 1,47,48
 639 0 639 0 575 0 c 1,49,-1
 575 -193 l 1,0,-1
384 128 m 1,50,51
 384 127 384 127 384 319 c 1,52,53
 383 319 383 319 319 319 c 1,54,-1
 319 128 l 1,55,-1
 384 128 l 1,50,51
384 512 m 1,56,-1
 384 640 l 1,57,58
 383 640 383 640 319 640 c 1,59,-1
 319 512 l 1,60,-1
 384 512 l 1,56,-1
EndSplineSet
Validated: 33
EndChar

StartChar: percent
Encoding: 37 37 8
Width: 959
GlyphClass: 1
Flags: W
LayerCount: 2
Fore
SplineSet
768 -63 m 1,0,-1
 575 -63 l 1,1,-1
 575 0 l 1,2,-1
 512 0 l 1,3,-1
 512 63 l 1,4,-1
 449 63 l 1,5,-1
 449 256 l 1,6,-1
 512 256 l 1,7,-1
 512 319 l 1,8,-1
 575 319 l 1,9,-1
 575 384 l 1,10,-1
 768 384 l 1,11,12
 768 383 768 383 768 319 c 1,13,-1
 831 319 l 1,14,-1
 831 256 l 1,15,-1
 896 256 l 1,16,-1
 896 63 l 1,17,18
 895 63 895 63 831 63 c 1,19,-1
 831 0 l 1,20,-1
 768 0 l 1,21,-1
 768 -63 l 1,0,-1
193 0 m 1,22,-1
 63 0 l 1,23,-1
 63 63 l 1,24,-1
 0 63 l 1,25,-1
 0 193 l 1,26,-1
 63 193 l 1,27,-1
 63 256 l 1,28,-1
 128 256 l 1,29,-1
 128 319 l 1,30,31
 129 319 129 319 193 319 c 1,32,-1
 193 384 l 1,33,-1
 256 384 l 1,34,35
 256 385 256 385 256 449 c 1,36,-1
 319 449 l 1,37,-1
 319 512 l 1,38,-1
 384 512 l 1,39,-1
 384 575 l 1,40,41
 385 575 385 575 449 575 c 1,42,-1
 449 640 l 1,43,-1
 512 640 l 1,44,45
 512 641 512 641 512 705 c 1,46,-1
 575 705 l 1,47,-1
 575 768 l 1,48,-1
 640 768 l 1,49,-1
 640 831 l 1,50,51
 641 831 641 831 705 831 c 1,52,-1
 705 896 l 1,53,-1
 831 896 l 1,54,55
 831 895 831 895 831 831 c 1,56,-1
 896 831 l 1,57,-1
 896 705 l 1,58,59
 895 705 895 705 831 705 c 1,60,-1
 831 640 l 1,61,-1
 768 640 l 1,62,63
 768 639 768 639 768 575 c 1,64,-1
 705 575 l 1,65,-1
 705 512 l 1,66,-1
 640 512 l 1,67,-1
 640 449 l 1,68,69
 639 449 639 449 575 449 c 1,70,-1
 575 384 l 1,71,-1
 512 384 l 1,72,73
 512 383 512 383 512 319 c 1,74,-1
 449 319 l 1,75,-1
 449 256 l 1,76,-1
 384 256 l 1,77,-1
 384 193 l 1,78,79
 383 193 383 193 319 193 c 1,80,-1
 319 128 l 1,81,-1
 256 128 l 1,82,83
 256 127 256 127 256 63 c 1,84,-1
 193 63 l 1,85,-1
 193 0 l 1,22,-1
705 63 m 1,86,-1
 705 128 l 1,87,-1
 768 128 l 1,88,89
 768 129 768 129 768 193 c 1,90,-1
 705 193 l 1,91,-1
 705 256 l 1,92,-1
 640 256 l 1,93,-1
 640 193 l 1,94,95
 639 193 639 193 575 193 c 1,96,-1
 575 128 l 1,97,-1
 640 128 l 1,98,99
 640 127 640 127 640 63 c 1,100,-1
 705 63 l 1,86,-1
319 512 m 1,101,-1
 128 512 l 1,102,-1
 128 575 l 1,103,104
 127 575 127 575 63 575 c 1,105,-1
 63 640 l 1,106,-1
 0 640 l 1,107,108
 0 639 0 639 0 831 c 1,109,-1
 63 831 l 1,110,-1
 63 896 l 1,111,-1
 128 896 l 1,112,113
 128 897 128 897 128 961 c 1,114,115
 127 961 127 961 319 961 c 1,116,-1
 319 896 l 1,117,-1
 384 896 l 1,118,119
 384 895 384 895 384 831 c 1,120,121
 385 831 385 831 449 831 c 1,122,-1
 449 640 l 1,123,-1
 384 640 l 1,124,125
 384 639 384 639 384 575 c 1,126,127
 383 575 383 575 319 575 c 1,128,-1
 319 512 l 1,101,-1
256 640 m 1,129,130
 256 641 256 641 256 705 c 1,131,-1
 319 705 l 1,132,-1
 319 768 l 1,133,-1
 256 768 l 1,134,-1
 256 831 l 1,135,-1
 193 831 l 1,136,-1
 193 768 l 1,137,-1
 128 768 l 1,138,-1
 128 705 l 1,139,140
 129 705 129 705 193 705 c 1,141,-1
 193 640 l 1,142,-1
 256 640 l 1,129,130
EndSplineSet
Validated: 37
EndChar

StartChar: ampersand
Encoding: 38 38 9
Width: 1024
GlyphClass: 1
Flags: W
LayerCount: 2
Fore
SplineSet
896 -63 m 1,0,-1
 768 -63 l 1,1,-1
 768 0 l 1,2,-1
 640 0 l 1,3,-1
 640 -63 l 1,4,5
 641 -63 641 -63 193 -63 c 1,6,-1
 193 0 l 1,7,-1
 63 0 l 1,8,-1
 63 63 l 1,9,-1
 0 63 l 1,10,-1
 0 449 l 1,11,-1
 63 449 l 1,12,-1
 63 512 l 1,13,-1
 193 512 l 1,14,-1
 193 705 l 1,15,-1
 128 705 l 1,16,-1
 128 896 l 1,17,18
 129 896 129 896 193 896 c 1,19,20
 193 897 193 897 193 961 c 1,21,-1
 256 961 l 1,22,-1
 256 1024 l 1,23,-1
 575 1024 l 1,24,-1
 575 961 l 1,25,-1
 640 961 l 1,26,-1
 640 896 l 1,27,28
 641 896 641 896 705 896 c 1,29,-1
 705 640 l 1,30,-1
 640 640 l 1,31,32
 640 639 640 639 640 575 c 1,33,34
 639 575 639 575 575 575 c 1,35,-1
 575 512 l 1,36,-1
 512 512 l 1,37,-1
 512 449 l 1,38,-1
 575 449 l 1,39,-1
 575 384 l 1,40,-1
 640 384 l 1,41,42
 640 383 640 383 640 319 c 1,43,44
 641 319 641 319 705 319 c 1,45,-1
 705 256 l 1,46,-1
 768 256 l 1,47,-1
 768 449 l 1,48,-1
 896 449 l 1,49,-1
 896 384 l 1,50,51
 897 384 897 384 961 384 c 1,52,53
 961 385 961 385 961 193 c 1,54,-1
 896 193 l 1,55,-1
 896 128 l 1,56,57
 895 128 895 128 831 128 c 1,58,59
 831 127 831 127 831 63 c 1,60,-1
 896 63 l 1,61,-1
 896 -63 l 1,0,-1
319 128 m 1,62,-1
 512 128 l 1,63,64
 512 129 512 129 512 193 c 1,65,-1
 575 193 l 1,66,-1
 575 256 l 1,67,-1
 512 256 l 1,68,-1
 512 319 l 1,69,-1
 449 319 l 1,70,-1
 449 384 l 1,71,-1
 384 384 l 1,72,73
 384 385 384 385 384 449 c 1,74,75
 383 449 383 449 319 449 c 1,76,-1
 319 384 l 1,77,-1
 256 384 l 1,78,79
 256 383 256 383 256 319 c 1,80,-1
 193 319 l 1,81,-1
 193 193 l 1,82,-1
 319 193 l 1,83,-1
 319 128 l 1,62,-1
449 640 m 1,84,85
 449 641 449 641 449 705 c 1,86,-1
 512 705 l 1,87,-1
 512 768 l 1,88,-1
 575 768 l 1,89,-1
 575 831 l 1,90,-1
 512 831 l 1,91,-1
 512 896 l 1,92,-1
 384 896 l 1,93,94
 384 895 384 895 384 831 c 1,95,96
 383 831 383 831 319 831 c 1,97,-1
 319 705 l 1,98,-1
 384 705 l 1,99,-1
 384 640 l 1,100,-1
 449 640 l 1,84,85
EndSplineSet
Validated: 33
EndChar

StartChar: quotesingle
Encoding: 39 39 10
Width: 319
GlyphClass: 1
Flags: W
LayerCount: 2
Fore
SplineSet
193 640 m 1,0,-1
 0 640 l 1,1,-1
 0 768 l 1,2,-1
 63 768 l 1,3,-1
 63 896 l 1,4,-1
 256 896 l 1,5,6
 256 897 256 897 256 705 c 1,7,-1
 193 705 l 1,8,-1
 193 640 l 1,0,-1
EndSplineSet
Validated: 33
EndChar

StartChar: parenleft
Encoding: 40 40 11
Width: 512
GlyphClass: 1
Flags: W
LayerCount: 2
Fore
SplineSet
512 961 m 1024,0,-1
449 -128 m 1,1,-1
 256 -128 l 1,2,3
 256 -127 256 -127 256 -63 c 1,4,-1
 193 -63 l 1,5,-1
 193 0 l 1,6,-1
 128 0 l 1,7,-1
 128 128 l 1,8,9
 127 128 127 128 63 128 c 1,10,-1
 63 256 l 1,11,-1
 0 256 l 1,12,-1
 0 640 l 1,13,-1
 63 640 l 1,14,-1
 63 768 l 1,15,-1
 128 768 l 1,16,-1
 128 896 l 1,17,18
 129 896 129 896 193 896 c 1,19,20
 193 897 193 897 193 961 c 1,21,-1
 256 961 l 1,22,-1
 256 1024 l 1,23,-1
 449 1024 l 1,24,-1
 449 831 l 1,25,-1
 384 831 l 1,26,-1
 384 768 l 1,27,28
 383 768 383 768 319 768 c 1,29,-1
 319 640 l 1,30,-1
 256 640 l 1,31,-1
 256 256 l 1,32,-1
 319 256 l 1,33,-1
 319 128 l 1,34,-1
 384 128 l 1,35,36
 384 127 384 127 384 63 c 1,37,38
 385 63 385 63 449 63 c 1,39,-1
 449 -128 l 1,1,-1
EndSplineSet
Validated: 1
EndChar

StartChar: parenright
Encoding: 41 41 12
Width: 512
GlyphClass: 1
Flags: W
LayerCount: 2
Fore
SplineSet
193 -128 m 1,0,-1
 0 -128 l 1,1,2
 0 -129 0 -129 0 63 c 1,3,-1
 63 63 l 1,4,-1
 63 128 l 1,5,-1
 128 128 l 1,6,-1
 128 256 l 1,7,8
 129 256 129 256 193 256 c 1,9,-1
 193 640 l 1,10,-1
 128 640 l 1,11,-1
 128 768 l 1,12,13
 127 768 127 768 63 768 c 1,14,-1
 63 831 l 1,15,-1
 0 831 l 1,16,-1
 0 1024 l 1,17,-1
 193 1024 l 1,18,-1
 193 961 l 1,19,-1
 256 961 l 1,20,-1
 256 896 l 1,21,-1
 319 896 l 1,22,-1
 319 768 l 1,23,-1
 384 768 l 1,24,-1
 384 640 l 1,25,26
 385 640 385 640 449 640 c 1,27,-1
 449 256 l 1,28,-1
 384 256 l 1,29,-1
 384 128 l 1,30,31
 383 128 383 128 319 128 c 1,32,-1
 319 0 l 1,33,-1
 256 0 l 1,34,-1
 256 -63 l 1,35,-1
 193 -63 l 1,36,-1
 193 -128 l 1,0,-1
EndSplineSet
Validated: 33
EndChar

StartChar: asterisk
Encoding: 42 42 13
Width: 447
GlyphClass: 1
Flags: W
LayerCount: 2
Fore
SplineSet
384 640 m 1,0,-1
 256 640 l 1,1,2
 256 641 256 641 256 705 c 1,3,-1
 128 705 l 1,4,-1
 128 640 l 1,5,-1
 0 640 l 1,6,-1
 0 768 l 1,7,-1
 63 768 l 1,8,-1
 63 831 l 1,9,-1
 0 831 l 1,10,-1
 0 961 l 1,11,-1
 128 961 l 1,12,-1
 128 1024 l 1,13,-1
 256 1024 l 1,14,-1
 256 961 l 1,15,-1
 384 961 l 1,16,-1
 384 831 l 1,17,18
 383 831 383 831 319 831 c 1,19,-1
 319 768 l 1,20,-1
 384 768 l 1,21,-1
 384 640 l 1,0,-1
EndSplineSet
Validated: 1
EndChar

StartChar: plus
Encoding: 43 43 14
Width: 831
GlyphClass: 1
Flags: W
LayerCount: 2
Fore
SplineSet
512 0 m 1,0,-1
 256 0 l 1,1,-1
 256 256 l 1,2,-1
 0 256 l 1,3,-1
 0 512 l 1,4,-1
 256 512 l 1,5,-1
 256 768 l 1,6,-1
 512 768 l 1,7,-1
 512 512 l 1,8,-1
 768 512 l 1,9,-1
 768 256 l 1,10,-1
 512 256 l 1,11,-1
 512 0 l 1,0,-1
EndSplineSet
Validated: 1
EndChar

StartChar: comma
Encoding: 44 44 15
Width: 319
GlyphClass: 1
Flags: W
LayerCount: 2
Fore
SplineSet
193 -63 m 1,0,-1
 0 -63 l 1,1,-1
 0 63 l 1,2,-1
 63 63 l 1,3,-1
 63 193 l 1,4,-1
 256 193 l 1,5,-1
 256 0 l 1,6,-1
 193 0 l 1,7,-1
 193 -63 l 1,0,-1
EndSplineSet
Validated: 1
EndChar

StartChar: hyphen
Encoding: 45 45 16
Width: 768
GlyphClass: 1
Flags: W
LayerCount: 2
Fore
SplineSet
705 256 m 1,0,-1
 0 256 l 1,1,-1
 0 512 l 1,2,-1
 705 512 l 1,3,-1
 705 256 l 1,0,-1
EndSplineSet
Validated: 1
EndChar

StartChar: period
Encoding: 46 46 17
Width: 256
GlyphClass: 1
Flags: W
LayerCount: 2
Fore
SplineSet
193 0 m 1,0,-1
 0 0 l 1,1,-1
 0 193 l 1,2,-1
 193 193 l 1,3,-1
 193 0 l 1,0,-1
EndSplineSet
Validated: 1
EndChar

StartChar: slash
Encoding: 47 47 18
Width: 959
GlyphClass: 1
Flags: W
LayerCount: 2
Fore
SplineSet
193 0 m 1,0,-1
 63 0 l 1,1,-1
 63 63 l 1,2,-1
 0 63 l 1,3,-1
 0 193 l 1,4,-1
 63 193 l 1,5,-1
 63 256 l 1,6,-1
 128 256 l 1,7,-1
 128 319 l 1,8,9
 129 319 129 319 193 319 c 1,10,-1
 193 384 l 1,11,-1
 256 384 l 1,12,13
 256 385 256 385 256 449 c 1,14,-1
 319 449 l 1,15,-1
 319 512 l 1,16,-1
 384 512 l 1,17,-1
 384 575 l 1,18,19
 385 575 385 575 449 575 c 1,20,-1
 449 640 l 1,21,-1
 512 640 l 1,22,23
 512 641 512 641 512 705 c 1,24,-1
 575 705 l 1,25,-1
 575 768 l 1,26,-1
 640 768 l 1,27,-1
 640 831 l 1,28,29
 641 831 641 831 705 831 c 1,30,-1
 705 896 l 1,31,-1
 831 896 l 1,32,33
 831 895 831 895 831 831 c 1,34,-1
 896 831 l 1,35,-1
 896 705 l 1,36,37
 895 705 895 705 831 705 c 1,38,-1
 831 640 l 1,39,-1
 768 640 l 1,40,41
 768 639 768 639 768 575 c 1,42,-1
 705 575 l 1,43,-1
 705 512 l 1,44,-1
 640 512 l 1,45,-1
 640 449 l 1,46,47
 639 449 639 449 575 449 c 1,48,-1
 575 384 l 1,49,-1
 512 384 l 1,50,51
 512 383 512 383 512 319 c 1,52,-1
 449 319 l 1,53,-1
 449 256 l 1,54,-1
 384 256 l 1,55,-1
 384 193 l 1,56,57
 383 193 383 193 319 193 c 1,58,-1
 319 128 l 1,59,-1
 256 128 l 1,60,61
 256 127 256 127 256 63 c 1,62,-1
 193 63 l 1,63,-1
 193 0 l 1,0,-1
EndSplineSet
Validated: 1
EndChar

StartChar: zero
Encoding: 48 48 19
Width: 831
GlyphClass: 1
Flags: W
LayerCount: 2
Fore
SplineSet
640 0 m 1,0,-1
 128 0 l 1,1,-1
 128 63 l 1,2,3
 127 63 127 63 63 63 c 1,4,-1
 63 193 l 1,5,-1
 0 193 l 1,6,-1
 0 705 l 1,7,-1
 63 705 l 1,8,-1
 63 831 l 1,9,-1
 128 831 l 1,10,-1
 128 896 l 1,11,-1
 640 896 l 1,12,13
 640 895 640 895 640 831 c 1,14,15
 641 831 641 831 705 831 c 1,16,-1
 705 705 l 1,17,-1
 768 705 l 1,18,-1
 768 193 l 1,19,-1
 705 193 l 1,20,-1
 705 63 l 1,21,-1
 640 63 l 1,22,-1
 640 0 l 1,0,-1
319 193 m 1,23,-1
 449 193 l 1,24,-1
 449 256 l 1,25,-1
 512 256 l 1,26,-1
 512 640 l 1,27,-1
 449 640 l 1,28,29
 449 641 449 641 449 705 c 1,30,-1
 319 705 l 1,31,-1
 319 640 l 1,32,-1
 256 640 l 1,33,-1
 256 256 l 1,34,-1
 319 256 l 1,35,-1
 319 193 l 1,23,-1
EndSplineSet
Validated: 1
EndChar

StartChar: one
Encoding: 49 49 20
Width: 575
GlyphClass: 1
Flags: W
LayerCount: 2
Fore
SplineSet
512 0 m 1,0,-1
 0 0 l 1,1,-1
 0 193 l 1,2,-1
 128 193 l 1,3,-1
 128 575 l 1,4,-1
 0 575 l 1,5,-1
 0 768 l 1,6,-1
 63 768 l 1,7,-1
 63 831 l 1,8,-1
 128 831 l 1,9,-1
 128 896 l 1,10,-1
 384 896 l 1,11,12
 384 897 384 897 384 193 c 1,13,-1
 512 193 l 1,14,-1
 512 0 l 1,0,-1
EndSplineSet
Validated: 33
EndChar

StartChar: two
Encoding: 50 50 21
Width: 768
GlyphClass: 1
Flags: W
LayerCount: 2
Fore
SplineSet
705 0 m 1,0,-1
 0 0 l 1,1,-1
 0 256 l 1,2,-1
 63 256 l 1,3,-1
 63 319 l 1,4,-1
 128 319 l 1,5,-1
 128 384 l 1,6,-1
 256 384 l 1,7,8
 256 385 256 385 256 449 c 1,9,-1
 319 449 l 1,10,-1
 319 512 l 1,11,-1
 384 512 l 1,12,-1
 384 705 l 1,13,-1
 256 705 l 1,14,-1
 256 640 l 1,15,-1
 193 640 l 1,16,17
 193 639 193 639 193 575 c 1,18,-1
 0 575 l 1,19,-1
 0 768 l 1,20,-1
 63 768 l 1,21,-1
 63 831 l 1,22,-1
 128 831 l 1,23,-1
 128 896 l 1,24,25
 127 896 127 896 575 896 c 1,26,27
 575 895 575 895 575 831 c 1,28,-1
 640 831 l 1,29,-1
 640 768 l 1,30,31
 641 768 641 768 705 768 c 1,32,-1
 705 449 l 1,33,-1
 640 449 l 1,34,-1
 640 384 l 1,35,36
 639 384 639 384 575 384 c 1,37,38
 575 383 575 383 575 319 c 1,39,-1
 512 319 l 1,40,-1
 512 256 l 1,41,-1
 449 256 l 1,42,-1
 449 193 l 1,43,-1
 705 193 l 1,44,-1
 705 0 l 1,0,-1
EndSplineSet
Validated: 33
EndChar

StartChar: three
Encoding: 51 51 22
Width: 768
GlyphClass: 1
Flags: W
LayerCount: 2
Fore
SplineSet
575 0 m 1,0,-1
 193 0 l 1,1,-1
 193 63 l 1,2,-1
 63 63 l 1,3,-1
 63 128 l 1,4,-1
 0 128 l 1,5,-1
 0 256 l 1,6,-1
 63 256 l 1,7,-1
 63 319 l 1,8,-1
 193 319 l 1,9,-1
 193 256 l 1,10,-1
 319 256 l 1,11,-1
 319 193 l 1,12,-1
 384 193 l 1,13,-1
 384 256 l 1,14,15
 385 256 385 256 449 256 c 1,16,-1
 449 384 l 1,17,-1
 256 384 l 1,18,19
 256 383 256 383 256 575 c 1,20,-1
 449 575 l 1,21,-1
 449 640 l 1,22,-1
 384 640 l 1,23,24
 384 641 384 641 384 705 c 1,25,-1
 256 705 l 1,26,-1
 256 640 l 1,27,-1
 193 640 l 1,28,29
 193 639 193 639 193 575 c 1,30,-1
 63 575 l 1,31,-1
 63 640 l 1,32,-1
 0 640 l 1,33,-1
 0 768 l 1,34,-1
 63 768 l 1,35,-1
 63 831 l 1,36,-1
 128 831 l 1,37,-1
 128 896 l 1,38,39
 127 896 127 896 575 896 c 1,40,41
 575 895 575 895 575 831 c 1,42,-1
 640 831 l 1,43,-1
 640 768 l 1,44,45
 641 768 641 768 705 768 c 1,46,-1
 705 512 l 1,47,-1
 640 512 l 1,48,-1
 640 449 l 1,49,50
 641 449 641 449 705 449 c 1,51,-1
 705 128 l 1,52,-1
 640 128 l 1,53,54
 640 127 640 127 640 63 c 1,55,56
 639 63 639 63 575 63 c 1,57,-1
 575 0 l 1,0,-1
EndSplineSet
Validated: 33
EndChar

StartChar: four
Encoding: 52 52 23
Width: 768
GlyphClass: 1
Flags: W
LayerCount: 2
Fore
SplineSet
705 0 m 1,0,-1
 449 0 l 1,1,-1
 449 256 l 1,2,-1
 0 256 l 1,3,-1
 0 575 l 1,4,-1
 63 575 l 1,5,-1
 63 640 l 1,6,-1
 128 640 l 1,7,8
 128 641 128 641 128 705 c 1,9,10
 129 705 129 705 193 705 c 1,11,-1
 193 768 l 1,12,-1
 256 768 l 1,13,-1
 256 831 l 1,14,-1
 319 831 l 1,15,-1
 319 896 l 1,16,-1
 705 896 l 1,17,-1
 705 0 l 1,0,-1
256 449 m 1,18,-1
 449 449 l 1,19,-1
 449 640 l 1,20,-1
 319 640 l 1,21,-1
 319 512 l 1,22,-1
 256 512 l 1,23,-1
 256 449 l 1,18,-1
EndSplineSet
Validated: 1
EndChar

StartChar: five
Encoding: 53 53 24
Width: 831
GlyphClass: 1
Flags: W
LayerCount: 2
Fore
SplineSet
640 0 m 1,0,-1
 128 0 l 1,1,-1
 128 63 l 1,2,-1
 0 63 l 1,3,-1
 0 256 l 1,4,-1
 256 256 l 1,5,-1
 256 193 l 1,6,-1
 449 193 l 1,7,-1
 449 256 l 1,8,-1
 512 256 l 1,9,-1
 512 319 l 1,10,-1
 449 319 l 1,11,-1
 449 384 l 1,12,-1
 0 384 l 1,13,14
 0 383 0 383 0 831 c 1,15,-1
 63 831 l 1,16,-1
 63 896 l 1,17,-1
 705 896 l 1,18,19
 705 897 705 897 705 705 c 1,20,-1
 319 705 l 1,21,-1
 319 575 l 1,22,-1
 640 575 l 1,23,-1
 640 512 l 1,24,25
 641 512 641 512 705 512 c 1,26,-1
 705 449 l 1,27,-1
 768 449 l 1,28,-1
 768 193 l 1,29,-1
 705 193 l 1,30,-1
 705 63 l 1,31,-1
 640 63 l 1,32,-1
 640 0 l 1,0,-1
EndSplineSet
Validated: 33
EndChar

StartChar: six
Encoding: 54 54 25
Width: 896
GlyphClass: 1
Flags: W
LayerCount: 2
Fore
SplineSet
705 0 m 1,0,-1
 256 0 l 1,1,-1
 256 63 l 1,2,-1
 128 63 l 1,3,-1
 128 193 l 1,4,5
 127 193 127 193 63 193 c 1,6,-1
 63 640 l 1,7,-1
 128 640 l 1,8,-1
 128 768 l 1,9,10
 129 768 129 768 193 768 c 1,11,-1
 193 831 l 1,12,-1
 319 831 l 1,13,-1
 319 896 l 1,14,-1
 705 896 l 1,15,16
 705 895 705 895 705 831 c 1,17,-1
 768 831 l 1,18,-1
 768 640 l 1,19,-1
 384 640 l 1,20,21
 384 639 384 639 384 575 c 1,22,23
 385 575 385 575 705 575 c 1,24,-1
 705 512 l 1,25,-1
 768 512 l 1,26,-1
 768 449 l 1,27,-1
 831 449 l 1,28,-1
 831 128 l 1,29,-1
 768 128 l 1,30,31
 768 127 768 127 768 63 c 1,32,-1
 705 63 l 1,33,-1
 705 0 l 1,0,-1
449 193 m 1,34,-1
 575 193 l 1,35,-1
 575 256 l 1,36,-1
 640 256 l 1,37,-1
 640 319 l 1,38,39
 639 319 639 319 575 319 c 1,40,-1
 575 384 l 1,41,-1
 449 384 l 1,42,43
 449 383 449 383 449 319 c 1,44,-1
 384 319 l 1,45,-1
 384 256 l 1,46,47
 385 256 385 256 449 256 c 1,48,-1
 449 193 l 1,34,-1
EndSplineSet
Validated: 1
EndChar

StartChar: seven
Encoding: 55 55 26
Width: 768
GlyphClass: 1
Flags: W
LayerCount: 2
Fore
SplineSet
384 0 m 1,0,-1
 128 0 l 1,1,-1
 128 193 l 1,2,3
 129 193 129 193 193 193 c 1,4,-1
 193 319 l 1,5,-1
 256 319 l 1,6,-1
 256 449 l 1,7,-1
 319 449 l 1,8,-1
 319 575 l 1,9,-1
 384 575 l 1,10,-1
 384 705 l 1,11,-1
 0 705 l 1,12,-1
 0 896 l 1,13,-1
 705 896 l 1,14,-1
 705 640 l 1,15,-1
 640 640 l 1,16,-1
 640 512 l 1,17,18
 639 512 639 512 575 512 c 1,19,-1
 575 384 l 1,20,-1
 512 384 l 1,21,-1
 512 256 l 1,22,-1
 449 256 l 1,23,-1
 449 128 l 1,24,-1
 384 128 l 1,25,-1
 384 0 l 1,0,-1
EndSplineSet
Validated: 1
EndChar

StartChar: eight
Encoding: 56 56 27
Width: 831
GlyphClass: 1
Flags: W
LayerCount: 2
Fore
SplineSet
640 0 m 1,0,-1
 128 0 l 1,1,-1
 128 63 l 1,2,3
 127 63 127 63 63 63 c 1,4,-1
 63 128 l 1,5,-1
 0 128 l 1,6,7
 0 129 0 129 0 449 c 1,8,-1
 63 449 l 1,9,-1
 63 512 l 1,10,-1
 0 512 l 1,11,-1
 0 768 l 1,12,-1
 63 768 l 1,13,-1
 63 831 l 1,14,-1
 128 831 l 1,15,-1
 128 896 l 1,16,-1
 640 896 l 1,17,18
 640 895 640 895 640 831 c 1,19,20
 641 831 641 831 705 831 c 1,21,-1
 705 768 l 1,22,-1
 768 768 l 1,23,-1
 768 512 l 1,24,-1
 705 512 l 1,25,-1
 705 449 l 1,26,-1
 768 449 l 1,27,-1
 768 128 l 1,28,-1
 705 128 l 1,29,30
 705 127 705 127 705 63 c 1,31,-1
 640 63 l 1,32,-1
 640 0 l 1,0,-1
319 193 m 1,33,-1
 449 193 l 1,34,-1
 449 256 l 1,35,-1
 512 256 l 1,36,-1
 512 319 l 1,37,-1
 449 319 l 1,38,-1
 449 384 l 1,39,-1
 319 384 l 1,40,41
 319 383 319 383 319 319 c 1,42,-1
 256 319 l 1,43,-1
 256 256 l 1,44,-1
 319 256 l 1,45,-1
 319 193 l 1,33,-1
319 512 m 1,46,-1
 449 512 l 1,47,-1
 449 575 l 1,48,-1
 512 575 l 1,49,-1
 512 640 l 1,50,-1
 449 640 l 1,51,52
 449 641 449 641 449 705 c 1,53,-1
 319 705 l 1,54,-1
 319 640 l 1,55,-1
 256 640 l 1,56,57
 256 639 256 639 256 575 c 1,58,-1
 319 575 l 1,59,-1
 319 512 l 1,46,-1
EndSplineSet
Validated: 1
EndChar

StartChar: nine
Encoding: 57 57 28
Width: 831
GlyphClass: 1
Flags: W
LayerCount: 2
Fore
SplineSet
512 0 m 1,0,-1
 128 0 l 1,1,-1
 128 63 l 1,2,3
 127 63 127 63 63 63 c 1,4,-1
 63 256 l 1,5,-1
 449 256 l 1,6,-1
 449 319 l 1,7,-1
 128 319 l 1,8,-1
 128 384 l 1,9,10
 127 384 127 384 63 384 c 1,11,12
 63 385 63 385 63 449 c 1,13,-1
 0 449 l 1,14,-1
 0 768 l 1,15,-1
 63 768 l 1,16,-1
 63 831 l 1,17,-1
 128 831 l 1,18,-1
 128 896 l 1,19,20
 127 896 127 896 575 896 c 1,21,22
 575 895 575 895 575 831 c 1,23,-1
 705 831 l 1,24,-1
 705 705 l 1,25,-1
 768 705 l 1,26,-1
 768 256 l 1,27,-1
 705 256 l 1,28,-1
 705 128 l 1,29,-1
 640 128 l 1,30,31
 640 127 640 127 640 63 c 1,32,-1
 512 63 l 1,33,-1
 512 0 l 1,0,-1
256 512 m 1,34,-1
 384 512 l 1,35,-1
 384 575 l 1,36,37
 385 575 385 575 449 575 c 1,38,-1
 449 640 l 1,39,-1
 384 640 l 1,40,41
 384 641 384 641 384 705 c 1,42,-1
 256 705 l 1,43,-1
 256 640 l 1,44,-1
 193 640 l 1,45,46
 193 639 193 639 193 575 c 1,47,-1
 256 575 l 1,48,-1
 256 512 l 1,34,-1
EndSplineSet
Validated: 33
EndChar

StartChar: colon
Encoding: 58 58 29
Width: 256
GlyphClass: 1
Flags: W
LayerCount: 2
Fore
SplineSet
193 0 m 1,0,-1
 0 0 l 1,1,-1
 0 193 l 1,2,-1
 193 193 l 1,3,-1
 193 0 l 1,0,-1
193 512 m 1,4,-1
 0 512 l 1,5,-1
 0 705 l 1,6,-1
 193 705 l 1,7,-1
 193 512 l 1,4,-1
EndSplineSet
Validated: 1
EndChar

StartChar: semicolon
Encoding: 59 59 30
Width: 319
GlyphClass: 1
Flags: W
LayerCount: 2
Fore
SplineSet
193 -63 m 1,0,-1
 0 -63 l 1,1,-1
 0 63 l 1,2,-1
 63 63 l 1,3,-1
 63 193 l 1,4,-1
 256 193 l 1,5,-1
 256 0 l 1,6,-1
 193 0 l 1,7,-1
 193 -63 l 1,0,-1
256 512 m 1,8,-1
 63 512 l 1,9,-1
 63 705 l 1,10,-1
 256 705 l 1,11,-1
 256 512 l 1,8,-1
EndSplineSet
Validated: 1
EndChar

StartChar: less
Encoding: 60 60 31
Width: 768
GlyphClass: 1
Flags: W
LayerCount: 2
Fore
SplineSet
705 -256 m 1,0,-1
 512 -256 l 1,1,-1
 512 -193 l 1,2,-1
 449 -193 l 1,3,-1
 449 -128 l 1,4,-1
 384 -128 l 1,5,6
 384 -127 384 -127 384 -63 c 1,7,8
 383 -63 383 -63 319 -63 c 1,9,-1
 319 0 l 1,10,-1
 256 0 l 1,11,-1
 256 63 l 1,12,-1
 193 63 l 1,13,-1
 193 128 l 1,14,-1
 128 128 l 1,15,16
 128 129 128 129 128 193 c 1,17,18
 127 193 127 193 63 193 c 1,19,-1
 63 256 l 1,20,-1
 0 256 l 1,21,-1
 0 384 l 1,22,-1
 63 384 l 1,23,24
 63 385 63 385 63 449 c 1,25,-1
 128 449 l 1,26,-1
 128 512 l 1,27,28
 129 512 129 512 193 512 c 1,29,-1
 193 575 l 1,30,-1
 256 575 l 1,31,-1
 256 640 l 1,32,-1
 319 640 l 1,33,34
 319 641 319 641 319 705 c 1,35,-1
 384 705 l 1,36,-1
 384 768 l 1,37,38
 385 768 385 768 449 768 c 1,39,-1
 449 831 l 1,40,-1
 512 831 l 1,41,-1
 512 896 l 1,42,-1
 705 896 l 1,43,44
 705 897 705 897 705 705 c 1,45,-1
 640 705 l 1,46,-1
 640 640 l 1,47,48
 639 640 639 640 575 640 c 1,49,50
 575 639 575 639 575 575 c 1,51,-1
 512 575 l 1,52,-1
 512 512 l 1,53,-1
 449 512 l 1,54,-1
 449 449 l 1,55,-1
 384 449 l 1,56,-1
 384 384 l 1,57,58
 383 384 383 384 319 384 c 1,59,-1
 319 256 l 1,60,-1
 384 256 l 1,61,-1
 384 193 l 1,62,63
 385 193 385 193 449 193 c 1,64,-1
 449 128 l 1,65,-1
 512 128 l 1,66,67
 512 127 512 127 512 63 c 1,68,-1
 575 63 l 1,69,-1
 575 0 l 1,70,-1
 640 0 l 1,71,-1
 640 -63 l 1,72,73
 641 -63 641 -63 705 -63 c 1,74,-1
 705 -256 l 1,0,-1
EndSplineSet
Validated: 33
EndChar

StartChar: equal
Encoding: 61 61 32
Width: 896
GlyphClass: 1
Flags: W
LayerCount: 2
Fore
SplineSet
831 63 m 1,0,-1
 0 63 l 1,1,-1
 0 256 l 1,2,-1
 831 256 l 1,3,-1
 831 63 l 1,0,-1
831 384 m 1,4,-1
 0 384 l 1,5,6
 0 383 0 383 0 575 c 1,7,-1
 831 575 l 1,8,-1
 831 384 l 1,4,-1
EndSplineSet
Validated: 33
EndChar

StartChar: greater
Encoding: 62 62 33
Width: 768
GlyphClass: 1
Flags: W
LayerCount: 2
Fore
SplineSet
193 -256 m 1,0,-1
 0 -256 l 1,1,-1
 0 -63 l 1,2,-1
 63 -63 l 1,3,-1
 63 0 l 1,4,-1
 128 0 l 1,5,-1
 128 63 l 1,6,7
 129 63 129 63 193 63 c 1,8,-1
 193 128 l 1,9,-1
 256 128 l 1,10,11
 256 129 256 129 256 193 c 1,12,-1
 319 193 l 1,13,-1
 319 256 l 1,14,-1
 384 256 l 1,15,-1
 384 384 l 1,16,17
 383 384 383 384 319 384 c 1,18,19
 319 385 319 385 319 449 c 1,20,-1
 256 449 l 1,21,-1
 256 512 l 1,22,-1
 193 512 l 1,23,-1
 193 575 l 1,24,-1
 128 575 l 1,25,-1
 128 640 l 1,26,27
 127 640 127 640 63 640 c 1,28,29
 63 641 63 641 63 705 c 1,30,-1
 0 705 l 1,31,-1
 0 896 l 1,32,-1
 193 896 l 1,33,34
 193 895 193 895 193 831 c 1,35,-1
 256 831 l 1,36,-1
 256 768 l 1,37,-1
 319 768 l 1,38,-1
 319 705 l 1,39,-1
 384 705 l 1,40,-1
 384 640 l 1,41,42
 385 640 385 640 449 640 c 1,43,44
 449 639 449 639 449 575 c 1,45,-1
 512 575 l 1,46,-1
 512 512 l 1,47,-1
 575 512 l 1,48,-1
 575 449 l 1,49,-1
 640 449 l 1,50,-1
 640 384 l 1,51,52
 641 384 641 384 705 384 c 1,53,-1
 705 256 l 1,54,-1
 640 256 l 1,55,-1
 640 193 l 1,56,57
 639 193 639 193 575 193 c 1,58,-1
 575 128 l 1,59,-1
 512 128 l 1,60,61
 512 127 512 127 512 63 c 1,62,-1
 449 63 l 1,63,-1
 449 0 l 1,64,-1
 384 0 l 1,65,-1
 384 -63 l 1,66,67
 383 -63 383 -63 319 -63 c 1,68,-1
 319 -128 l 1,69,-1
 256 -128 l 1,70,71
 256 -129 256 -129 256 -193 c 1,72,-1
 193 -193 l 1,73,-1
 193 -256 l 1,0,-1
EndSplineSet
Validated: 1
EndChar

StartChar: question
Encoding: 63 63 34
Width: 768
GlyphClass: 1
Flags: W
LayerCount: 2
Fore
SplineSet
449 0 m 1,0,-1
 256 0 l 1,1,-1
 256 193 l 1,2,-1
 449 193 l 1,3,-1
 449 0 l 1,0,-1
449 256 m 1,4,-1
 256 256 l 1,5,-1
 256 319 l 1,6,-1
 193 319 l 1,7,-1
 193 512 l 1,8,-1
 256 512 l 1,9,-1
 256 575 l 1,10,-1
 384 575 l 1,11,-1
 384 640 l 1,12,13
 385 640 385 640 449 640 c 1,14,-1
 449 768 l 1,15,-1
 256 768 l 1,16,-1
 256 705 l 1,17,-1
 193 705 l 1,18,-1
 193 575 l 1,19,-1
 63 575 l 1,20,-1
 63 640 l 1,21,-1
 0 640 l 1,22,23
 0 639 0 639 0 831 c 1,24,-1
 63 831 l 1,25,-1
 63 896 l 1,26,-1
 128 896 l 1,27,28
 128 897 128 897 128 961 c 1,29,30
 127 961 127 961 575 961 c 1,31,-1
 575 896 l 1,32,-1
 640 896 l 1,33,34
 640 895 640 895 640 831 c 1,35,36
 641 831 641 831 705 831 c 1,37,-1
 705 575 l 1,38,-1
 640 575 l 1,39,-1
 640 512 l 1,40,-1
 512 512 l 1,41,-1
 512 384 l 1,42,-1
 449 384 l 1,43,-1
 449 256 l 1,4,-1
EndSplineSet
Validated: 33
EndChar

StartChar: at
Encoding: 64 64 35
Width: 1024
GlyphClass: 1
Flags: W
LayerCount: 2
Fore
SplineSet
384 128 m 1,0,1
 384 129 384 129 384 193 c 1,2,3
 383 193 383 193 319 193 c 1,4,-1
 319 256 l 1,5,-1
 256 256 l 1,6,-1
 256 512 l 1,7,-1
 319 512 l 1,8,-1
 319 575 l 1,9,-1
 384 575 l 1,10,-1
 384 640 l 1,11,-1
 640 640 l 1,12,13
 640 639 640 639 640 575 c 1,14,15
 641 575 641 575 705 575 c 1,16,-1
 705 512 l 1,17,-1
 768 512 l 1,18,-1
 768 640 l 1,19,-1
 705 640 l 1,20,21
 705 641 705 641 705 705 c 1,22,-1
 640 705 l 1,23,-1
 640 768 l 1,24,-1
 384 768 l 1,25,-1
 384 705 l 1,26,-1
 256 705 l 1,27,-1
 256 640 l 1,28,-1
 193 640 l 1,29,-1
 193 512 l 1,30,-1
 128 512 l 1,31,-1
 128 319 l 1,32,33
 129 319 129 319 193 319 c 1,34,-1
 193 193 l 1,35,-1
 256 193 l 1,36,-1
 256 128 l 1,37,-1
 319 128 l 1,38,39
 319 127 319 127 319 63 c 1,40,-1
 449 63 l 1,41,-1
 449 -63 l 1,42,-1
 319 -63 l 1,43,-1
 319 0 l 1,44,-1
 193 0 l 1,45,-1
 193 63 l 1,46,-1
 128 63 l 1,47,-1
 128 128 l 1,48,49
 127 128 127 128 63 128 c 1,50,51
 63 129 63 129 63 193 c 1,52,-1
 0 193 l 1,53,-1
 0 640 l 1,54,-1
 63 640 l 1,55,56
 63 641 63 641 63 705 c 1,57,-1
 128 705 l 1,58,-1
 128 768 l 1,59,60
 129 768 129 768 193 768 c 1,61,-1
 193 831 l 1,62,-1
 319 831 l 1,63,-1
 319 896 l 1,64,-1
 640 896 l 1,65,66
 640 895 640 895 640 831 c 1,67,-1
 768 831 l 1,68,-1
 768 768 l 1,69,-1
 831 768 l 1,70,-1
 831 705 l 1,71,-1
 896 705 l 1,72,-1
 896 575 l 1,73,74
 897 575 897 575 961 575 c 1,75,-1
 961 319 l 1,76,-1
 896 319 l 1,77,-1
 896 193 l 1,78,79
 895 193 895 193 831 193 c 1,80,-1
 831 128 l 1,81,-1
 768 128 l 1,82,83
 768 127 768 127 768 63 c 1,84,-1
 575 63 l 1,85,-1
 575 128 l 1,86,-1
 512 128 l 1,87,88
 512 129 512 129 512 193 c 1,89,-1
 449 193 l 1,90,-1
 449 128 l 1,91,-1
 384 128 l 1,0,1
640 256 m 1,92,-1
 768 256 l 1,93,-1
 768 319 l 1,94,-1
 831 319 l 1,95,-1
 831 512 l 1,96,-1
 768 512 l 1,97,-1
 768 384 l 1,98,-1
 705 384 l 1,99,100
 705 383 705 383 705 319 c 1,101,-1
 640 319 l 1,102,-1
 640 256 l 1,92,-1
384 319 m 1,103,-1
 512 319 l 1,104,-1
 512 384 l 1,105,-1
 575 384 l 1,106,-1
 575 512 l 1,107,-1
 449 512 l 1,108,-1
 449 449 l 1,109,-1
 384 449 l 1,110,-1
 384 319 l 1,103,-1
EndSplineSet
Validated: 5
EndChar

StartChar: A
Encoding: 65 65 36
Width: 768
GlyphClass: 1
Flags: W
LayerCount: 2
Fore
SplineSet
705 0 m 1,0,-1
 449 0 l 1,1,-1
 449 256 l 1,2,-1
 256 256 l 1,3,-1
 256 0 l 1,4,-1
 0 0 l 1,5,-1
 0 768 l 1,6,-1
 63 768 l 1,7,-1
 63 831 l 1,8,-1
 640 831 l 1,9,-1
 640 768 l 1,10,11
 641 768 641 768 705 768 c 1,12,-1
 705 0 l 1,0,-1
256 449 m 1,13,-1
 449 449 l 1,14,-1
 449 640 l 1,15,-1
 256 640 l 1,16,-1
 256 449 l 1,13,-1
EndSplineSet
Validated: 1
EndChar

StartChar: B
Encoding: 66 66 37
Width: 768
GlyphClass: 1
Flags: W
LayerCount: 2
Fore
SplineSet
640 0 m 1,0,-1
 0 0 l 1,1,-1
 0 768 l 1,2,-1
 63 768 l 1,3,-1
 63 831 l 1,4,-1
 640 831 l 1,5,-1
 640 768 l 1,6,7
 641 768 641 768 705 768 c 1,8,-1
 705 63 l 1,9,-1
 640 63 l 1,10,-1
 640 0 l 1,0,-1
256 193 m 1,11,-1
 512 193 l 1,12,-1
 512 319 l 1,13,-1
 449 319 l 1,14,-1
 449 384 l 1,15,-1
 256 384 l 1,16,-1
 256 193 l 1,11,-1
256 512 m 1,17,-1
 512 512 l 1,18,-1
 512 575 l 1,19,-1
 449 575 l 1,20,-1
 449 640 l 1,21,-1
 256 640 l 1,22,-1
 256 512 l 1,17,-1
EndSplineSet
Validated: 1
EndChar

StartChar: C
Encoding: 67 67 38
Width: 831
GlyphClass: 1
Flags: W
LayerCount: 2
Fore
SplineSet
640 0 m 1,0,1
 641 0 641 0 193 0 c 1,2,-1
 193 63 l 1,3,-1
 63 63 l 1,4,-1
 63 193 l 1,5,-1
 0 193 l 1,6,-1
 0 640 l 1,7,-1
 63 640 l 1,8,-1
 63 768 l 1,9,-1
 193 768 l 1,10,-1
 193 831 l 1,11,-1
 640 831 l 1,12,-1
 640 768 l 1,13,14
 641 768 641 768 705 768 c 1,15,-1
 705 705 l 1,16,-1
 768 705 l 1,17,-1
 768 512 l 1,18,-1
 575 512 l 1,19,-1
 575 575 l 1,20,-1
 512 575 l 1,21,-1
 512 640 l 1,22,-1
 319 640 l 1,23,-1
 319 512 l 1,24,-1
 256 512 l 1,25,-1
 256 319 l 1,26,-1
 319 319 l 1,27,-1
 319 193 l 1,28,-1
 575 193 l 1,29,-1
 575 319 l 1,30,-1
 768 319 l 1,31,-1
 768 128 l 1,32,-1
 705 128 l 1,33,34
 705 127 705 127 705 63 c 1,35,-1
 640 63 l 1,36,-1
 640 0 l 1,0,1
EndSplineSet
Validated: 33
EndChar

StartChar: D
Encoding: 68 68 39
Width: 831
GlyphClass: 1
Flags: W
LayerCount: 2
Fore
SplineSet
640 0 m 1,0,-1
 0 0 l 1,1,-1
 0 831 l 1,2,-1
 640 831 l 1,3,-1
 640 768 l 1,4,5
 641 768 641 768 705 768 c 1,6,-1
 705 640 l 1,7,-1
 768 640 l 1,8,9
 768 641 768 641 768 193 c 1,10,-1
 705 193 l 1,11,-1
 705 63 l 1,12,-1
 640 63 l 1,13,-1
 640 0 l 1,0,-1
256 193 m 1,14,-1
 512 193 l 1,15,-1
 512 256 l 1,16,-1
 575 256 l 1,17,-1
 575 575 l 1,18,-1
 512 575 l 1,19,-1
 512 640 l 1,20,-1
 256 640 l 1,21,-1
 256 193 l 1,14,-1
EndSplineSet
Validated: 33
EndChar

StartChar: E
Encoding: 69 69 40
Width: 768
GlyphClass: 1
Flags: W
LayerCount: 2
Fore
SplineSet
705 0 m 1,0,-1
 0 0 l 1,1,-1
 0 831 l 1,2,-1
 705 831 l 1,3,-1
 705 640 l 1,4,-1
 256 640 l 1,5,-1
 256 512 l 1,6,-1
 640 512 l 1,7,-1
 640 319 l 1,8,-1
 256 319 l 1,9,-1
 256 193 l 1,10,-1
 705 193 l 1,11,-1
 705 0 l 1,0,-1
EndSplineSet
Validated: 1
EndChar

StartChar: F
Encoding: 70 70 41
Width: 768
GlyphClass: 1
Flags: W
LayerCount: 2
Fore
SplineSet
256 0 m 1,0,-1
 0 0 l 1,1,-1
 0 831 l 1,2,-1
 705 831 l 1,3,-1
 705 640 l 1,4,-1
 256 640 l 1,5,-1
 256 512 l 1,6,-1
 640 512 l 1,7,-1
 640 319 l 1,8,-1
 256 319 l 1,9,-1
 256 0 l 1,0,-1
EndSplineSet
Validated: 1
EndChar

StartChar: G
Encoding: 71 71 42
Width: 959
GlyphClass: 1
Flags: W
LayerCount: 2
Fore
SplineSet
705 0 m 1,0,-1
 256 0 l 1,1,-1
 256 63 l 1,2,-1
 128 63 l 1,3,-1
 128 128 l 1,4,5
 127 128 127 128 63 128 c 1,6,-1
 63 256 l 1,7,-1
 0 256 l 1,8,-1
 0 575 l 1,9,-1
 63 575 l 1,10,-1
 63 705 l 1,11,-1
 128 705 l 1,12,-1
 128 768 l 1,13,-1
 256 768 l 1,14,-1
 256 831 l 1,15,-1
 705 831 l 1,16,-1
 705 768 l 1,17,-1
 768 768 l 1,18,-1
 768 705 l 1,19,-1
 831 705 l 1,20,-1
 831 512 l 1,21,-1
 640 512 l 1,22,-1
 640 575 l 1,23,24
 639 575 639 575 575 575 c 1,25,-1
 575 640 l 1,26,-1
 384 640 l 1,27,28
 384 639 384 639 384 575 c 1,29,30
 383 575 383 575 319 575 c 1,31,-1
 319 512 l 1,32,-1
 256 512 l 1,33,-1
 256 319 l 1,34,-1
 319 319 l 1,35,-1
 319 256 l 1,36,-1
 384 256 l 1,37,-1
 384 193 l 1,38,39
 383 193 383 193 575 193 c 1,40,-1
 575 256 l 1,41,-1
 640 256 l 1,42,-1
 640 319 l 1,43,44
 641 319 641 319 449 319 c 1,45,-1
 449 449 l 1,46,-1
 896 449 l 1,47,-1
 896 256 l 1,48,49
 895 256 895 256 831 256 c 1,50,-1
 831 63 l 1,51,-1
 705 63 l 1,52,-1
 705 0 l 1,0,-1
EndSplineSet
Validated: 33
EndChar

StartChar: H
Encoding: 72 72 43
Width: 768
GlyphClass: 1
Flags: W
LayerCount: 2
Fore
SplineSet
705 0 m 1,0,-1
 449 0 l 1,1,-1
 449 319 l 1,2,-1
 256 319 l 1,3,-1
 256 0 l 1,4,-1
 0 0 l 1,5,-1
 0 831 l 1,6,-1
 256 831 l 1,7,-1
 256 512 l 1,8,-1
 449 512 l 1,9,-1
 449 831 l 1,10,-1
 705 831 l 1,11,-1
 705 0 l 1,0,-1
EndSplineSet
Validated: 1
EndChar

StartChar: I
Encoding: 73 73 44
Width: 319
GlyphClass: 1
Flags: W
LayerCount: 2
Fore
SplineSet
256 0 m 1,0,-1
 0 0 l 1,1,-1
 0 831 l 1,2,-1
 256 831 l 1,3,-1
 256 0 l 1,0,-1
EndSplineSet
Validated: 1
EndChar

StartChar: J
Encoding: 74 74 45
Width: 768
GlyphClass: 1
Flags: W
LayerCount: 2
Fore
SplineSet
575 0 m 1,0,-1
 128 0 l 1,1,-1
 128 63 l 1,2,-1
 0 63 l 1,3,-1
 0 384 l 1,4,-1
 193 384 l 1,5,-1
 193 256 l 1,6,-1
 256 256 l 1,7,-1
 256 193 l 1,8,-1
 384 193 l 1,9,-1
 384 256 l 1,10,11
 385 256 385 256 449 256 c 1,12,-1
 449 831 l 1,13,-1
 705 831 l 1,14,-1
 705 128 l 1,15,-1
 640 128 l 1,16,17
 640 127 640 127 640 63 c 1,18,19
 639 63 639 63 575 63 c 1,20,-1
 575 0 l 1,0,-1
EndSplineSet
Validated: 1
EndChar

StartChar: K
Encoding: 75 75 46
Width: 768
GlyphClass: 1
Flags: W
LayerCount: 2
Fore
SplineSet
705 0 m 1,0,-1
 512 0 l 1,1,-1
 512 63 l 1,2,-1
 449 63 l 1,3,-1
 449 128 l 1,4,-1
 384 128 l 1,5,6
 384 129 384 129 384 193 c 1,7,8
 383 193 383 193 319 193 c 1,9,-1
 319 256 l 1,10,-1
 256 256 l 1,11,-1
 256 0 l 1,12,-1
 0 0 l 1,13,-1
 0 831 l 1,14,-1
 256 831 l 1,15,-1
 256 575 l 1,16,-1
 319 575 l 1,17,-1
 319 640 l 1,18,-1
 384 640 l 1,19,20
 384 641 384 641 384 705 c 1,21,22
 385 705 385 705 449 705 c 1,23,-1
 449 768 l 1,24,-1
 512 768 l 1,25,-1
 512 831 l 1,26,-1
 705 831 l 1,27,-1
 705 705 l 1,28,-1
 640 705 l 1,29,-1
 640 640 l 1,30,31
 639 640 639 640 575 640 c 1,32,33
 575 639 575 639 575 575 c 1,34,-1
 512 575 l 1,35,-1
 512 512 l 1,36,-1
 449 512 l 1,37,-1
 449 384 l 1,38,-1
 512 384 l 1,39,40
 512 383 512 383 512 319 c 1,41,-1
 575 319 l 1,42,-1
 575 256 l 1,43,-1
 640 256 l 1,44,-1
 640 193 l 1,45,46
 641 193 641 193 705 193 c 1,47,-1
 705 0 l 1,0,-1
EndSplineSet
Validated: 1
EndChar

StartChar: L
Encoding: 76 76 47
Width: 768
GlyphClass: 1
Flags: W
LayerCount: 2
Fore
SplineSet
705 0 m 1,0,-1
 0 0 l 1,1,-1
 0 831 l 1,2,-1
 256 831 l 1,3,-1
 256 193 l 1,4,-1
 705 193 l 1,5,-1
 705 0 l 1,0,-1
EndSplineSet
Validated: 1
EndChar

StartChar: M
Encoding: 77 77 48
Width: 1024
GlyphClass: 1
Flags: W
LayerCount: 2
Fore
SplineSet
961 0 m 1,0,-1
 705 0 l 1,1,-1
 705 384 l 1,2,-1
 640 384 l 1,3,4
 640 383 640 383 640 319 c 1,5,6
 639 319 639 319 575 319 c 1,7,-1
 575 193 l 1,8,-1
 384 193 l 1,9,-1
 384 319 l 1,10,11
 383 319 383 319 319 319 c 1,12,-1
 319 384 l 1,13,-1
 256 384 l 1,14,-1
 256 0 l 1,15,-1
 0 0 l 1,16,-1
 0 831 l 1,17,-1
 384 831 l 1,18,-1
 384 705 l 1,19,20
 385 705 385 705 449 705 c 1,21,-1
 449 575 l 1,22,-1
 512 575 l 1,23,-1
 512 705 l 1,24,-1
 575 705 l 1,25,-1
 575 831 l 1,26,-1
 961 831 l 1,27,-1
 961 0 l 1,0,-1
EndSplineSet
Validated: 1
EndChar

StartChar: N
Encoding: 78 78 49
Width: 896
GlyphClass: 1
Flags: W
LayerCount: 2
Fore
SplineSet
831 0 m 1,0,-1
 512 0 l 1,1,-1
 512 63 l 1,2,-1
 449 63 l 1,3,-1
 449 193 l 1,4,-1
 384 193 l 1,5,-1
 384 319 l 1,6,7
 383 319 383 319 319 319 c 1,8,-1
 319 449 l 1,9,-1
 256 449 l 1,10,-1
 256 0 l 1,11,-1
 0 0 l 1,12,-1
 0 831 l 1,13,-1
 384 831 l 1,14,-1
 384 705 l 1,15,16
 385 705 385 705 449 705 c 1,17,-1
 449 575 l 1,18,-1
 512 575 l 1,19,-1
 512 449 l 1,20,-1
 575 449 l 1,21,-1
 575 831 l 1,22,-1
 831 831 l 1,23,-1
 831 0 l 1,0,-1
EndSplineSet
Validated: 1
EndChar

StartChar: O
Encoding: 79 79 50
Width: 896
GlyphClass: 1
Flags: W
LayerCount: 2
Fore
SplineSet
640 0 m 1,0,1
 641 0 641 0 193 0 c 1,2,-1
 193 63 l 1,3,-1
 63 63 l 1,4,-1
 63 128 l 1,5,-1
 0 128 l 1,6,7
 0 129 0 129 0 705 c 1,8,-1
 63 705 l 1,9,-1
 63 768 l 1,10,-1
 193 768 l 1,11,-1
 193 831 l 1,12,-1
 640 831 l 1,13,-1
 640 768 l 1,14,-1
 768 768 l 1,15,-1
 768 705 l 1,16,-1
 831 705 l 1,17,-1
 831 128 l 1,18,-1
 768 128 l 1,19,20
 768 127 768 127 768 63 c 1,21,-1
 640 63 l 1,22,-1
 640 0 l 1,0,1
319 193 m 1,23,-1
 512 193 l 1,24,-1
 512 256 l 1,25,-1
 575 256 l 1,26,-1
 575 575 l 1,27,-1
 512 575 l 1,28,-1
 512 640 l 1,29,-1
 319 640 l 1,30,31
 319 639 319 639 319 575 c 1,32,-1
 256 575 l 1,33,-1
 256 256 l 1,34,-1
 319 256 l 1,35,-1
 319 193 l 1,23,-1
EndSplineSet
Validated: 33
EndChar

StartChar: P
Encoding: 80 80 51
Width: 768
GlyphClass: 1
Flags: W
LayerCount: 2
Fore
SplineSet
256 0 m 1,0,-1
 0 0 l 1,1,-1
 0 831 l 1,2,-1
 640 831 l 1,3,-1
 640 768 l 1,4,5
 641 768 641 768 705 768 c 1,6,-1
 705 319 l 1,7,-1
 640 319 l 1,8,-1
 640 256 l 1,9,-1
 256 256 l 1,10,-1
 256 0 l 1,0,-1
256 449 m 1,11,-1
 449 449 l 1,12,-1
 449 512 l 1,13,-1
 512 512 l 1,14,-1
 512 575 l 1,15,-1
 449 575 l 1,16,-1
 449 640 l 1,17,-1
 256 640 l 1,18,-1
 256 449 l 1,11,-1
EndSplineSet
Validated: 1
EndChar

StartChar: Q
Encoding: 81 81 52
Width: 896
GlyphClass: 1
Flags: W
LayerCount: 2
Fore
SplineSet
768 0 m 1,0,-1
 640 0 l 1,1,-1
 640 63 l 1,2,3
 639 63 639 63 575 63 c 1,4,-1
 575 128 l 1,5,-1
 512 128 l 1,6,7
 512 127 512 127 512 63 c 1,8,-1
 575 63 l 1,9,-1
 575 0 l 1,10,-1
 193 0 l 1,11,-1
 193 63 l 1,12,-1
 63 63 l 1,13,-1
 63 128 l 1,14,-1
 0 128 l 1,15,16
 0 129 0 129 0 705 c 1,17,-1
 63 705 l 1,18,-1
 63 768 l 1,19,-1
 193 768 l 1,20,-1
 193 831 l 1,21,-1
 640 831 l 1,22,-1
 640 768 l 1,23,-1
 768 768 l 1,24,-1
 768 705 l 1,25,-1
 831 705 l 1,26,-1
 831 128 l 1,27,-1
 768 128 l 1,28,29
 768 129 768 129 768 193 c 1,30,-1
 705 193 l 1,31,-1
 705 256 l 1,32,-1
 640 256 l 1,33,-1
 640 193 l 1,34,35
 641 193 641 193 705 193 c 1,36,-1
 705 128 l 1,37,-1
 768 128 l 1,38,-1
 768 0 l 1,0,-1
319 193 m 1,39,-1
 449 193 l 1,40,-1
 449 256 l 1,41,-1
 384 256 l 1,42,-1
 384 384 l 1,43,-1
 512 384 l 1,44,45
 512 383 512 383 512 319 c 1,46,-1
 575 319 l 1,47,-1
 575 575 l 1,48,-1
 512 575 l 1,49,-1
 512 640 l 1,50,-1
 319 640 l 1,51,52
 319 639 319 639 319 575 c 1,53,-1
 256 575 l 1,54,-1
 256 256 l 1,55,-1
 319 256 l 1,56,-1
 319 193 l 1,39,-1
EndSplineSet
Validated: 5
EndChar

StartChar: R
Encoding: 82 82 53
Width: 768
GlyphClass: 1
Flags: W
LayerCount: 2
Fore
SplineSet
705 0 m 1,0,-1
 512 0 l 1,1,-1
 512 63 l 1,2,-1
 449 63 l 1,3,-1
 449 128 l 1,4,-1
 384 128 l 1,5,6
 384 129 384 129 384 193 c 1,7,8
 383 193 383 193 319 193 c 1,9,-1
 319 256 l 1,10,-1
 256 256 l 1,11,-1
 256 0 l 1,12,-1
 0 0 l 1,13,-1
 0 768 l 1,14,-1
 63 768 l 1,15,-1
 63 831 l 1,16,-1
 640 831 l 1,17,-1
 640 768 l 1,18,19
 641 768 641 768 705 768 c 1,20,-1
 705 384 l 1,21,-1
 640 384 l 1,22,23
 640 383 640 383 640 319 c 1,24,25
 639 319 639 319 575 319 c 1,26,-1
 575 256 l 1,27,-1
 640 256 l 1,28,-1
 640 193 l 1,29,30
 641 193 641 193 705 193 c 1,31,-1
 705 0 l 1,0,-1
256 512 m 1,32,-1
 512 512 l 1,33,-1
 512 575 l 1,34,-1
 449 575 l 1,35,-1
 449 640 l 1,36,-1
 256 640 l 1,37,-1
 256 512 l 1,32,-1
EndSplineSet
Validated: 1
EndChar

StartChar: S
Encoding: 83 83 54
Width: 768
GlyphClass: 1
Flags: W
LayerCount: 2
Fore
SplineSet
575 0 m 1,0,-1
 128 0 l 1,1,-1
 128 63 l 1,2,-1
 0 63 l 1,3,-1
 0 256 l 1,4,-1
 193 256 l 1,5,-1
 193 193 l 1,6,-1
 384 193 l 1,7,-1
 384 256 l 1,8,9
 385 256 385 256 449 256 c 1,10,-1
 449 319 l 1,11,-1
 384 319 l 1,12,-1
 384 384 l 1,13,-1
 128 384 l 1,14,15
 128 385 128 385 128 449 c 1,16,-1
 0 449 l 1,17,-1
 0 705 l 1,18,-1
 63 705 l 1,19,-1
 63 768 l 1,20,-1
 128 768 l 1,21,-1
 128 831 l 1,22,23
 127 831 127 831 575 831 c 1,24,-1
 575 768 l 1,25,-1
 705 768 l 1,26,-1
 705 575 l 1,27,-1
 512 575 l 1,28,-1
 512 640 l 1,29,-1
 319 640 l 1,30,31
 319 639 319 639 319 575 c 1,32,-1
 512 575 l 1,33,-1
 512 512 l 1,34,-1
 640 512 l 1,35,-1
 640 449 l 1,36,37
 641 449 641 449 705 449 c 1,38,-1
 705 128 l 1,39,-1
 640 128 l 1,40,41
 640 127 640 127 640 63 c 1,42,43
 639 63 639 63 575 63 c 1,44,-1
 575 0 l 1,0,-1
EndSplineSet
Validated: 37
EndChar

StartChar: T
Encoding: 84 84 55
Width: 703
GlyphClass: 1
Flags: W
LayerCount: 2
Fore
SplineSet
449 0 m 1,0,-1
 193 0 l 1,1,-1
 193 575 l 1,2,-1
 0 575 l 1,3,-1
 0 831 l 1,4,-1
 640 831 l 1,5,-1
 640 575 l 1,6,7
 641 575 641 575 449 575 c 1,8,-1
 449 0 l 1,0,-1
EndSplineSet
Validated: 33
EndChar

StartChar: U
Encoding: 85 85 56
Width: 831
GlyphClass: 1
Flags: W
LayerCount: 2
Fore
SplineSet
640 0 m 1,0,-1
 128 0 l 1,1,-1
 128 63 l 1,2,3
 127 63 127 63 63 63 c 1,4,-1
 63 128 l 1,5,-1
 0 128 l 1,6,7
 0 127 0 127 0 831 c 1,8,-1
 256 831 l 1,9,-1
 256 319 l 1,10,-1
 319 319 l 1,11,-1
 319 256 l 1,12,-1
 449 256 l 1,13,-1
 449 319 l 1,14,-1
 512 319 l 1,15,-1
 512 831 l 1,16,-1
 768 831 l 1,17,-1
 768 128 l 1,18,-1
 705 128 l 1,19,20
 705 127 705 127 705 63 c 1,21,-1
 640 63 l 1,22,-1
 640 0 l 1,0,-1
EndSplineSet
Validated: 33
EndChar

StartChar: V
Encoding: 86 86 57
Width: 831
GlyphClass: 1
Flags: W
LayerCount: 2
Fore
SplineSet
512 0 m 1,0,-1
 256 0 l 1,1,-1
 256 63 l 1,2,-1
 193 63 l 1,3,-1
 193 193 l 1,4,-1
 128 193 l 1,5,-1
 128 384 l 1,6,7
 127 384 127 384 63 384 c 1,8,9
 63 383 63 383 63 575 c 1,10,-1
 0 575 l 1,11,-1
 0 831 l 1,12,-1
 193 831 l 1,13,-1
 193 705 l 1,14,-1
 256 705 l 1,15,-1
 256 512 l 1,16,-1
 319 512 l 1,17,-1
 319 319 l 1,18,-1
 449 319 l 1,19,-1
 449 512 l 1,20,-1
 512 512 l 1,21,-1
 512 705 l 1,22,-1
 575 705 l 1,23,-1
 575 831 l 1,24,-1
 768 831 l 1,25,-1
 768 575 l 1,26,-1
 705 575 l 1,27,-1
 705 384 l 1,28,-1
 640 384 l 1,29,30
 640 385 640 385 640 193 c 1,31,32
 639 193 639 193 575 193 c 1,33,-1
 575 63 l 1,34,-1
 512 63 l 1,35,-1
 512 0 l 1,0,-1
EndSplineSet
Validated: 33
EndChar

StartChar: W
Encoding: 87 87 58
Width: 1024
GlyphClass: 1
Flags: W
LayerCount: 2
Fore
SplineSet
961 0 m 1,0,-1
 575 0 l 1,1,-1
 575 128 l 1,2,-1
 512 128 l 1,3,-1
 512 256 l 1,4,-1
 449 256 l 1,5,-1
 449 128 l 1,6,-1
 384 128 l 1,7,-1
 384 0 l 1,8,-1
 0 0 l 1,9,-1
 0 831 l 1,10,-1
 256 831 l 1,11,-1
 256 449 l 1,12,-1
 319 449 l 1,13,-1
 319 512 l 1,14,-1
 384 512 l 1,15,-1
 384 640 l 1,16,17
 383 640 383 640 575 640 c 1,18,-1
 575 512 l 1,19,-1
 640 512 l 1,20,-1
 640 449 l 1,21,22
 641 449 641 449 705 449 c 1,23,-1
 705 831 l 1,24,-1
 961 831 l 1,25,-1
 961 0 l 1,0,-1
EndSplineSet
Validated: 33
EndChar

StartChar: X
Encoding: 88 88 59
Width: 896
GlyphClass: 1
Flags: W
LayerCount: 2
Fore
SplineSet
831 0 m 1,0,-1
 640 0 l 1,1,-1
 640 63 l 1,2,3
 639 63 639 63 575 63 c 1,4,-1
 575 128 l 1,5,-1
 512 128 l 1,6,7
 512 129 512 129 512 193 c 1,8,-1
 449 193 l 1,9,-1
 449 256 l 1,10,-1
 384 256 l 1,11,-1
 384 193 l 1,12,13
 383 193 383 193 319 193 c 1,14,-1
 319 128 l 1,15,-1
 256 128 l 1,16,17
 256 127 256 127 256 63 c 1,18,-1
 193 63 l 1,19,-1
 193 0 l 1,20,-1
 0 0 l 1,21,-1
 0 193 l 1,22,-1
 63 193 l 1,23,-1
 63 256 l 1,24,-1
 128 256 l 1,25,-1
 128 319 l 1,26,27
 129 319 129 319 193 319 c 1,28,-1
 193 384 l 1,29,-1
 256 384 l 1,30,-1
 256 512 l 1,31,-1
 128 512 l 1,32,-1
 128 575 l 1,33,34
 127 575 127 575 63 575 c 1,35,-1
 63 640 l 1,36,-1
 0 640 l 1,37,38
 0 639 0 639 0 831 c 1,39,-1
 193 831 l 1,40,-1
 193 768 l 1,41,-1
 256 768 l 1,42,-1
 256 705 l 1,43,-1
 319 705 l 1,44,-1
 319 640 l 1,45,-1
 384 640 l 1,46,47
 384 639 384 639 384 575 c 1,48,49
 385 575 385 575 449 575 c 1,50,-1
 449 640 l 1,51,-1
 512 640 l 1,52,53
 512 641 512 641 512 705 c 1,54,-1
 575 705 l 1,55,-1
 575 768 l 1,56,-1
 640 768 l 1,57,-1
 640 831 l 1,58,59
 639 831 639 831 831 831 c 1,60,-1
 831 640 l 1,61,-1
 768 640 l 1,62,63
 768 639 768 639 768 575 c 1,64,-1
 705 575 l 1,65,-1
 705 512 l 1,66,-1
 575 512 l 1,67,-1
 575 384 l 1,68,-1
 640 384 l 1,69,70
 640 383 640 383 640 319 c 1,71,72
 641 319 641 319 705 319 c 1,73,-1
 705 256 l 1,74,-1
 768 256 l 1,75,-1
 768 193 l 1,76,-1
 831 193 l 1,77,-1
 831 0 l 1,0,-1
EndSplineSet
Validated: 33
EndChar

StartChar: Y
Encoding: 89 89 60
Width: 959
GlyphClass: 1
Flags: W
LayerCount: 2
Fore
SplineSet
575 0 m 1,0,-1
 319 0 l 1,1,-1
 319 319 l 1,2,-1
 256 319 l 1,3,-1
 256 384 l 1,4,-1
 193 384 l 1,5,6
 193 385 193 385 193 449 c 1,7,-1
 128 449 l 1,8,-1
 128 575 l 1,9,-1
 0 575 l 1,10,-1
 0 831 l 1,11,-1
 256 831 l 1,12,-1
 256 705 l 1,13,-1
 319 705 l 1,14,-1
 319 640 l 1,15,-1
 384 640 l 1,16,17
 384 639 384 639 384 575 c 1,18,-1
 512 575 l 1,19,-1
 512 640 l 1,20,-1
 575 640 l 1,21,22
 575 641 575 641 575 705 c 1,23,-1
 640 705 l 1,24,-1
 640 831 l 1,25,-1
 896 831 l 1,26,-1
 896 575 l 1,27,-1
 768 575 l 1,28,-1
 768 449 l 1,29,-1
 705 449 l 1,30,-1
 705 384 l 1,31,-1
 640 384 l 1,32,33
 640 383 640 383 640 319 c 1,34,35
 639 319 639 319 575 319 c 1,36,-1
 575 0 l 1,0,-1
EndSplineSet
Validated: 1
EndChar

StartChar: Z
Encoding: 90 90 61
Width: 768
GlyphClass: 1
Flags: W
LayerCount: 2
Fore
SplineSet
705 0 m 1,0,-1
 0 0 l 1,1,-1
 0 256 l 1,2,-1
 63 256 l 1,3,-1
 63 319 l 1,4,-1
 128 319 l 1,5,-1
 128 384 l 1,6,7
 129 384 129 384 193 384 c 1,8,9
 193 385 193 385 193 449 c 1,10,-1
 256 449 l 1,11,-1
 256 512 l 1,12,-1
 319 512 l 1,13,-1
 319 575 l 1,14,-1
 384 575 l 1,15,-1
 384 640 l 1,16,-1
 0 640 l 1,17,18
 0 639 0 639 0 831 c 1,19,-1
 705 831 l 1,20,-1
 705 575 l 1,21,-1
 640 575 l 1,22,-1
 640 512 l 1,23,24
 639 512 639 512 575 512 c 1,25,-1
 575 449 l 1,26,-1
 512 449 l 1,27,-1
 512 384 l 1,28,-1
 449 384 l 1,29,30
 449 383 449 383 449 319 c 1,31,-1
 384 319 l 1,32,-1
 384 256 l 1,33,34
 383 256 383 256 319 256 c 1,35,-1
 319 193 l 1,36,-1
 705 193 l 1,37,-1
 705 0 l 1,0,-1
EndSplineSet
Validated: 33
EndChar

StartChar: bracketleft
Encoding: 91 91 62
Width: 447
GlyphClass: 1
Flags: W
LayerCount: 2
Fore
SplineSet
384 -128 m 1,0,1
 383 -128 383 -128 63 -128 c 1,2,-1
 63 0 l 1,3,-1
 0 0 l 1,4,-1
 0 896 l 1,5,-1
 63 896 l 1,6,-1
 63 1024 l 1,7,-1
 384 1024 l 1,8,-1
 384 831 l 1,9,-1
 256 831 l 1,10,-1
 256 768 l 1,11,-1
 193 768 l 1,12,-1
 193 128 l 1,13,-1
 256 128 l 1,14,15
 256 127 256 127 256 63 c 1,16,-1
 384 63 l 1,17,-1
 384 -128 l 1,0,1
EndSplineSet
Validated: 1
EndChar

StartChar: backslash
Encoding: 92 92 63
Width: 959
GlyphClass: 1
Flags: W
LayerCount: 2
Fore
SplineSet
831 0 m 1,0,-1
 705 0 l 1,1,-1
 705 63 l 1,2,-1
 640 63 l 1,3,-1
 640 128 l 1,4,5
 639 128 639 128 575 128 c 1,6,7
 575 129 575 129 575 193 c 1,8,-1
 512 193 l 1,9,-1
 512 256 l 1,10,-1
 449 256 l 1,11,-1
 449 319 l 1,12,-1
 384 319 l 1,13,-1
 384 384 l 1,14,15
 383 384 383 384 319 384 c 1,16,17
 319 385 319 385 319 449 c 1,18,-1
 256 449 l 1,19,-1
 256 512 l 1,20,-1
 193 512 l 1,21,-1
 193 575 l 1,22,-1
 128 575 l 1,23,-1
 128 640 l 1,24,25
 127 640 127 640 63 640 c 1,26,27
 63 641 63 641 63 705 c 1,28,-1
 0 705 l 1,29,-1
 0 831 l 1,30,-1
 63 831 l 1,31,-1
 63 896 l 1,32,-1
 193 896 l 1,33,34
 193 895 193 895 193 831 c 1,35,-1
 256 831 l 1,36,-1
 256 768 l 1,37,-1
 319 768 l 1,38,-1
 319 705 l 1,39,-1
 384 705 l 1,40,-1
 384 640 l 1,41,42
 385 640 385 640 449 640 c 1,43,44
 449 639 449 639 449 575 c 1,45,-1
 512 575 l 1,46,-1
 512 512 l 1,47,-1
 575 512 l 1,48,-1
 575 449 l 1,49,-1
 640 449 l 1,50,-1
 640 384 l 1,51,52
 641 384 641 384 705 384 c 1,53,54
 705 383 705 383 705 319 c 1,55,-1
 768 319 l 1,56,-1
 768 256 l 1,57,-1
 831 256 l 1,58,-1
 831 193 l 1,59,-1
 896 193 l 1,60,-1
 896 63 l 1,61,62
 895 63 895 63 831 63 c 1,63,-1
 831 0 l 1,0,-1
EndSplineSet
Validated: 1
EndChar

StartChar: bracketright
Encoding: 93 93 64
Width: 447
GlyphClass: 1
Flags: W
LayerCount: 2
Fore
SplineSet
319 -128 m 1,0,-1
 0 -128 l 1,1,2
 0 -129 0 -129 0 63 c 1,3,-1
 128 63 l 1,4,-1
 128 128 l 1,5,6
 129 128 129 128 193 128 c 1,7,-1
 193 768 l 1,8,-1
 128 768 l 1,9,-1
 128 831 l 1,10,-1
 0 831 l 1,11,-1
 0 1024 l 1,12,-1
 319 1024 l 1,13,-1
 319 896 l 1,14,-1
 384 896 l 1,15,-1
 384 0 l 1,16,17
 383 0 383 0 319 0 c 1,18,-1
 319 -128 l 1,0,-1
EndSplineSet
Validated: 33
EndChar

StartChar: asciicircum
Encoding: 94 94 65
Width: 896
GlyphClass: 1
Flags: W
LayerCount: 2
Fore
SplineSet
768 575 m 1,0,-1
 640 575 l 1,1,-1
 640 640 l 1,2,3
 639 640 639 640 575 640 c 1,4,5
 575 641 575 641 575 705 c 1,6,-1
 512 705 l 1,7,-1
 512 768 l 1,8,-1
 449 768 l 1,9,-1
 449 831 l 1,10,-1
 384 831 l 1,11,-1
 384 768 l 1,12,13
 383 768 383 768 319 768 c 1,14,-1
 319 705 l 1,15,-1
 256 705 l 1,16,-1
 256 640 l 1,17,-1
 193 640 l 1,18,19
 193 639 193 639 193 575 c 1,20,-1
 63 575 l 1,21,-1
 63 640 l 1,22,-1
 0 640 l 1,23,-1
 0 768 l 1,24,-1
 63 768 l 1,25,-1
 63 831 l 1,26,-1
 128 831 l 1,27,-1
 128 896 l 1,28,29
 129 896 129 896 193 896 c 1,30,31
 193 897 193 897 193 961 c 1,32,-1
 256 961 l 1,33,-1
 256 1024 l 1,34,-1
 319 1024 l 1,35,-1
 319 1087 l 1,36,-1
 512 1087 l 1,37,-1
 512 1024 l 1,38,-1
 575 1024 l 1,39,-1
 575 961 l 1,40,-1
 640 961 l 1,41,-1
 640 896 l 1,42,43
 641 896 641 896 705 896 c 1,44,45
 705 895 705 895 705 831 c 1,46,-1
 768 831 l 1,47,-1
 768 768 l 1,48,-1
 831 768 l 1,49,-1
 831 640 l 1,50,-1
 768 640 l 1,51,-1
 768 575 l 1,0,-1
EndSplineSet
Validated: 1
EndChar

StartChar: underscore
Encoding: 95 95 66
Width: 896
GlyphClass: 1
Flags: W
LayerCount: 2
Fore
SplineSet
831 -63 m 1,0,-1
 0 -63 l 1,1,-1
 0 128 l 1,2,-1
 831 128 l 1,3,-1
 831 -63 l 1,0,-1
EndSplineSet
Validated: 1
EndChar

StartChar: grave
Encoding: 96 96 67
Width: 319
GlyphClass: 1
Flags: W
LayerCount: 2
Fore
SplineSet
256 640 m 1,0,-1
 63 640 l 1,1,2
 63 641 63 641 63 705 c 1,3,-1
 0 705 l 1,4,-1
 0 896 l 1,5,-1
 193 896 l 1,6,-1
 193 768 l 1,7,-1
 256 768 l 1,8,-1
 256 640 l 1,0,-1
EndSplineSet
Validated: 1
EndChar

StartChar: a
Encoding: 97 97 68
Width: 768
GlyphClass: 1
Flags: W
LayerCount: 2
Fore
SplineSet
705 0 m 1,0,-1
 512 0 l 1,1,-1
 512 63 l 1,2,-1
 449 63 l 1,3,-1
 449 0 l 1,4,-1
 128 0 l 1,5,-1
 128 63 l 1,6,7
 127 63 127 63 63 63 c 1,8,-1
 63 128 l 1,9,-1
 0 128 l 1,10,-1
 0 512 l 1,11,-1
 63 512 l 1,12,-1
 63 575 l 1,13,-1
 128 575 l 1,14,-1
 128 640 l 1,15,16
 129 640 129 640 449 640 c 1,17,18
 449 639 449 639 449 575 c 1,19,-1
 512 575 l 1,20,-1
 512 640 l 1,21,-1
 705 640 l 1,22,-1
 705 0 l 1,0,-1
256 128 m 1,23,-1
 449 128 l 1,24,25
 449 129 449 129 449 193 c 1,26,-1
 512 193 l 1,27,-1
 512 449 l 1,28,-1
 449 449 l 1,29,-1
 449 512 l 1,30,-1
 256 512 l 1,31,-1
 256 449 l 1,32,-1
 193 449 l 1,33,-1
 193 193 l 1,34,-1
 256 193 l 1,35,-1
 256 128 l 1,23,-1
EndSplineSet
Validated: 1
EndChar

StartChar: b
Encoding: 98 98 69
Width: 768
GlyphClass: 1
Flags: W
LayerCount: 2
Fore
SplineSet
575 0 m 1,0,-1
 256 0 l 1,1,-1
 256 63 l 1,2,-1
 193 63 l 1,3,-1
 193 0 l 1,4,-1
 0 0 l 1,5,-1
 0 896 l 1,6,-1
 193 896 l 1,7,8
 193 895 193 895 193 575 c 1,9,-1
 256 575 l 1,10,-1
 256 640 l 1,11,-1
 575 640 l 1,12,13
 575 639 575 639 575 575 c 1,14,-1
 640 575 l 1,15,-1
 640 512 l 1,16,17
 641 512 641 512 705 512 c 1,18,-1
 705 128 l 1,19,-1
 640 128 l 1,20,21
 640 127 640 127 640 63 c 1,22,23
 639 63 639 63 575 63 c 1,24,-1
 575 0 l 1,0,-1
256 128 m 1,25,-1
 449 128 l 1,26,27
 449 129 449 129 449 193 c 1,28,-1
 512 193 l 1,29,-1
 512 449 l 1,30,-1
 449 449 l 1,31,-1
 449 512 l 1,32,-1
 256 512 l 1,33,-1
 256 449 l 1,34,-1
 193 449 l 1,35,-1
 193 193 l 1,36,-1
 256 193 l 1,37,-1
 256 128 l 1,25,-1
EndSplineSet
Validated: 1
EndChar

StartChar: c
Encoding: 99 99 70
Width: 768
GlyphClass: 1
Flags: W
LayerCount: 2
Fore
SplineSet
575 0 m 1,0,-1
 128 0 l 1,1,-1
 128 63 l 1,2,3
 127 63 127 63 63 63 c 1,4,-1
 63 128 l 1,5,-1
 0 128 l 1,6,-1
 0 512 l 1,7,-1
 63 512 l 1,8,-1
 63 575 l 1,9,-1
 128 575 l 1,10,-1
 128 640 l 1,11,12
 127 640 127 640 575 640 c 1,13,14
 575 639 575 639 575 575 c 1,15,-1
 640 575 l 1,16,-1
 640 512 l 1,17,18
 641 512 641 512 705 512 c 1,19,-1
 705 384 l 1,20,-1
 575 384 l 1,21,22
 575 385 575 385 575 449 c 1,23,-1
 449 449 l 1,24,-1
 449 512 l 1,25,-1
 256 512 l 1,26,-1
 256 449 l 1,27,-1
 193 449 l 1,28,-1
 193 193 l 1,29,-1
 256 193 l 1,30,-1
 256 128 l 1,31,-1
 449 128 l 1,32,33
 449 129 449 129 449 193 c 1,34,-1
 575 193 l 1,35,-1
 575 256 l 1,36,-1
 705 256 l 1,37,-1
 705 128 l 1,38,-1
 640 128 l 1,39,40
 640 127 640 127 640 63 c 1,41,42
 639 63 639 63 575 63 c 1,43,-1
 575 0 l 1,0,-1
EndSplineSet
Validated: 33
EndChar

StartChar: d
Encoding: 100 100 71
Width: 768
GlyphClass: 1
Flags: W
LayerCount: 2
Fore
SplineSet
705 0 m 1,0,-1
 512 0 l 1,1,-1
 512 63 l 1,2,-1
 449 63 l 1,3,-1
 449 0 l 1,4,-1
 128 0 l 1,5,-1
 128 63 l 1,6,7
 127 63 127 63 63 63 c 1,8,-1
 63 128 l 1,9,-1
 0 128 l 1,10,-1
 0 512 l 1,11,-1
 63 512 l 1,12,-1
 63 575 l 1,13,-1
 128 575 l 1,14,-1
 128 640 l 1,15,16
 129 640 129 640 449 640 c 1,17,18
 449 639 449 639 449 575 c 1,19,-1
 512 575 l 1,20,-1
 512 896 l 1,21,-1
 705 896 l 1,22,-1
 705 0 l 1,0,-1
256 128 m 1,23,-1
 449 128 l 1,24,25
 449 129 449 129 449 193 c 1,26,-1
 512 193 l 1,27,-1
 512 449 l 1,28,-1
 449 449 l 1,29,-1
 449 512 l 1,30,-1
 256 512 l 1,31,-1
 256 449 l 1,32,-1
 193 449 l 1,33,-1
 193 193 l 1,34,-1
 256 193 l 1,35,-1
 256 128 l 1,23,-1
EndSplineSet
Validated: 1
EndChar

StartChar: e
Encoding: 101 101 72
Width: 768
GlyphClass: 1
Flags: W
LayerCount: 2
Fore
SplineSet
575 0 m 1,0,-1
 128 0 l 1,1,-1
 128 63 l 1,2,3
 127 63 127 63 63 63 c 1,4,-1
 63 128 l 1,5,-1
 0 128 l 1,6,-1
 0 512 l 1,7,-1
 63 512 l 1,8,-1
 63 575 l 1,9,-1
 128 575 l 1,10,-1
 128 640 l 1,11,12
 127 640 127 640 575 640 c 1,13,14
 575 639 575 639 575 575 c 1,15,-1
 640 575 l 1,16,-1
 640 512 l 1,17,18
 641 512 641 512 705 512 c 1,19,-1
 705 319 l 1,20,-1
 512 319 l 1,21,-1
 512 256 l 1,22,-1
 193 256 l 1,23,-1
 193 193 l 1,24,-1
 256 193 l 1,25,-1
 256 128 l 1,26,-1
 512 128 l 1,27,28
 512 129 512 129 512 193 c 1,29,-1
 705 193 l 1,30,-1
 705 63 l 1,31,-1
 575 63 l 1,32,-1
 575 0 l 1,0,-1
193 384 m 1,33,-1
 512 384 l 1,34,35
 512 385 512 385 512 449 c 1,36,-1
 449 449 l 1,37,-1
 449 512 l 1,38,-1
 256 512 l 1,39,-1
 256 449 l 1,40,-1
 193 449 l 1,41,-1
 193 384 l 1,33,-1
EndSplineSet
Validated: 33
EndChar

StartChar: f
Encoding: 102 102 73
Width: 640
GlyphClass: 1
Flags: W
LayerCount: 2
Fore
SplineSet
256 0 m 1,0,-1
 63 0 l 1,1,-1
 63 319 l 1,2,-1
 0 319 l 1,3,-1
 0 449 l 1,4,-1
 63 449 l 1,5,-1
 63 768 l 1,6,-1
 128 768 l 1,7,-1
 128 831 l 1,8,9
 129 831 129 831 193 831 c 1,10,-1
 193 896 l 1,11,-1
 512 896 l 1,12,13
 512 895 512 895 512 831 c 1,14,-1
 575 831 l 1,15,-1
 575 705 l 1,16,-1
 384 705 l 1,17,-1
 384 768 l 1,18,19
 383 768 383 768 319 768 c 1,20,-1
 319 705 l 1,21,-1
 256 705 l 1,22,-1
 256 449 l 1,23,-1
 512 449 l 1,24,-1
 512 319 l 1,25,-1
 256 319 l 1,26,-1
 256 0 l 1,0,-1
EndSplineSet
Validated: 1
EndChar

StartChar: g
Encoding: 103 103 74
Width: 768
GlyphClass: 1
Flags: W
LayerCount: 2
Fore
SplineSet
512 -256 m 1,0,-1
 128 -256 l 1,1,-1
 128 -193 l 1,2,3
 127 -193 127 -193 63 -193 c 1,4,-1
 63 -128 l 1,5,-1
 0 -128 l 1,6,-1
 0 0 l 1,7,-1
 128 0 l 1,8,-1
 128 63 l 1,9,10
 127 63 127 63 63 63 c 1,11,-1
 63 128 l 1,12,-1
 0 128 l 1,13,-1
 0 512 l 1,14,-1
 63 512 l 1,15,-1
 63 575 l 1,16,-1
 128 575 l 1,17,-1
 128 640 l 1,18,19
 129 640 129 640 449 640 c 1,20,21
 449 639 449 639 449 575 c 1,22,-1
 512 575 l 1,23,-1
 512 640 l 1,24,-1
 705 640 l 1,25,-1
 705 -128 l 1,26,-1
 640 -128 l 1,27,28
 640 -129 640 -129 640 -193 c 1,29,-1
 512 -193 l 1,30,-1
 512 -256 l 1,0,-1
193 -128 m 1,31,-1
 449 -128 l 1,32,33
 449 -127 449 -127 449 -63 c 1,34,-1
 512 -63 l 1,35,-1
 512 63 l 1,36,-1
 449 63 l 1,37,-1
 449 0 l 1,38,-1
 128 0 l 1,39,-1
 128 -63 l 1,40,41
 129 -63 129 -63 193 -63 c 1,42,-1
 193 -128 l 1,31,-1
256 128 m 1,43,-1
 449 128 l 1,44,45
 449 129 449 129 449 193 c 1,46,-1
 512 193 l 1,47,-1
 512 449 l 1,48,-1
 449 449 l 1,49,-1
 449 512 l 1,50,-1
 256 512 l 1,51,-1
 256 449 l 1,52,-1
 193 449 l 1,53,-1
 193 193 l 1,54,-1
 256 193 l 1,55,-1
 256 128 l 1,43,-1
EndSplineSet
Validated: 5
EndChar

StartChar: h
Encoding: 104 104 75
Width: 768
GlyphClass: 1
Flags: W
LayerCount: 2
Fore
SplineSet
705 0 m 1,0,-1
 512 0 l 1,1,-1
 512 449 l 1,2,-1
 449 449 l 1,3,-1
 449 512 l 1,4,-1
 256 512 l 1,5,-1
 256 384 l 1,6,-1
 193 384 l 1,7,-1
 193 0 l 1,8,-1
 0 0 l 1,9,-1
 0 896 l 1,10,-1
 193 896 l 1,11,12
 193 895 193 895 193 575 c 1,13,-1
 256 575 l 1,14,-1
 256 640 l 1,15,-1
 575 640 l 1,16,17
 575 639 575 639 575 575 c 1,18,-1
 640 575 l 1,19,-1
 640 512 l 1,20,21
 641 512 641 512 705 512 c 1,22,-1
 705 0 l 1,0,-1
EndSplineSet
Validated: 1
EndChar

StartChar: i
Encoding: 105 105 76
Width: 256
GlyphClass: 1
Flags: W
LayerCount: 2
Fore
SplineSet
193 0 m 1,0,-1
 0 0 l 1,1,-1
 0 575 l 1,2,-1
 193 575 l 1,3,-1
 193 0 l 1,0,-1
193 640 m 1,4,-1
 0 640 l 1,5,6
 0 639 0 639 0 831 c 1,7,-1
 193 831 l 1,8,-1
 193 640 l 1,4,-1
EndSplineSet
Validated: 33
EndChar

StartChar: j
Encoding: 106 106 77
Width: 703
GlyphClass: 1
Flags: W
LayerCount: 2
Fore
SplineSet
449 -256 m 1,0,-1
 128 -256 l 1,1,-1
 128 -193 l 1,2,-1
 0 -193 l 1,3,-1
 0 0 l 1,4,-1
 193 0 l 1,5,-1
 193 -128 l 1,6,-1
 384 -128 l 1,7,-1
 384 0 l 1,8,9
 385 0 385 0 449 0 c 1,10,-1
 449 512 l 1,11,-1
 640 512 l 1,12,-1
 640 -128 l 1,13,14
 639 -128 639 -128 575 -128 c 1,15,16
 575 -129 575 -129 575 -193 c 1,17,-1
 449 -193 l 1,18,-1
 449 -256 l 1,0,-1
640 575 m 1,19,20
 641 575 641 575 449 575 c 1,21,-1
 449 768 l 1,22,-1
 640 768 l 1,23,-1
 640 575 l 1,19,20
EndSplineSet
Validated: 33
EndChar

StartChar: k
Encoding: 107 107 78
Width: 768
GlyphClass: 1
Flags: W
LayerCount: 2
Fore
SplineSet
705 0 m 1,0,-1
 512 0 l 1,1,-1
 512 128 l 1,2,-1
 449 128 l 1,3,4
 449 129 449 129 449 193 c 1,5,-1
 319 193 l 1,6,-1
 319 256 l 1,7,-1
 256 256 l 1,8,-1
 256 193 l 1,9,-1
 193 193 l 1,10,-1
 193 0 l 1,11,-1
 0 0 l 1,12,-1
 0 831 l 1,13,-1
 193 831 l 1,14,-1
 193 449 l 1,15,-1
 319 449 l 1,16,-1
 319 512 l 1,17,-1
 449 512 l 1,18,-1
 449 640 l 1,19,-1
 640 640 l 1,20,21
 640 641 640 641 640 449 c 1,22,23
 639 449 639 449 575 449 c 1,24,-1
 575 384 l 1,25,-1
 512 384 l 1,26,27
 512 383 512 383 512 319 c 1,28,-1
 640 319 l 1,29,-1
 640 193 l 1,30,31
 641 193 641 193 705 193 c 1,32,-1
 705 0 l 1,0,-1
EndSplineSet
Validated: 33
EndChar

StartChar: l
Encoding: 108 108 79
Width: 256
GlyphClass: 1
Flags: W
LayerCount: 2
Fore
SplineSet
193 831 m 1,0,-1
 193 0 l 1,1,-1
 0 0 l 1,2,-1
 0 831 l 1,3,-1
 193 831 l 1,0,-1
EndSplineSet
Validated: 1
EndChar

StartChar: m
Encoding: 109 109 80
Width: 896
GlyphClass: 1
Flags: W
LayerCount: 2
Fore
SplineSet
831 0 m 1,0,-1
 640 0 l 1,1,-1
 640 449 l 1,2,-1
 512 449 l 1,3,-1
 512 63 l 1,4,-1
 319 63 l 1,5,-1
 319 449 l 1,6,-1
 193 449 l 1,7,-1
 193 0 l 1,8,-1
 0 0 l 1,9,-1
 0 575 l 1,10,-1
 63 575 l 1,11,-1
 63 640 l 1,12,-1
 384 640 l 1,13,14
 384 639 384 639 384 575 c 1,15,16
 385 575 385 575 449 575 c 1,17,-1
 449 640 l 1,18,-1
 768 640 l 1,19,20
 768 639 768 639 768 575 c 1,21,-1
 831 575 l 1,22,-1
 831 0 l 1,0,-1
EndSplineSet
Validated: 1
EndChar

StartChar: n
Encoding: 110 110 81
Width: 768
GlyphClass: 1
Flags: W
LayerCount: 2
Fore
SplineSet
705 0 m 1,0,-1
 512 0 l 1,1,-1
 512 449 l 1,2,-1
 449 449 l 1,3,-1
 449 512 l 1,4,-1
 256 512 l 1,5,-1
 256 384 l 1,6,-1
 193 384 l 1,7,-1
 193 0 l 1,8,-1
 0 0 l 1,9,-1
 0 640 l 1,10,-1
 193 640 l 1,11,12
 193 639 193 639 193 575 c 1,13,-1
 256 575 l 1,14,-1
 256 640 l 1,15,-1
 575 640 l 1,16,17
 575 639 575 639 575 575 c 1,18,-1
 640 575 l 1,19,-1
 640 512 l 1,20,21
 641 512 641 512 705 512 c 1,22,-1
 705 0 l 1,0,-1
EndSplineSet
Validated: 1
EndChar

StartChar: o
Encoding: 111 111 82
Width: 768
GlyphClass: 1
Flags: W
LayerCount: 2
Fore
SplineSet
575 0 m 1,0,-1
 128 0 l 1,1,-1
 128 63 l 1,2,3
 127 63 127 63 63 63 c 1,4,-1
 63 128 l 1,5,-1
 0 128 l 1,6,-1
 0 512 l 1,7,-1
 63 512 l 1,8,-1
 63 575 l 1,9,-1
 128 575 l 1,10,-1
 128 640 l 1,11,12
 127 640 127 640 575 640 c 1,13,14
 575 639 575 639 575 575 c 1,15,-1
 640 575 l 1,16,-1
 640 512 l 1,17,18
 641 512 641 512 705 512 c 1,19,-1
 705 128 l 1,20,-1
 640 128 l 1,21,22
 640 127 640 127 640 63 c 1,23,24
 639 63 639 63 575 63 c 1,25,-1
 575 0 l 1,0,-1
256 128 m 1,26,-1
 449 128 l 1,27,28
 449 129 449 129 449 193 c 1,29,-1
 512 193 l 1,30,-1
 512 449 l 1,31,-1
 449 449 l 1,32,-1
 449 512 l 1,33,-1
 256 512 l 1,34,-1
 256 449 l 1,35,-1
 193 449 l 1,36,-1
 193 193 l 1,37,-1
 256 193 l 1,38,-1
 256 128 l 1,26,-1
EndSplineSet
Validated: 33
EndChar

StartChar: p
Encoding: 112 112 83
Width: 768
GlyphClass: 1
Flags: W
LayerCount: 2
Fore
SplineSet
193 -193 m 1,0,-1
 0 -193 l 1,1,-1
 0 640 l 1,2,-1
 193 640 l 1,3,4
 193 639 193 639 193 575 c 1,5,-1
 256 575 l 1,6,-1
 256 640 l 1,7,-1
 575 640 l 1,8,9
 575 639 575 639 575 575 c 1,10,-1
 640 575 l 1,11,-1
 640 512 l 1,12,13
 641 512 641 512 705 512 c 1,14,-1
 705 128 l 1,15,-1
 640 128 l 1,16,17
 640 127 640 127 640 63 c 1,18,19
 639 63 639 63 575 63 c 1,20,-1
 575 0 l 1,21,-1
 256 0 l 1,22,-1
 256 63 l 1,23,-1
 193 63 l 1,24,-1
 193 -193 l 1,0,-1
256 128 m 1,25,-1
 449 128 l 1,26,27
 449 129 449 129 449 193 c 1,28,-1
 512 193 l 1,29,-1
 512 449 l 1,30,-1
 449 449 l 1,31,-1
 449 512 l 1,32,-1
 256 512 l 1,33,-1
 256 449 l 1,34,-1
 193 449 l 1,35,-1
 193 193 l 1,36,-1
 256 193 l 1,37,-1
 256 128 l 1,25,-1
EndSplineSet
Validated: 1
EndChar

StartChar: q
Encoding: 113 113 84
Width: 831
GlyphClass: 1
Flags: W
LayerCount: 2
Fore
SplineSet
768 -193 m 1,0,-1
 512 -193 l 1,1,-1
 512 -63 l 1,2,-1
 449 -63 l 1,3,-1
 449 0 l 1,4,-1
 128 0 l 1,5,-1
 128 63 l 1,6,7
 127 63 127 63 63 63 c 1,8,-1
 63 128 l 1,9,-1
 0 128 l 1,10,-1
 0 512 l 1,11,-1
 63 512 l 1,12,-1
 63 575 l 1,13,-1
 128 575 l 1,14,-1
 128 640 l 1,15,16
 129 640 129 640 449 640 c 1,17,18
 449 639 449 639 449 575 c 1,19,-1
 512 575 l 1,20,-1
 512 640 l 1,21,-1
 705 640 l 1,22,23
 705 641 705 641 705 -63 c 1,24,-1
 768 -63 l 1,25,-1
 768 -193 l 1,0,-1
256 128 m 1,26,-1
 449 128 l 1,27,28
 449 129 449 129 449 193 c 1,29,-1
 512 193 l 1,30,-1
 512 449 l 1,31,-1
 449 449 l 1,32,-1
 449 512 l 1,33,-1
 256 512 l 1,34,-1
 256 449 l 1,35,-1
 193 449 l 1,36,-1
 193 193 l 1,37,-1
 256 193 l 1,38,-1
 256 128 l 1,26,-1
EndSplineSet
Validated: 33
EndChar

StartChar: r
Encoding: 114 114 85
Width: 768
GlyphClass: 1
Flags: W
LayerCount: 2
Fore
SplineSet
193 0 m 1,0,-1
 0 0 l 1,1,-1
 0 640 l 1,2,-1
 193 640 l 1,3,4
 193 639 193 639 193 575 c 1,5,-1
 256 575 l 1,6,-1
 256 640 l 1,7,-1
 575 640 l 1,8,9
 575 639 575 639 575 575 c 1,10,-1
 640 575 l 1,11,-1
 640 512 l 1,12,13
 641 512 641 512 705 512 c 1,14,-1
 705 319 l 1,15,-1
 512 319 l 1,16,-1
 512 449 l 1,17,-1
 449 449 l 1,18,-1
 449 512 l 1,19,-1
 319 512 l 1,20,-1
 319 449 l 1,21,-1
 256 449 l 1,22,-1
 256 384 l 1,23,-1
 193 384 l 1,24,-1
 193 0 l 1,0,-1
EndSplineSet
Validated: 1
EndChar

StartChar: s
Encoding: 115 115 86
Width: 768
GlyphClass: 1
Flags: W
LayerCount: 2
Fore
SplineSet
575 0 m 1,0,-1
 128 0 l 1,1,-1
 128 63 l 1,2,-1
 0 63 l 1,3,-1
 0 256 l 1,4,-1
 128 256 l 1,5,-1
 128 193 l 1,6,-1
 256 193 l 1,7,-1
 256 128 l 1,8,-1
 449 128 l 1,9,10
 449 129 449 129 449 193 c 1,11,-1
 512 193 l 1,12,-1
 512 256 l 1,13,-1
 193 256 l 1,14,-1
 193 319 l 1,15,-1
 63 319 l 1,16,-1
 63 384 l 1,17,-1
 0 384 l 1,18,-1
 0 512 l 1,19,-1
 63 512 l 1,20,-1
 63 575 l 1,21,-1
 128 575 l 1,22,-1
 128 640 l 1,23,24
 127 640 127 640 575 640 c 1,25,26
 575 639 575 639 575 575 c 1,27,-1
 640 575 l 1,28,-1
 640 512 l 1,29,30
 641 512 641 512 705 512 c 1,31,-1
 705 384 l 1,32,-1
 575 384 l 1,33,34
 575 385 575 385 575 449 c 1,35,-1
 449 449 l 1,36,-1
 449 512 l 1,37,-1
 256 512 l 1,38,-1
 256 384 l 1,39,-1
 575 384 l 1,40,41
 575 383 575 383 575 319 c 1,42,-1
 640 319 l 1,43,-1
 640 256 l 1,44,45
 641 256 641 256 705 256 c 1,46,-1
 705 63 l 1,47,-1
 575 63 l 1,48,-1
 575 0 l 1,0,-1
EndSplineSet
Validated: 37
EndChar

StartChar: t
Encoding: 116 116 87
Width: 512
GlyphClass: 1
Flags: W
LayerCount: 2
Fore
SplineSet
449 0 m 1,0,-1
 193 0 l 1,1,-1
 193 128 l 1,2,-1
 128 128 l 1,3,4
 128 129 128 129 128 449 c 1,5,-1
 0 449 l 1,6,-1
 0 575 l 1,7,-1
 128 575 l 1,8,-1
 128 831 l 1,9,10
 127 831 127 831 319 831 c 1,11,-1
 319 575 l 1,12,-1
 449 575 l 1,13,-1
 449 449 l 1,14,-1
 319 449 l 1,15,-1
 319 193 l 1,16,-1
 449 193 l 1,17,-1
 449 0 l 1,0,-1
EndSplineSet
Validated: 33
EndChar

StartChar: u
Encoding: 117 117 88
Width: 768
GlyphClass: 1
Flags: W
LayerCount: 2
Fore
SplineSet
705 0 m 1,0,-1
 512 0 l 1,1,-1
 512 63 l 1,2,-1
 449 63 l 1,3,-1
 449 0 l 1,4,-1
 128 0 l 1,5,-1
 128 63 l 1,6,7
 127 63 127 63 63 63 c 1,8,-1
 63 128 l 1,9,-1
 0 128 l 1,10,-1
 0 640 l 1,11,-1
 193 640 l 1,12,13
 193 641 193 641 193 193 c 1,14,-1
 256 193 l 1,15,-1
 256 128 l 1,16,-1
 449 128 l 1,17,18
 449 129 449 129 449 193 c 1,19,-1
 512 193 l 1,20,-1
 512 640 l 1,21,-1
 705 640 l 1,22,-1
 705 0 l 1,0,-1
EndSplineSet
Validated: 33
EndChar

StartChar: v
Encoding: 118 118 89
Width: 768
GlyphClass: 1
Flags: W
LayerCount: 2
Fore
SplineSet
512 0 m 1,0,-1
 193 0 l 1,1,-1
 193 128 l 1,2,-1
 128 128 l 1,3,-1
 128 256 l 1,4,5
 127 256 127 256 63 256 c 1,6,-1
 63 449 l 1,7,-1
 0 449 l 1,8,-1
 0 640 l 1,9,-1
 193 640 l 1,10,11
 193 641 193 641 193 449 c 1,12,-1
 256 449 l 1,13,-1
 256 256 l 1,14,-1
 319 256 l 1,15,-1
 319 128 l 1,16,-1
 384 128 l 1,17,-1
 384 256 l 1,18,19
 385 256 385 256 449 256 c 1,20,-1
 449 449 l 1,21,-1
 512 449 l 1,22,-1
 512 640 l 1,23,-1
 705 640 l 1,24,25
 705 641 705 641 705 449 c 1,26,-1
 640 449 l 1,27,-1
 640 256 l 1,28,29
 639 256 639 256 575 256 c 1,30,-1
 575 128 l 1,31,-1
 512 128 l 1,32,-1
 512 0 l 1,0,-1
EndSplineSet
Validated: 33
EndChar

StartChar: w
Encoding: 119 119 90
Width: 896
GlyphClass: 1
Flags: W
LayerCount: 2
Fore
SplineSet
768 0 m 1,0,-1
 449 0 l 1,1,-1
 449 63 l 1,2,-1
 384 63 l 1,3,-1
 384 0 l 1,4,5
 383 0 383 0 63 0 c 1,6,-1
 63 63 l 1,7,-1
 0 63 l 1,8,-1
 0 640 l 1,9,-1
 193 640 l 1,10,11
 193 641 193 641 193 193 c 1,12,-1
 319 193 l 1,13,-1
 319 575 l 1,14,-1
 512 575 l 1,15,-1
 512 193 l 1,16,-1
 640 193 l 1,17,-1
 640 640 l 1,18,19
 639 640 639 640 831 640 c 1,20,21
 831 639 831 639 831 63 c 1,22,-1
 768 63 l 1,23,-1
 768 0 l 1,0,-1
EndSplineSet
Validated: 33
EndChar

StartChar: x
Encoding: 120 120 91
Width: 768
GlyphClass: 1
Flags: W
LayerCount: 2
Fore
SplineSet
705 0 m 1,0,-1
 512 0 l 1,1,-1
 512 63 l 1,2,-1
 449 63 l 1,3,-1
 449 128 l 1,4,-1
 384 128 l 1,5,6
 384 129 384 129 384 193 c 1,7,8
 383 193 383 193 319 193 c 1,9,-1
 319 128 l 1,10,-1
 256 128 l 1,11,12
 256 127 256 127 256 63 c 1,13,-1
 193 63 l 1,14,-1
 193 0 l 1,15,-1
 0 0 l 1,16,-1
 0 128 l 1,17,-1
 63 128 l 1,18,19
 63 129 63 129 63 193 c 1,20,-1
 128 193 l 1,21,-1
 128 256 l 1,22,23
 129 256 129 256 193 256 c 1,24,-1
 193 384 l 1,25,-1
 128 384 l 1,26,27
 128 385 128 385 128 449 c 1,28,29
 127 449 127 449 63 449 c 1,30,-1
 63 512 l 1,31,-1
 0 512 l 1,32,-1
 0 640 l 1,33,-1
 193 640 l 1,34,35
 193 639 193 639 193 575 c 1,36,-1
 256 575 l 1,37,-1
 256 512 l 1,38,-1
 319 512 l 1,39,-1
 319 449 l 1,40,-1
 384 449 l 1,41,-1
 384 512 l 1,42,43
 385 512 385 512 449 512 c 1,44,-1
 449 575 l 1,45,-1
 512 575 l 1,46,-1
 512 640 l 1,47,-1
 705 640 l 1,48,-1
 705 512 l 1,49,-1
 640 512 l 1,50,-1
 640 449 l 1,51,52
 639 449 639 449 575 449 c 1,53,-1
 575 384 l 1,54,-1
 512 384 l 1,55,-1
 512 256 l 1,56,-1
 575 256 l 1,57,-1
 575 193 l 1,58,-1
 640 193 l 1,59,-1
 640 128 l 1,60,61
 641 128 641 128 705 128 c 1,62,-1
 705 0 l 1,0,-1
EndSplineSet
Validated: 1
EndChar

StartChar: y
Encoding: 121 121 92
Width: 768
GlyphClass: 1
Flags: W
LayerCount: 2
Fore
SplineSet
512 -256 m 1,0,-1
 128 -256 l 1,1,-1
 128 -193 l 1,2,-1
 0 -193 l 1,3,-1
 0 0 l 1,4,-1
 193 0 l 1,5,-1
 193 -128 l 1,6,-1
 449 -128 l 1,7,8
 449 -127 449 -127 449 -63 c 1,9,-1
 512 -63 l 1,10,-1
 512 63 l 1,11,-1
 193 63 l 1,12,-1
 193 128 l 1,13,-1
 63 128 l 1,14,-1
 63 256 l 1,15,-1
 0 256 l 1,16,-1
 0 640 l 1,17,-1
 193 640 l 1,18,19
 193 639 193 639 193 319 c 1,20,-1
 256 319 l 1,21,-1
 256 256 l 1,22,-1
 449 256 l 1,23,-1
 449 319 l 1,24,-1
 512 319 l 1,25,-1
 512 640 l 1,26,-1
 705 640 l 1,27,-1
 705 -128 l 1,28,-1
 640 -128 l 1,29,30
 640 -129 640 -129 640 -193 c 1,31,-1
 512 -193 l 1,32,-1
 512 -256 l 1,0,-1
EndSplineSet
Validated: 1
EndChar

StartChar: z
Encoding: 122 122 93
Width: 786
VWidth: 1048
GlyphClass: 1
Flags: W
LayerCount: 2
Fore
SplineSet
721 0 m 1,0,-1
 0 0 l 1,1,-1
 0 197 l 1,2,-1
 66 197 l 1,3,-1
 66 262 l 1,4,-1
 197 262 l 1,5,-1
 197 328 l 1,6,-1
 328 328 l 1,7,-1
 328 393 l 1,8,-1
 393 393 l 1,9,-1
 393 459 l 1,10,-1
 0 459 l 1,11,-1
 0 655 l 1,12,-1
 721 655 l 1,13,-1
 721 393 l 1,14,-1
 590 393 l 1,15,-1
 590 328 l 1,16,-1
 524 328 l 1,17,-1
 524 262 l 1,18,-1
 459 262 l 1,19,-1
 459 197 l 1,20,-1
 721 197 l 1,21,-1
 721 0 l 1,0,-1
EndSplineSet
Validated: 1
EndChar

StartChar: braceleft
Encoding: 123 123 94
Width: 512
GlyphClass: 1
Flags: W
LayerCount: 2
Fore
SplineSet
449 -128 m 1,0,-1
 193 -128 l 1,1,2
 193 -127 193 -127 193 -63 c 1,3,-1
 128 -63 l 1,4,-1
 128 0 l 1,5,6
 127 0 127 0 63 0 c 1,7,-1
 63 384 l 1,8,-1
 0 384 l 1,9,-1
 0 512 l 1,10,-1
 63 512 l 1,11,-1
 63 896 l 1,12,-1
 128 896 l 1,13,14
 128 897 128 897 128 961 c 1,15,16
 129 961 129 961 193 961 c 1,17,-1
 193 1024 l 1,18,-1
 449 1024 l 1,19,-1
 449 896 l 1,20,-1
 319 896 l 1,21,22
 319 895 319 895 319 831 c 1,23,-1
 256 831 l 1,24,-1
 256 512 l 1,25,-1
 193 512 l 1,26,-1
 193 384 l 1,27,-1
 256 384 l 1,28,29
 256 383 256 383 256 63 c 1,30,-1
 319 63 l 1,31,-1
 319 0 l 1,32,-1
 449 0 l 1,33,-1
 449 -128 l 1,0,-1
EndSplineSet
Validated: 1
EndChar

StartChar: bar
Encoding: 124 124 95
Width: 256
GlyphClass: 1
Flags: W
LayerCount: 2
Fore
SplineSet
193 896 m 1,0,-1
 0 896 l 1,1,2
 0 897 0 897 0 -63 c 1,3,-1
 193 -63 l 1,4,-1
 193 896 l 1,0,-1
EndSplineSet
Validated: 41
EndChar

StartChar: braceright
Encoding: 125 125 96
Width: 512
GlyphClass: 1
Flags: W
LayerCount: 2
Fore
SplineSet
256 -128 m 1,0,-1
 0 -128 l 1,1,-1
 0 0 l 1,2,-1
 128 0 l 1,3,-1
 128 63 l 1,4,5
 129 63 129 63 193 63 c 1,6,-1
 193 384 l 1,7,-1
 256 384 l 1,8,-1
 256 512 l 1,9,-1
 193 512 l 1,10,-1
 193 831 l 1,11,-1
 128 831 l 1,12,-1
 128 896 l 1,13,-1
 0 896 l 1,14,-1
 0 1024 l 1,15,-1
 256 1024 l 1,16,-1
 256 961 l 1,17,-1
 319 961 l 1,18,-1
 319 896 l 1,19,-1
 384 896 l 1,20,-1
 384 512 l 1,21,22
 385 512 385 512 449 512 c 1,23,-1
 449 384 l 1,24,-1
 384 384 l 1,25,-1
 384 0 l 1,26,27
 383 0 383 0 319 0 c 1,28,-1
 319 -63 l 1,29,-1
 256 -63 l 1,30,-1
 256 -128 l 1,0,-1
EndSplineSet
Validated: 1
EndChar

StartChar: asciitilde
Encoding: 126 126 97
Width: 896
GlyphClass: 1
Flags: W
LayerCount: 2
Fore
SplineSet
768 193 m 1,0,-1
 449 193 l 1,1,-1
 449 256 l 1,2,-1
 384 256 l 1,3,-1
 384 319 l 1,4,-1
 256 319 l 1,5,-1
 256 256 l 1,6,-1
 193 256 l 1,7,-1
 193 193 l 1,8,-1
 0 193 l 1,9,-1
 0 384 l 1,10,-1
 63 384 l 1,11,12
 63 385 63 385 63 449 c 1,13,-1
 193 449 l 1,14,-1
 193 512 l 1,15,-1
 449 512 l 1,16,-1
 449 449 l 1,17,-1
 512 449 l 1,18,-1
 512 384 l 1,19,-1
 640 384 l 1,20,21
 640 385 640 385 640 449 c 1,22,23
 639 449 639 449 831 449 c 1,24,-1
 831 256 l 1,25,-1
 768 256 l 1,26,-1
 768 193 l 1,0,-1
EndSplineSet
Validated: 33
EndChar

StartChar: exclamdown
Encoding: 161 161 99
Width: 384
GlyphClass: 1
Flags: W
LayerCount: 2
Fore
SplineSet
256 -256 m 1,0,-1
 63 -256 l 1,1,-1
 63 -193 l 1,2,-1
 0 -193 l 1,3,-1
 0 319 l 1,4,-1
 63 319 l 1,5,-1
 63 449 l 1,6,-1
 256 449 l 1,7,-1
 256 319 l 1,8,-1
 319 319 l 1,9,-1
 319 -193 l 1,10,-1
 256 -193 l 1,11,-1
 256 -256 l 1,0,-1
256 512 m 1,12,-1
 63 512 l 1,13,-1
 63 705 l 1,14,-1
 256 705 l 1,15,-1
 256 512 l 1,12,-1
EndSplineSet
Validated: 1
EndChar

StartChar: cent
Encoding: 162 162 100
Width: 768
GlyphClass: 1
Flags: W
LayerCount: 2
Fore
SplineSet
449 -128 m 1,0,-1
 256 -128 l 1,1,-1
 256 0 l 1,2,-1
 128 0 l 1,3,-1
 128 63 l 1,4,5
 127 63 127 63 63 63 c 1,6,-1
 63 128 l 1,7,-1
 0 128 l 1,8,-1
 0 512 l 1,9,-1
 63 512 l 1,10,-1
 63 575 l 1,11,-1
 128 575 l 1,12,-1
 128 640 l 1,13,-1
 256 640 l 1,14,-1
 256 768 l 1,15,-1
 449 768 l 1,16,-1
 449 640 l 1,17,-1
 575 640 l 1,18,19
 575 639 575 639 575 575 c 1,20,-1
 640 575 l 1,21,-1
 640 512 l 1,22,23
 641 512 641 512 705 512 c 1,24,-1
 705 384 l 1,25,-1
 575 384 l 1,26,27
 575 385 575 385 575 449 c 1,28,-1
 512 449 l 1,29,-1
 512 512 l 1,30,-1
 449 512 l 1,31,-1
 449 128 l 1,32,-1
 512 128 l 1,33,34
 512 129 512 129 512 193 c 1,35,-1
 575 193 l 1,36,-1
 575 256 l 1,37,-1
 705 256 l 1,38,-1
 705 128 l 1,39,-1
 640 128 l 1,40,41
 640 127 640 127 640 63 c 1,42,43
 639 63 639 63 575 63 c 1,44,-1
 575 0 l 1,45,-1
 449 0 l 1,46,-1
 449 -128 l 1,0,-1
256 193 m 1,47,-1
 256 449 l 1,48,-1
 193 449 l 1,49,-1
 193 384 l 1,50,-1
 128 384 l 1,51,-1
 128 256 l 1,52,53
 129 256 129 256 193 256 c 1,54,-1
 193 193 l 1,55,-1
 256 193 l 1,47,-1
EndSplineSet
Validated: 1
EndChar

StartChar: sterling
Encoding: 163 163 101
Width: 703
GlyphClass: 1
Flags: W
LayerCount: 2
Fore
SplineSet
575 0 m 1,0,-1
 0 0 l 1,1,-1
 0 128 l 1,2,-1
 63 128 l 1,3,4
 63 127 63 127 63 319 c 1,5,-1
 -63 319 l 1,6,-1
 -63 449 l 1,7,-1
 63 449 l 1,8,-1
 63 512 l 1,9,-1
 0 512 l 1,10,-1
 0 705 l 1,11,-1
 63 705 l 1,12,-1
 63 768 l 1,13,-1
 128 768 l 1,14,-1
 128 831 l 1,15,-1
 512 831 l 1,16,-1
 512 768 l 1,17,-1
 575 768 l 1,18,-1
 575 640 l 1,19,-1
 384 640 l 1,20,21
 384 641 384 641 384 705 c 1,22,-1
 256 705 l 1,23,-1
 256 640 l 1,24,-1
 193 640 l 1,25,-1
 193 512 l 1,26,-1
 256 512 l 1,27,-1
 256 449 l 1,28,-1
 384 449 l 1,29,-1
 384 319 l 1,30,-1
 256 319 l 1,31,-1
 256 128 l 1,32,-1
 449 128 l 1,33,34
 449 129 449 129 449 193 c 1,35,-1
 640 193 l 1,36,-1
 640 63 l 1,37,38
 639 63 639 63 575 63 c 1,39,-1
 575 0 l 1,0,-1
EndSplineSet
Validated: 33
EndChar

StartChar: currency
Encoding: 164 164 102
Width: 640
GlyphClass: 1
Flags: W
LayerCount: 2
Fore
SplineSet
449 128 m 1,0,-1
 449 256 l 1,1,-1
 575 256 l 1,2,-1
 575 193 l 1,3,-1
 512 193 l 1,4,-1
 512 128 l 1,5,-1
 449 128 l 1,0,-1
63 128 m 1,6,7
 63 129 63 129 63 193 c 1,8,-1
 0 193 l 1,9,-1
 0 256 l 1,10,-1
 128 256 l 1,11,-1
 128 128 l 1,12,-1
 63 128 l 1,6,7
384 193 m 1,13,14
 385 193 385 193 193 193 c 1,15,-1
 193 256 l 1,16,-1
 128 256 l 1,17,-1
 128 319 l 1,18,19
 127 319 127 319 63 319 c 1,20,-1
 63 512 l 1,21,-1
 128 512 l 1,22,-1
 128 575 l 1,23,24
 129 575 129 575 193 575 c 1,25,-1
 193 640 l 1,26,-1
 384 640 l 1,27,28
 384 639 384 639 384 575 c 1,29,30
 385 575 385 575 449 575 c 1,31,-1
 449 512 l 1,32,-1
 512 512 l 1,33,-1
 512 319 l 1,34,-1
 449 319 l 1,35,-1
 449 256 l 1,36,-1
 384 256 l 1,37,-1
 384 193 l 1,13,14
319 319 m 1,38,-1
 319 384 l 1,39,-1
 384 384 l 1,40,41
 384 385 384 385 384 449 c 1,42,43
 383 449 383 449 319 449 c 1,44,-1
 319 512 l 1,45,-1
 256 512 l 1,46,-1
 256 449 l 1,47,-1
 193 449 l 1,48,-1
 193 384 l 1,49,-1
 256 384 l 1,50,51
 256 383 256 383 256 319 c 1,52,-1
 319 319 l 1,38,-1
575 575 m 1,53,-1
 449 575 l 1,54,-1
 449 705 l 1,55,-1
 512 705 l 1,56,-1
 512 640 l 1,57,-1
 575 640 l 1,58,-1
 575 575 l 1,53,-1
128 575 m 1,59,-1
 0 575 l 1,60,-1
 0 640 l 1,61,-1
 63 640 l 1,62,63
 63 641 63 641 63 705 c 1,64,-1
 128 705 l 1,65,-1
 128 575 l 1,59,-1
EndSplineSet
Validated: 37
EndChar

StartChar: yen
Encoding: 165 165 103
Width: 959
GlyphClass: 1
Flags: W
LayerCount: 2
Fore
SplineSet
575 0 m 1,0,-1
 319 0 l 1,1,-1
 319 128 l 1,2,-1
 63 128 l 1,3,-1
 63 256 l 1,4,-1
 319 256 l 1,5,-1
 319 319 l 1,6,-1
 63 319 l 1,7,-1
 63 449 l 1,8,-1
 193 449 l 1,9,-1
 193 512 l 1,10,-1
 128 512 l 1,11,-1
 128 575 l 1,12,-1
 0 575 l 1,13,-1
 0 831 l 1,14,-1
 256 831 l 1,15,-1
 256 705 l 1,16,-1
 319 705 l 1,17,-1
 319 640 l 1,18,-1
 384 640 l 1,19,20
 384 639 384 639 384 575 c 1,21,-1
 512 575 l 1,22,-1
 512 640 l 1,23,-1
 575 640 l 1,24,25
 575 641 575 641 575 705 c 1,26,-1
 640 705 l 1,27,-1
 640 831 l 1,28,-1
 896 831 l 1,29,-1
 896 575 l 1,30,-1
 768 575 l 1,31,-1
 768 512 l 1,32,-1
 705 512 l 1,33,-1
 705 449 l 1,34,-1
 831 449 l 1,35,-1
 831 319 l 1,36,-1
 575 319 l 1,37,-1
 575 256 l 1,38,-1
 831 256 l 1,39,-1
 831 128 l 1,40,-1
 575 128 l 1,41,-1
 575 0 l 1,0,-1
EndSplineSet
Validated: 1
EndChar

StartChar: brokenbar
Encoding: 166 166 104
Width: 319
GlyphClass: 1
Flags: W
LayerCount: 2
Fore
SplineSet
256 -63 m 1,0,-1
 63 -63 l 1,1,-1
 63 384 l 1,2,-1
 256 384 l 1,3,-1
 256 -63 l 1,0,-1
256 449 m 1,4,-1
 63 449 l 1,5,-1
 63 896 l 1,6,-1
 256 896 l 1,7,-1
 256 449 l 1,4,-1
EndSplineSet
Validated: 1
EndChar

StartChar: section
Encoding: 167 167 105
Width: 640
GlyphClass: 1
Flags: W
LayerCount: 2
Fore
SplineSet
449 -128 m 1,0,-1
 193 -128 l 1,1,2
 193 -127 193 -127 193 -63 c 1,3,-1
 128 -63 l 1,4,-1
 128 0 l 1,5,6
 127 0 127 0 63 0 c 1,7,-1
 63 128 l 1,8,-1
 193 128 l 1,9,10
 193 127 193 127 193 63 c 1,11,-1
 256 63 l 1,12,-1
 256 0 l 1,13,-1
 319 0 l 1,14,-1
 319 63 l 1,15,-1
 384 63 l 1,16,-1
 384 128 l 1,17,18
 383 128 383 128 319 128 c 1,19,20
 319 129 319 129 319 193 c 1,21,-1
 193 193 l 1,22,-1
 193 256 l 1,23,-1
 128 256 l 1,24,-1
 128 319 l 1,25,26
 127 319 127 319 63 319 c 1,27,-1
 63 384 l 1,28,-1
 0 384 l 1,29,30
 0 383 0 383 0 575 c 1,31,-1
 63 575 l 1,32,-1
 63 831 l 1,33,-1
 128 831 l 1,34,-1
 128 896 l 1,35,36
 129 896 129 896 193 896 c 1,37,38
 193 897 193 897 193 961 c 1,39,-1
 384 961 l 1,40,-1
 384 896 l 1,41,42
 385 896 385 896 449 896 c 1,43,44
 449 895 449 895 449 831 c 1,45,-1
 512 831 l 1,46,-1
 512 705 l 1,47,-1
 384 705 l 1,48,-1
 384 768 l 1,49,50
 383 768 383 768 319 768 c 1,51,-1
 319 831 l 1,52,-1
 256 831 l 1,53,-1
 256 768 l 1,54,-1
 193 768 l 1,55,-1
 193 705 l 1,56,-1
 256 705 l 1,57,-1
 256 640 l 1,58,-1
 384 640 l 1,59,60
 384 639 384 639 384 575 c 1,61,62
 385 575 385 575 449 575 c 1,63,-1
 449 512 l 1,64,-1
 512 512 l 1,65,-1
 512 449 l 1,66,-1
 575 449 l 1,67,-1
 575 256 l 1,68,-1
 512 256 l 1,69,-1
 512 -63 l 1,70,-1
 449 -63 l 1,71,-1
 449 -128 l 1,0,-1
384 319 m 1,72,-1
 384 384 l 1,73,74
 383 384 383 384 319 384 c 1,75,76
 319 385 319 385 319 449 c 1,77,-1
 256 449 l 1,78,-1
 256 512 l 1,79,-1
 193 512 l 1,80,-1
 193 449 l 1,81,-1
 256 449 l 1,82,-1
 256 384 l 1,83,-1
 319 384 l 1,84,85
 319 383 319 383 319 319 c 1,86,-1
 384 319 l 1,72,-1
EndSplineSet
Validated: 37
EndChar

StartChar: dieresis
Encoding: 168 168 106
Width: 575
GlyphClass: 1
Flags: W
LayerCount: 2
Fore
SplineSet
512 768 m 1,0,-1
 319 768 l 1,1,-1
 319 961 l 1,2,-1
 512 961 l 1,3,-1
 512 768 l 1,0,-1
193 768 m 1,4,-1
 0 768 l 1,5,-1
 0 961 l 1,6,-1
 193 961 l 1,7,-1
 193 768 l 1,4,-1
EndSplineSet
Validated: 1
EndChar

StartChar: copyright
Encoding: 169 169 107
Width: 896
GlyphClass: 1
Flags: W
LayerCount: 2
Fore
SplineSet
640 0 m 1,0,1
 641 0 641 0 193 0 c 1,2,-1
 193 63 l 1,3,-1
 128 63 l 1,4,-1
 128 128 l 1,5,6
 127 128 127 128 63 128 c 1,7,8
 63 129 63 129 63 193 c 1,9,-1
 0 193 l 1,10,-1
 0 640 l 1,11,-1
 63 640 l 1,12,13
 63 641 63 641 63 705 c 1,14,-1
 128 705 l 1,15,-1
 128 768 l 1,16,17
 129 768 129 768 193 768 c 1,18,-1
 193 831 l 1,19,-1
 640 831 l 1,20,-1
 640 768 l 1,21,22
 641 768 641 768 705 768 c 1,23,-1
 705 705 l 1,24,-1
 768 705 l 1,25,-1
 768 640 l 1,26,-1
 831 640 l 1,27,28
 831 641 831 641 831 193 c 1,29,-1
 768 193 l 1,30,-1
 768 128 l 1,31,-1
 705 128 l 1,32,33
 705 127 705 127 705 63 c 1,34,-1
 640 63 l 1,35,-1
 640 0 l 1,0,1
193 128 m 1,36,-1
 640 128 l 1,37,38
 640 129 640 129 640 193 c 1,39,40
 641 193 641 193 705 193 c 1,41,-1
 705 640 l 1,42,-1
 640 640 l 1,43,44
 640 641 640 641 640 705 c 1,45,46
 641 705 641 705 193 705 c 1,47,-1
 193 640 l 1,48,-1
 128 640 l 1,49,50
 128 641 128 641 128 193 c 1,51,52
 129 193 129 193 193 193 c 1,53,-1
 193 128 l 1,36,-1
575 193 m 1,54,-1
 256 193 l 1,55,-1
 256 256 l 1,56,-1
 193 256 l 1,57,-1
 193 575 l 1,58,-1
 256 575 l 1,59,-1
 256 640 l 1,60,-1
 575 640 l 1,61,62
 575 639 575 639 575 575 c 1,63,-1
 640 575 l 1,64,-1
 640 449 l 1,65,-1
 512 449 l 1,66,-1
 512 512 l 1,67,-1
 319 512 l 1,68,-1
 319 319 l 1,69,-1
 512 319 l 1,70,-1
 512 384 l 1,71,-1
 640 384 l 1,72,-1
 640 256 l 1,73,74
 639 256 639 256 575 256 c 1,75,-1
 575 193 l 1,54,-1
EndSplineSet
Validated: 33
EndChar

StartChar: ordfeminine
Encoding: 170 170 108
Width: 447
GlyphClass: 1
Flags: W
LayerCount: 2
Fore
SplineSet
384 640 m 1,0,-1
 256 640 l 1,1,2
 256 641 256 641 256 705 c 1,3,-1
 193 705 l 1,4,-1
 193 640 l 1,5,-1
 63 640 l 1,6,7
 63 641 63 641 63 705 c 1,8,-1
 0 705 l 1,9,-1
 0 961 l 1,10,-1
 63 961 l 1,11,-1
 63 1024 l 1,12,-1
 384 1024 l 1,13,-1
 384 640 l 1,0,-1
128 768 m 1,14,-1
 256 768 l 1,15,-1
 256 896 l 1,16,-1
 128 896 l 1,17,-1
 128 768 l 1,14,-1
EndSplineSet
Validated: 1
EndChar

StartChar: guillemotleft
Encoding: 171 171 109
Width: 768
GlyphClass: 1
Flags: W
LayerCount: 2
Fore
SplineSet
705 0 m 1,0,-1
 575 0 l 1,1,-1
 575 63 l 1,2,-1
 512 63 l 1,3,-1
 512 128 l 1,4,-1
 449 128 l 1,5,6
 449 129 449 129 449 193 c 1,7,-1
 384 193 l 1,8,-1
 384 256 l 1,9,10
 383 256 383 256 319 256 c 1,11,-1
 319 384 l 1,12,-1
 384 384 l 1,13,14
 384 385 384 385 384 449 c 1,15,16
 385 449 385 449 449 449 c 1,17,-1
 449 512 l 1,18,-1
 512 512 l 1,19,-1
 512 575 l 1,20,-1
 575 575 l 1,21,-1
 575 640 l 1,22,-1
 705 640 l 1,23,-1
 705 512 l 1,24,-1
 640 512 l 1,25,-1
 640 449 l 1,26,27
 639 449 639 449 575 449 c 1,28,-1
 575 384 l 1,29,-1
 512 384 l 1,30,-1
 512 256 l 1,31,-1
 575 256 l 1,32,-1
 575 193 l 1,33,-1
 640 193 l 1,34,-1
 640 128 l 1,35,36
 641 128 641 128 705 128 c 1,37,-1
 705 0 l 1,0,-1
384 0 m 1,38,-1
 256 0 l 1,39,-1
 256 63 l 1,40,-1
 193 63 l 1,41,-1
 193 128 l 1,42,-1
 128 128 l 1,43,44
 128 129 128 129 128 193 c 1,45,46
 127 193 127 193 63 193 c 1,47,-1
 63 256 l 1,48,-1
 0 256 l 1,49,-1
 0 384 l 1,50,-1
 63 384 l 1,51,52
 63 385 63 385 63 449 c 1,53,-1
 128 449 l 1,54,-1
 128 512 l 1,55,56
 129 512 129 512 193 512 c 1,57,-1
 193 575 l 1,58,-1
 256 575 l 1,59,-1
 256 640 l 1,60,-1
 384 640 l 1,61,-1
 384 512 l 1,62,63
 383 512 383 512 319 512 c 1,64,-1
 319 449 l 1,65,-1
 256 449 l 1,66,-1
 256 384 l 1,67,-1
 193 384 l 1,68,-1
 193 256 l 1,69,-1
 256 256 l 1,70,-1
 256 193 l 1,71,-1
 319 193 l 1,72,-1
 319 128 l 1,73,-1
 384 128 l 1,74,-1
 384 0 l 1,38,-1
EndSplineSet
Validated: 1
EndChar

StartChar: logicalnot
Encoding: 172 172 110
Width: 703
GlyphClass: 1
Flags: W
LayerCount: 2
Fore
SplineSet
640 128 m 1,0,1
 641 128 641 128 449 128 c 1,2,3
 449 127 449 127 449 319 c 1,4,-1
 63 319 l 1,5,-1
 63 512 l 1,6,-1
 640 512 l 1,7,-1
 640 128 l 1,0,1
EndSplineSet
Validated: 33
EndChar

StartChar: uni00AD
Encoding: 173 173 111
Width: 1024
GlyphClass: 1
Flags: W
LayerCount: 2
Fore
SplineSet
705 384 m 1,0,-1
 0 384 l 1,1,2
 0 385 0 385 0 193 c 1,3,-1
 705 193 l 1,4,-1
 705 384 l 1,0,-1
EndSplineSet
Validated: 41
EndChar

StartChar: registered
Encoding: 174 174 112
Width: 896
GlyphClass: 1
Flags: W
LayerCount: 2
Fore
SplineSet
640 0 m 1,0,1
 641 0 641 0 193 0 c 1,2,-1
 193 63 l 1,3,-1
 128 63 l 1,4,-1
 128 128 l 1,5,6
 127 128 127 128 63 128 c 1,7,8
 63 129 63 129 63 193 c 1,9,-1
 0 193 l 1,10,-1
 0 640 l 1,11,-1
 63 640 l 1,12,13
 63 641 63 641 63 705 c 1,14,-1
 128 705 l 1,15,-1
 128 768 l 1,16,17
 129 768 129 768 193 768 c 1,18,-1
 193 831 l 1,19,-1
 640 831 l 1,20,-1
 640 768 l 1,21,22
 641 768 641 768 705 768 c 1,23,-1
 705 705 l 1,24,-1
 768 705 l 1,25,-1
 768 640 l 1,26,-1
 831 640 l 1,27,28
 831 641 831 641 831 193 c 1,29,-1
 768 193 l 1,30,-1
 768 128 l 1,31,-1
 705 128 l 1,32,33
 705 127 705 127 705 63 c 1,34,-1
 640 63 l 1,35,-1
 640 0 l 1,0,1
193 128 m 1,36,-1
 640 128 l 1,37,38
 640 129 640 129 640 193 c 1,39,-1
 512 193 l 1,40,-1
 512 256 l 1,41,-1
 449 256 l 1,42,-1
 449 319 l 1,43,-1
 319 319 l 1,44,-1
 319 193 l 1,45,-1
 193 193 l 1,46,-1
 193 640 l 1,47,-1
 128 640 l 1,48,49
 128 641 128 641 128 193 c 1,50,51
 129 193 129 193 193 193 c 1,52,-1
 193 128 l 1,36,-1
705 193 m 1,53,-1
 705 640 l 1,54,-1
 640 640 l 1,55,56
 640 641 640 641 640 705 c 1,57,58
 641 705 641 705 193 705 c 1,59,-1
 193 640 l 1,60,-1
 575 640 l 1,61,62
 575 639 575 639 575 575 c 1,63,-1
 640 575 l 1,64,-1
 640 384 l 1,65,66
 639 384 639 384 575 384 c 1,67,68
 575 383 575 383 575 319 c 1,69,-1
 640 319 l 1,70,-1
 640 193 l 1,71,-1
 705 193 l 1,53,-1
319 449 m 1,72,-1
 512 449 l 1,73,-1
 512 512 l 1,74,-1
 319 512 l 1,75,-1
 319 449 l 1,72,-1
EndSplineSet
Validated: 37
EndChar

StartChar: macron
Encoding: 175 175 113
Width: 896
GlyphClass: 1
Flags: W
LayerCount: 2
Fore
SplineSet
831 575 m 1,0,-1
 0 575 l 1,1,-1
 0 768 l 1,2,-1
 831 768 l 1,3,-1
 831 575 l 1,0,-1
EndSplineSet
Validated: 1
EndChar

StartChar: degree
Encoding: 176 176 114
Width: 512
GlyphClass: 1
Flags: W
LayerCount: 2
Fore
SplineSet
319 640 m 1,0,-1
 128 640 l 1,1,2
 128 641 128 641 128 705 c 1,3,4
 127 705 127 705 63 705 c 1,5,-1
 63 768 l 1,6,-1
 0 768 l 1,7,-1
 0 961 l 1,8,-1
 63 961 l 1,9,-1
 63 1024 l 1,10,-1
 128 1024 l 1,11,-1
 128 1087 l 1,12,13
 127 1087 127 1087 319 1087 c 1,14,-1
 319 1024 l 1,15,-1
 384 1024 l 1,16,-1
 384 961 l 1,17,18
 385 961 385 961 449 961 c 1,19,-1
 449 768 l 1,20,-1
 384 768 l 1,21,-1
 384 705 l 1,22,23
 383 705 383 705 319 705 c 1,24,-1
 319 640 l 1,0,-1
256 768 m 1,25,-1
 256 831 l 1,26,-1
 319 831 l 1,27,-1
 319 896 l 1,28,-1
 256 896 l 1,29,30
 256 897 256 897 256 961 c 1,31,-1
 193 961 l 1,32,-1
 193 896 l 1,33,-1
 128 896 l 1,34,35
 128 895 128 895 128 831 c 1,36,37
 129 831 129 831 193 831 c 1,38,-1
 193 768 l 1,39,-1
 256 768 l 1,25,-1
EndSplineSet
Validated: 33
EndChar

StartChar: plusminus
Encoding: 177 177 115
Width: 831
GlyphClass: 1
Flags: W
LayerCount: 2
Fore
SplineSet
768 -63 m 1,0,-1
 0 -63 l 1,1,-1
 0 193 l 1,2,-1
 256 193 l 1,3,-1
 256 319 l 1,4,-1
 0 319 l 1,5,-1
 0 575 l 1,6,-1
 256 575 l 1,7,-1
 256 831 l 1,8,-1
 512 831 l 1,9,-1
 512 575 l 1,10,-1
 768 575 l 1,11,-1
 768 319 l 1,12,-1
 512 319 l 1,13,-1
 512 193 l 1,14,-1
 768 193 l 1,15,-1
 768 -63 l 1,0,-1
EndSplineSet
Validated: 1
EndChar

StartChar: uni00B2
Encoding: 178 178 116
Width: 384
GlyphClass: 1
Flags: W
LayerCount: 2
Fore
SplineSet
193 705 m 1,0,-1
 319 705 l 1,1,-1
 319 640 l 1,2,-1
 0 640 l 1,3,-1
 0 768 l 1,4,-1
 63 768 l 1,5,-1
 63 831 l 1,6,-1
 128 831 l 1,7,-1
 128 896 l 1,8,-1
 0 896 l 1,9,-1
 0 1024 l 1,10,-1
 63 1024 l 1,11,-1
 63 1087 l 1,12,-1
 256 1087 l 1,13,-1
 256 1024 l 1,14,-1
 319 1024 l 1,15,-1
 319 831 l 1,16,-1
 256 831 l 1,17,-1
 256 768 l 1,18,-1
 193 768 l 1,19,-1
 193 705 l 1,0,-1
193 896 m 1,20,21
 193 897 193 897 193 961 c 1,22,-1
 128 961 l 1,23,-1
 128 896 l 1,24,-1
 193 896 l 1,20,21
EndSplineSet
Validated: 5
EndChar

StartChar: uni00B3
Encoding: 179 179 117
Width: 384
GlyphClass: 1
Flags: W
LayerCount: 2
Fore
SplineSet
256 640 m 1,0,-1
 63 640 l 1,1,2
 63 641 63 641 63 705 c 1,3,-1
 0 705 l 1,4,-1
 0 768 l 1,5,-1
 193 768 l 1,6,-1
 193 831 l 1,7,-1
 128 831 l 1,8,-1
 128 896 l 1,9,10
 129 896 129 896 193 896 c 1,11,12
 193 897 193 897 193 961 c 1,13,-1
 0 961 l 1,14,-1
 0 1024 l 1,15,-1
 63 1024 l 1,16,-1
 63 1087 l 1,17,-1
 256 1087 l 1,18,-1
 256 1024 l 1,19,-1
 319 1024 l 1,20,-1
 319 896 l 1,21,-1
 256 896 l 1,22,23
 256 895 256 895 256 831 c 1,24,-1
 319 831 l 1,25,-1
 319 705 l 1,26,-1
 256 705 l 1,27,-1
 256 640 l 1,0,-1
EndSplineSet
Validated: 1
EndChar

StartChar: acute
Encoding: 180 180 118
Width: 384
GlyphClass: 1
Flags: W
LayerCount: 2
Fore
SplineSet
128 705 m 1,0,-1
 0 705 l 1,1,-1
 0 831 l 1,2,-1
 63 831 l 1,3,-1
 63 896 l 1,4,-1
 256 896 l 1,5,6
 256 895 256 895 256 831 c 1,7,-1
 193 831 l 1,8,-1
 193 768 l 1,9,-1
 128 768 l 1,10,-1
 128 705 l 1,0,-1
EndSplineSet
Validated: 1
EndChar

StartChar: uni00B5
Encoding: 181 181 119
Width: 768
GlyphClass: 1
Flags: W
LayerCount: 2
Fore
SplineSet
193 -256 m 1,0,-1
 0 -256 l 1,1,-1
 0 640 l 1,2,-1
 193 640 l 1,3,4
 193 641 193 641 193 193 c 1,5,-1
 256 193 l 1,6,-1
 256 128 l 1,7,-1
 449 128 l 1,8,9
 449 129 449 129 449 193 c 1,10,-1
 512 193 l 1,11,-1
 512 640 l 1,12,-1
 705 640 l 1,13,-1
 705 0 l 1,14,-1
 512 0 l 1,15,-1
 512 63 l 1,16,-1
 449 63 l 1,17,-1
 449 0 l 1,18,-1
 193 0 l 1,19,-1
 193 -256 l 1,0,-1
EndSplineSet
Validated: 33
EndChar

StartChar: paragraph
Encoding: 182 182 120
Width: 768
GlyphClass: 1
Flags: W
LayerCount: 2
Fore
SplineSet
512 0 m 1,0,-1
 384 0 l 1,1,-1
 384 831 l 1,2,3
 383 831 383 831 319 831 c 1,4,-1
 319 0 l 1,5,-1
 193 0 l 1,6,-1
 193 512 l 1,7,-1
 63 512 l 1,8,-1
 63 575 l 1,9,-1
 0 575 l 1,10,-1
 0 831 l 1,11,-1
 63 831 l 1,12,-1
 63 896 l 1,13,-1
 128 896 l 1,14,15
 128 897 128 897 128 961 c 1,16,17
 129 961 129 961 705 961 c 1,18,-1
 705 831 l 1,19,-1
 512 831 l 1,20,-1
 512 0 l 1,0,-1
EndSplineSet
Validated: 1
EndChar

StartChar: periodcentered
Encoding: 183 183 121
Width: 384
GlyphClass: 1
Flags: W
LayerCount: 2
Fore
SplineSet
256 319 m 1,0,-1
 63 319 l 1,1,-1
 63 512 l 1,2,-1
 256 512 l 1,3,-1
 256 319 l 1,0,-1
EndSplineSet
Validated: 1
EndChar

StartChar: cedilla
Encoding: 184 184 122
Width: 384
GlyphClass: 1
Flags: W
LayerCount: 2
Fore
SplineSet
256 -256 m 1,0,-1
 128 -256 l 1,1,-1
 128 -193 l 1,2,3
 127 -193 127 -193 63 -193 c 1,4,-1
 63 -128 l 1,5,-1
 193 -128 l 1,6,7
 193 -127 193 -127 193 -63 c 1,8,-1
 128 -63 l 1,9,-1
 128 63 l 1,10,11
 129 63 129 63 193 63 c 1,12,-1
 193 0 l 1,13,-1
 256 0 l 1,14,-1
 256 -63 l 1,15,-1
 319 -63 l 1,16,-1
 319 -193 l 1,17,-1
 256 -193 l 1,18,-1
 256 -256 l 1,0,-1
EndSplineSet
Validated: 1
EndChar

StartChar: uni00B9
Encoding: 185 185 123
Width: 319
GlyphClass: 1
Flags: W
LayerCount: 2
Fore
SplineSet
256 640 m 1,0,-1
 128 640 l 1,1,-1
 128 896 l 1,2,-1
 0 896 l 1,3,4
 0 897 0 897 0 961 c 1,5,-1
 63 961 l 1,6,-1
 63 1024 l 1,7,-1
 128 1024 l 1,8,-1
 128 1087 l 1,9,-1
 256 1087 l 1,10,-1
 256 640 l 1,0,-1
EndSplineSet
Validated: 1
EndChar

StartChar: ordmasculine
Encoding: 186 186 124
Width: 512
GlyphClass: 1
Flags: W
LayerCount: 2
Fore
SplineSet
319 640 m 1,0,-1
 128 640 l 1,1,2
 128 641 128 641 128 705 c 1,3,4
 127 705 127 705 63 705 c 1,5,-1
 63 768 l 1,6,-1
 0 768 l 1,7,-1
 0 961 l 1,8,-1
 63 961 l 1,9,-1
 63 1024 l 1,10,-1
 128 1024 l 1,11,-1
 128 1087 l 1,12,13
 127 1087 127 1087 319 1087 c 1,14,-1
 319 1024 l 1,15,-1
 384 1024 l 1,16,-1
 384 961 l 1,17,18
 385 961 385 961 449 961 c 1,19,-1
 449 768 l 1,20,-1
 384 768 l 1,21,-1
 384 705 l 1,22,23
 383 705 383 705 319 705 c 1,24,-1
 319 640 l 1,0,-1
256 705 m 1,25,-1
 256 768 l 1,26,-1
 319 768 l 1,27,-1
 319 961 l 1,28,-1
 256 961 l 1,29,-1
 256 1024 l 1,30,-1
 193 1024 l 1,31,-1
 193 961 l 1,32,-1
 128 961 l 1,33,-1
 128 768 l 1,34,35
 129 768 129 768 193 768 c 1,36,-1
 193 705 l 1,37,-1
 256 705 l 1,25,-1
EndSplineSet
Validated: 33
EndChar

StartChar: guillemotright
Encoding: 187 187 125
Width: 768
GlyphClass: 1
Flags: W
LayerCount: 2
Fore
SplineSet
449 0 m 1,0,-1
 319 0 l 1,1,-1
 319 128 l 1,2,-1
 384 128 l 1,3,4
 384 129 384 129 384 193 c 1,5,6
 385 193 385 193 449 193 c 1,7,-1
 449 256 l 1,8,-1
 512 256 l 1,9,-1
 512 384 l 1,10,-1
 449 384 l 1,11,12
 449 385 449 385 449 449 c 1,13,-1
 384 449 l 1,14,-1
 384 512 l 1,15,16
 383 512 383 512 319 512 c 1,17,-1
 319 640 l 1,18,-1
 449 640 l 1,19,20
 449 639 449 639 449 575 c 1,21,-1
 512 575 l 1,22,-1
 512 512 l 1,23,-1
 575 512 l 1,24,-1
 575 449 l 1,25,-1
 640 449 l 1,26,-1
 640 384 l 1,27,28
 641 384 641 384 705 384 c 1,29,-1
 705 256 l 1,30,-1
 640 256 l 1,31,-1
 640 193 l 1,32,33
 639 193 639 193 575 193 c 1,34,-1
 575 128 l 1,35,-1
 512 128 l 1,36,37
 512 127 512 127 512 63 c 1,38,-1
 449 63 l 1,39,-1
 449 0 l 1,0,-1
128 0 m 1,40,-1
 0 0 l 1,41,-1
 0 128 l 1,42,-1
 63 128 l 1,43,44
 63 129 63 129 63 193 c 1,45,-1
 128 193 l 1,46,-1
 128 256 l 1,47,48
 129 256 129 256 193 256 c 1,49,-1
 193 384 l 1,50,-1
 128 384 l 1,51,52
 128 385 128 385 128 449 c 1,53,54
 127 449 127 449 63 449 c 1,55,-1
 63 512 l 1,56,-1
 0 512 l 1,57,-1
 0 640 l 1,58,-1
 128 640 l 1,59,60
 128 639 128 639 128 575 c 1,61,62
 129 575 129 575 193 575 c 1,63,-1
 193 512 l 1,64,-1
 256 512 l 1,65,-1
 256 449 l 1,66,-1
 319 449 l 1,67,-1
 319 384 l 1,68,-1
 384 384 l 1,69,-1
 384 256 l 1,70,71
 383 256 383 256 319 256 c 1,72,-1
 319 193 l 1,73,-1
 256 193 l 1,74,-1
 256 128 l 1,75,-1
 193 128 l 1,76,77
 193 127 193 127 193 63 c 1,78,-1
 128 63 l 1,79,-1
 128 0 l 1,40,-1
EndSplineSet
Validated: 1
EndChar

StartChar: onequarter
Encoding: 188 188 126
Width: 831
GlyphClass: 1
Flags: W
LayerCount: 2
Fore
SplineSet
768 0 m 1,0,-1
 640 0 l 1,1,-1
 640 63 l 1,2,3
 641 63 641 63 449 63 c 1,4,-1
 449 193 l 1,5,-1
 512 193 l 1,6,-1
 512 256 l 1,7,-1
 575 256 l 1,8,-1
 575 319 l 1,9,-1
 640 319 l 1,10,-1
 640 384 l 1,11,-1
 768 384 l 1,12,-1
 768 0 l 1,0,-1
193 0 m 1,13,-1
 63 0 l 1,14,-1
 63 63 l 1,15,-1
 0 63 l 1,16,-1
 0 193 l 1,17,-1
 63 193 l 1,18,-1
 63 256 l 1,19,-1
 128 256 l 1,20,-1
 128 319 l 1,21,22
 129 319 129 319 193 319 c 1,23,-1
 193 384 l 1,24,-1
 256 384 l 1,25,26
 256 385 256 385 256 449 c 1,27,-1
 319 449 l 1,28,-1
 319 512 l 1,29,-1
 384 512 l 1,30,-1
 384 575 l 1,31,32
 385 575 385 575 449 575 c 1,33,-1
 449 640 l 1,34,-1
 512 640 l 1,35,36
 512 641 512 641 512 705 c 1,37,-1
 575 705 l 1,38,-1
 575 768 l 1,39,-1
 705 768 l 1,40,-1
 705 705 l 1,41,-1
 768 705 l 1,42,-1
 768 575 l 1,43,-1
 705 575 l 1,44,-1
 705 512 l 1,45,-1
 640 512 l 1,46,-1
 640 449 l 1,47,48
 639 449 639 449 575 449 c 1,49,-1
 575 384 l 1,50,-1
 512 384 l 1,51,52
 512 383 512 383 512 319 c 1,53,-1
 449 319 l 1,54,-1
 449 256 l 1,55,-1
 384 256 l 1,56,-1
 384 193 l 1,57,58
 383 193 383 193 319 193 c 1,59,-1
 319 128 l 1,60,-1
 256 128 l 1,61,62
 256 127 256 127 256 63 c 1,63,-1
 193 63 l 1,64,-1
 193 0 l 1,13,-1
640 128 m 1,65,66
 640 129 640 129 640 193 c 1,67,68
 639 193 639 193 575 193 c 1,69,-1
 575 128 l 1,70,-1
 640 128 l 1,65,66
256 449 m 1,71,-1
 128 449 l 1,72,-1
 128 575 l 1,73,-1
 0 575 l 1,74,-1
 0 640 l 1,75,-1
 63 640 l 1,76,77
 63 641 63 641 63 705 c 1,78,-1
 128 705 l 1,79,-1
 128 768 l 1,80,-1
 256 768 l 1,81,-1
 256 449 l 1,71,-1
EndSplineSet
Validated: 37
EndChar

StartChar: onehalf
Encoding: 189 189 127
Width: 896
GlyphClass: 1
Flags: W
LayerCount: 2
Fore
SplineSet
705 63 m 1,0,-1
 831 63 l 1,1,-1
 831 0 l 1,2,-1
 512 0 l 1,3,-1
 512 63 l 1,4,-1
 575 63 l 1,5,-1
 575 128 l 1,6,-1
 640 128 l 1,7,8
 640 129 640 129 640 193 c 1,9,-1
 512 193 l 1,10,-1
 512 319 l 1,11,-1
 575 319 l 1,12,-1
 575 384 l 1,13,-1
 768 384 l 1,14,15
 768 383 768 383 768 319 c 1,16,-1
 831 319 l 1,17,-1
 831 193 l 1,18,-1
 768 193 l 1,19,-1
 768 128 l 1,20,-1
 705 128 l 1,21,-1
 705 63 l 1,0,-1
193 0 m 1,22,-1
 63 0 l 1,23,-1
 63 63 l 1,24,-1
 0 63 l 1,25,-1
 0 193 l 1,26,-1
 63 193 l 1,27,-1
 63 256 l 1,28,-1
 128 256 l 1,29,-1
 128 319 l 1,30,31
 129 319 129 319 193 319 c 1,32,-1
 193 384 l 1,33,-1
 256 384 l 1,34,35
 256 385 256 385 256 449 c 1,36,-1
 319 449 l 1,37,-1
 319 512 l 1,38,-1
 384 512 l 1,39,-1
 384 575 l 1,40,41
 385 575 385 575 449 575 c 1,42,-1
 449 640 l 1,43,-1
 512 640 l 1,44,45
 512 641 512 641 512 705 c 1,46,-1
 575 705 l 1,47,-1
 575 768 l 1,48,-1
 705 768 l 1,49,-1
 705 705 l 1,50,-1
 768 705 l 1,51,-1
 768 575 l 1,52,-1
 705 575 l 1,53,-1
 705 512 l 1,54,-1
 640 512 l 1,55,-1
 640 449 l 1,56,57
 639 449 639 449 575 449 c 1,58,-1
 575 384 l 1,59,-1
 512 384 l 1,60,61
 512 383 512 383 512 319 c 1,62,-1
 449 319 l 1,63,-1
 449 256 l 1,64,-1
 384 256 l 1,65,-1
 384 193 l 1,66,67
 383 193 383 193 319 193 c 1,68,-1
 319 128 l 1,69,-1
 256 128 l 1,70,71
 256 127 256 127 256 63 c 1,72,-1
 193 63 l 1,73,-1
 193 0 l 1,22,-1
705 193 m 1,74,-1
 705 256 l 1,75,-1
 640 256 l 1,76,-1
 640 193 l 1,77,-1
 705 193 l 1,74,-1
256 449 m 1,78,-1
 128 449 l 1,79,-1
 128 575 l 1,80,-1
 0 575 l 1,81,-1
 0 640 l 1,82,-1
 63 640 l 1,83,84
 63 641 63 641 63 705 c 1,85,-1
 128 705 l 1,86,-1
 128 768 l 1,87,-1
 256 768 l 1,88,-1
 256 449 l 1,78,-1
EndSplineSet
Validated: 5
EndChar

StartChar: threequarters
Encoding: 190 190 128
Width: 831
GlyphClass: 1
Flags: W
LayerCount: 2
Fore
SplineSet
768 0 m 1,0,-1
 640 0 l 1,1,-1
 640 63 l 1,2,3
 641 63 641 63 449 63 c 1,4,-1
 449 193 l 1,5,-1
 512 193 l 1,6,-1
 512 256 l 1,7,-1
 575 256 l 1,8,-1
 575 319 l 1,9,-1
 640 319 l 1,10,-1
 640 384 l 1,11,-1
 768 384 l 1,12,-1
 768 0 l 1,0,-1
193 0 m 1,13,-1
 63 0 l 1,14,-1
 63 63 l 1,15,-1
 0 63 l 1,16,-1
 0 193 l 1,17,-1
 63 193 l 1,18,-1
 63 256 l 1,19,-1
 128 256 l 1,20,-1
 128 319 l 1,21,22
 129 319 129 319 193 319 c 1,23,-1
 193 384 l 1,24,-1
 256 384 l 1,25,26
 256 385 256 385 256 449 c 1,27,-1
 319 449 l 1,28,-1
 319 512 l 1,29,-1
 384 512 l 1,30,-1
 384 575 l 1,31,32
 385 575 385 575 449 575 c 1,33,-1
 449 640 l 1,34,-1
 512 640 l 1,35,36
 512 641 512 641 512 705 c 1,37,-1
 575 705 l 1,38,-1
 575 768 l 1,39,-1
 705 768 l 1,40,-1
 705 705 l 1,41,-1
 768 705 l 1,42,-1
 768 575 l 1,43,-1
 705 575 l 1,44,-1
 705 512 l 1,45,-1
 640 512 l 1,46,-1
 640 449 l 1,47,48
 639 449 639 449 575 449 c 1,49,-1
 575 384 l 1,50,-1
 512 384 l 1,51,52
 512 383 512 383 512 319 c 1,53,-1
 449 319 l 1,54,-1
 449 256 l 1,55,-1
 384 256 l 1,56,-1
 384 193 l 1,57,58
 383 193 383 193 319 193 c 1,59,-1
 319 128 l 1,60,-1
 256 128 l 1,61,62
 256 127 256 127 256 63 c 1,63,-1
 193 63 l 1,64,-1
 193 0 l 1,13,-1
640 128 m 1,65,66
 640 129 640 129 640 193 c 1,67,68
 639 193 639 193 575 193 c 1,69,-1
 575 128 l 1,70,-1
 640 128 l 1,65,66
193 384 m 1,71,-1
 0 384 l 1,72,-1
 0 512 l 1,73,-1
 63 512 l 1,74,-1
 63 449 l 1,75,-1
 128 449 l 1,76,-1
 128 575 l 1,77,78
 129 575 129 575 193 575 c 1,79,-1
 193 705 l 1,80,-1
 63 705 l 1,81,-1
 63 768 l 1,82,-1
 256 768 l 1,83,-1
 256 705 l 1,84,-1
 319 705 l 1,85,-1
 319 575 l 1,86,-1
 256 575 l 1,87,-1
 256 449 l 1,88,-1
 193 449 l 1,89,-1
 193 384 l 1,71,-1
128 575 m 1,90,91
 127 575 127 575 63 575 c 1,92,-1
 63 640 l 1,93,-1
 128 640 l 1,94,-1
 128 575 l 1,90,91
EndSplineSet
Validated: 37
EndChar

StartChar: questiondown
Encoding: 191 191 129
Width: 768
GlyphClass: 1
Flags: W
LayerCount: 2
Fore
SplineSet
575 -256 m 1,0,-1
 128 -256 l 1,1,-1
 128 -193 l 1,2,3
 127 -193 127 -193 63 -193 c 1,4,-1
 63 -128 l 1,5,-1
 0 -128 l 1,6,-1
 0 128 l 1,7,-1
 63 128 l 1,8,9
 63 129 63 129 63 193 c 1,10,-1
 193 193 l 1,11,-1
 193 319 l 1,12,-1
 256 319 l 1,13,-1
 256 449 l 1,14,-1
 449 449 l 1,15,-1
 449 384 l 1,16,-1
 512 384 l 1,17,18
 512 385 512 385 512 193 c 1,19,-1
 449 193 l 1,20,-1
 449 128 l 1,21,-1
 319 128 l 1,22,23
 319 127 319 127 319 63 c 1,24,-1
 256 63 l 1,25,-1
 256 -63 l 1,26,-1
 449 -63 l 1,27,-1
 449 0 l 1,28,-1
 512 0 l 1,29,-1
 512 128 l 1,30,-1
 640 128 l 1,31,32
 640 127 640 127 640 63 c 1,33,34
 641 63 641 63 705 63 c 1,35,-1
 705 -128 l 1,36,-1
 640 -128 l 1,37,38
 640 -129 640 -129 640 -193 c 1,39,40
 639 -193 639 -193 575 -193 c 1,41,-1
 575 -256 l 1,0,-1
449 512 m 1,42,-1
 256 512 l 1,43,-1
 256 705 l 1,44,-1
 449 705 l 1,45,-1
 449 512 l 1,42,-1
EndSplineSet
Validated: 33
EndChar

StartChar: Agrave
Encoding: 192 192 130
Width: 768
GlyphClass: 1
Flags: W
LayerCount: 2
Fore
SplineSet
449 896 m 1,0,-1
 256 896 l 1,1,2
 256 897 256 897 256 961 c 1,3,-1
 193 961 l 1,4,-1
 193 1152 l 1,5,-1
 384 1152 l 1,6,-1
 384 1024 l 1,7,8
 385 1024 385 1024 449 1024 c 1,9,-1
 449 896 l 1,0,-1
705 0 m 1,10,-1
 449 0 l 1,11,-1
 449 256 l 1,12,-1
 256 256 l 1,13,-1
 256 0 l 1,14,-1
 0 0 l 1,15,-1
 0 768 l 1,16,-1
 63 768 l 1,17,-1
 63 831 l 1,18,-1
 640 831 l 1,19,-1
 640 768 l 1,20,21
 641 768 641 768 705 768 c 1,22,-1
 705 0 l 1,10,-1
256 449 m 1,23,-1
 449 449 l 1,24,-1
 449 640 l 1,25,-1
 256 640 l 1,26,-1
 256 449 l 1,23,-1
EndSplineSet
Validated: 1
EndChar

StartChar: Aacute
Encoding: 193 193 131
Width: 768
GlyphClass: 1
Flags: W
LayerCount: 2
Fore
SplineSet
449 896 m 1,0,-1
 256 896 l 1,1,-1
 256 1024 l 1,2,-1
 319 1024 l 1,3,-1
 319 1152 l 1,4,-1
 512 1152 l 1,5,6
 512 1153 512 1153 512 961 c 1,7,-1
 449 961 l 1,8,-1
 449 896 l 1,0,-1
705 0 m 1,9,-1
 449 0 l 1,10,-1
 449 256 l 1,11,-1
 256 256 l 1,12,-1
 256 0 l 1,13,-1
 0 0 l 1,14,-1
 0 768 l 1,15,-1
 63 768 l 1,16,-1
 63 831 l 1,17,-1
 640 831 l 1,18,-1
 640 768 l 1,19,20
 641 768 641 768 705 768 c 1,21,-1
 705 0 l 1,9,-1
256 449 m 1,22,-1
 449 449 l 1,23,-1
 449 640 l 1,24,-1
 256 640 l 1,25,-1
 256 449 l 1,22,-1
EndSplineSet
Validated: 33
EndChar

StartChar: Acircumflex
Encoding: 194 194 132
Width: 768
GlyphClass: 1
Flags: W
LayerCount: 2
Fore
SplineSet
575 896 m 1,0,-1
 449 896 l 1,1,2
 449 897 449 897 449 961 c 1,3,-1
 384 961 l 1,4,-1
 384 1024 l 1,5,6
 383 1024 383 1024 319 1024 c 1,7,-1
 319 961 l 1,8,-1
 256 961 l 1,9,-1
 256 896 l 1,10,-1
 128 896 l 1,11,-1
 128 1024 l 1,12,13
 129 1024 129 1024 193 1024 c 1,14,-1
 193 1087 l 1,15,-1
 256 1087 l 1,16,-1
 256 1152 l 1,17,-1
 449 1152 l 1,18,19
 449 1151 449 1151 449 1087 c 1,20,-1
 512 1087 l 1,21,-1
 512 1024 l 1,22,-1
 575 1024 l 1,23,-1
 575 896 l 1,0,-1
705 0 m 1,24,-1
 449 0 l 1,25,-1
 449 256 l 1,26,-1
 256 256 l 1,27,-1
 256 0 l 1,28,-1
 0 0 l 1,29,-1
 0 768 l 1,30,-1
 63 768 l 1,31,-1
 63 831 l 1,32,-1
 640 831 l 1,33,-1
 640 768 l 1,34,35
 641 768 641 768 705 768 c 1,36,-1
 705 0 l 1,24,-1
256 449 m 1,37,-1
 449 449 l 1,38,-1
 449 640 l 1,39,-1
 256 640 l 1,40,-1
 256 449 l 1,37,-1
EndSplineSet
Validated: 1
EndChar

StartChar: Atilde
Encoding: 195 195 133
Width: 768
GlyphClass: 1
Flags: W
LayerCount: 2
Fore
SplineSet
575 896 m 1,0,-1
 319 896 l 1,1,2
 319 897 319 897 319 961 c 1,3,-1
 193 961 l 1,4,-1
 193 896 l 1,5,-1
 63 896 l 1,6,-1
 63 1024 l 1,7,-1
 128 1024 l 1,8,-1
 128 1087 l 1,9,-1
 384 1087 l 1,10,-1
 384 1024 l 1,11,-1
 512 1024 l 1,12,-1
 512 1087 l 1,13,-1
 640 1087 l 1,14,-1
 640 961 l 1,15,16
 639 961 639 961 575 961 c 1,17,-1
 575 896 l 1,0,-1
705 0 m 1,18,-1
 449 0 l 1,19,-1
 449 256 l 1,20,-1
 256 256 l 1,21,-1
 256 0 l 1,22,-1
 0 0 l 1,23,-1
 0 768 l 1,24,-1
 63 768 l 1,25,-1
 63 831 l 1,26,-1
 640 831 l 1,27,-1
 640 768 l 1,28,29
 641 768 641 768 705 768 c 1,30,-1
 705 0 l 1,18,-1
256 449 m 1,31,-1
 449 449 l 1,32,-1
 449 640 l 1,33,-1
 256 640 l 1,34,-1
 256 449 l 1,31,-1
EndSplineSet
Validated: 1
EndChar

StartChar: Adieresis
Encoding: 196 196 134
Width: 768
GlyphClass: 1
Flags: W
LayerCount: 2
Fore
SplineSet
705 0 m 1,0,-1
 449 0 l 1,1,-1
 449 256 l 1,2,-1
 256 256 l 1,3,-1
 256 0 l 1,4,-1
 0 0 l 1,5,-1
 0 768 l 1,6,-1
 63 768 l 1,7,-1
 63 831 l 1,8,-1
 640 831 l 1,9,-1
 640 768 l 1,10,11
 641 768 641 768 705 768 c 1,12,-1
 705 0 l 1,0,-1
256 449 m 1,13,-1
 449 449 l 1,14,-1
 449 640 l 1,15,-1
 256 640 l 1,16,-1
 256 449 l 1,13,-1
512 896 m 1,17,-1
 384 896 l 1,18,-1
 384 1024 l 1,19,-1
 512 1024 l 1,20,-1
 512 896 l 1,17,-1
319 896 m 1,21,-1
 193 896 l 1,22,-1
 193 1024 l 1,23,-1
 319 1024 l 1,24,-1
 319 896 l 1,21,-1
EndSplineSet
Validated: 1
EndChar

StartChar: Aring
Encoding: 197 197 135
Width: 768
GlyphClass: 1
Flags: W
LayerCount: 2
Fore
SplineSet
449 896 m 1,0,-1
 256 896 l 1,1,2
 256 897 256 897 256 961 c 1,3,-1
 193 961 l 1,4,-1
 193 1087 l 1,5,-1
 256 1087 l 1,6,-1
 256 1152 l 1,7,-1
 449 1152 l 1,8,9
 449 1151 449 1151 449 1087 c 1,10,-1
 512 1087 l 1,11,-1
 512 961 l 1,12,-1
 449 961 l 1,13,-1
 449 896 l 1,0,-1
384 961 m 1,14,-1
 384 1087 l 1,15,16
 383 1087 383 1087 319 1087 c 1,17,-1
 319 961 l 1,18,-1
 384 961 l 1,14,-1
63 831 m 1,19,-1
 640 831 l 1,20,-1
 640 768 l 1,21,22
 641 768 641 768 705 768 c 1,23,-1
 705 0 l 1,24,-1
 449 0 l 1,25,-1
 449 256 l 1,26,-1
 256 256 l 1,27,-1
 256 0 l 1,28,-1
 0 0 l 1,29,-1
 0 768 l 1,30,-1
 63 768 l 1,31,-1
 63 831 l 1,19,-1
256 449 m 1,32,-1
 449 449 l 1,33,-1
 449 640 l 1,34,-1
 256 640 l 1,35,-1
 256 449 l 1,32,-1
EndSplineSet
Validated: 1
EndChar

StartChar: AE
Encoding: 198 198 136
Width: 1024
GlyphClass: 1
Flags: W
LayerCount: 2
Fore
SplineSet
1024 0 m 1,0,-1
 449 0 l 1,1,-1
 449 256 l 1,2,-1
 256 256 l 1,3,-1
 256 0 l 1,4,-1
 0 0 l 1,5,-1
 0 768 l 1,6,-1
 63 768 l 1,7,-1
 63 831 l 1,8,-1
 1024 831 l 1,9,-1
 1024 640 l 1,10,-1
 705 640 l 1,11,-1
 705 512 l 1,12,-1
 961 512 l 1,13,-1
 961 319 l 1,14,-1
 705 319 l 1,15,-1
 705 193 l 1,16,-1
 1024 193 l 1,17,-1
 1024 0 l 1,0,-1
256 449 m 1,18,-1
 449 449 l 1,19,-1
 449 640 l 1,20,-1
 256 640 l 1,21,-1
 256 449 l 1,18,-1
EndSplineSet
Validated: 1
EndChar

StartChar: Ccedilla
Encoding: 199 199 137
Width: 831
GlyphClass: 1
Flags: W
LayerCount: 2
Fore
SplineSet
449 -193 m 1,0,-1
 319 -193 l 1,1,-1
 319 -128 l 1,2,-1
 256 -128 l 1,3,4
 256 -127 256 -127 256 -63 c 1,5,-1
 384 -63 l 1,6,-1
 384 0 l 1,7,8
 385 0 385 0 193 0 c 1,9,-1
 193 63 l 1,10,-1
 63 63 l 1,11,-1
 63 193 l 1,12,-1
 0 193 l 1,13,-1
 0 640 l 1,14,-1
 63 640 l 1,15,-1
 63 768 l 1,16,-1
 193 768 l 1,17,-1
 193 831 l 1,18,-1
 640 831 l 1,19,-1
 640 768 l 1,20,21
 641 768 641 768 705 768 c 1,22,-1
 705 705 l 1,23,-1
 768 705 l 1,24,-1
 768 512 l 1,25,-1
 575 512 l 1,26,-1
 575 575 l 1,27,-1
 512 575 l 1,28,-1
 512 640 l 1,29,-1
 319 640 l 1,30,-1
 319 512 l 1,31,-1
 256 512 l 1,32,-1
 256 319 l 1,33,-1
 319 319 l 1,34,-1
 319 193 l 1,35,-1
 575 193 l 1,36,-1
 575 319 l 1,37,-1
 768 319 l 1,38,-1
 768 128 l 1,39,-1
 705 128 l 1,40,41
 705 127 705 127 705 63 c 1,42,-1
 640 63 l 1,43,-1
 640 0 l 1,44,-1
 512 0 l 1,45,-1
 512 -128 l 1,46,-1
 449 -128 l 1,47,-1
 449 -193 l 1,0,-1
EndSplineSet
Validated: 33
EndChar

StartChar: Egrave
Encoding: 200 200 138
Width: 768
GlyphClass: 1
Flags: W
LayerCount: 2
Fore
SplineSet
449 896 m 1,0,-1
 256 896 l 1,1,2
 256 897 256 897 256 961 c 1,3,-1
 193 961 l 1,4,-1
 193 1152 l 1,5,-1
 384 1152 l 1,6,-1
 384 1024 l 1,7,8
 385 1024 385 1024 449 1024 c 1,9,-1
 449 896 l 1,0,-1
705 0 m 1,10,-1
 0 0 l 1,11,-1
 0 831 l 1,12,-1
 705 831 l 1,13,-1
 705 640 l 1,14,-1
 256 640 l 1,15,-1
 256 512 l 1,16,-1
 640 512 l 1,17,-1
 640 319 l 1,18,-1
 256 319 l 1,19,-1
 256 193 l 1,20,-1
 705 193 l 1,21,-1
 705 0 l 1,10,-1
EndSplineSet
Validated: 1
EndChar

StartChar: Eacute
Encoding: 201 201 139
Width: 768
GlyphClass: 1
Flags: W
LayerCount: 2
Fore
SplineSet
449 896 m 1,0,-1
 256 896 l 1,1,-1
 256 1024 l 1,2,-1
 319 1024 l 1,3,-1
 319 1152 l 1,4,-1
 512 1152 l 1,5,6
 512 1153 512 1153 512 961 c 1,7,-1
 449 961 l 1,8,-1
 449 896 l 1,0,-1
705 0 m 1,9,-1
 0 0 l 1,10,-1
 0 831 l 1,11,-1
 705 831 l 1,12,-1
 705 640 l 1,13,-1
 256 640 l 1,14,-1
 256 512 l 1,15,-1
 640 512 l 1,16,-1
 640 319 l 1,17,-1
 256 319 l 1,18,-1
 256 193 l 1,19,-1
 705 193 l 1,20,-1
 705 0 l 1,9,-1
EndSplineSet
Validated: 33
EndChar

StartChar: Ecircumflex
Encoding: 202 202 140
Width: 768
GlyphClass: 1
Flags: W
LayerCount: 2
Fore
SplineSet
575 896 m 1,0,-1
 449 896 l 1,1,2
 449 897 449 897 449 961 c 1,3,-1
 384 961 l 1,4,-1
 384 1024 l 1,5,6
 383 1024 383 1024 319 1024 c 1,7,-1
 319 961 l 1,8,-1
 256 961 l 1,9,-1
 256 896 l 1,10,-1
 128 896 l 1,11,-1
 128 1024 l 1,12,13
 129 1024 129 1024 193 1024 c 1,14,-1
 193 1087 l 1,15,-1
 256 1087 l 1,16,-1
 256 1152 l 1,17,-1
 449 1152 l 1,18,19
 449 1151 449 1151 449 1087 c 1,20,-1
 512 1087 l 1,21,-1
 512 1024 l 1,22,-1
 575 1024 l 1,23,-1
 575 896 l 1,0,-1
705 0 m 1,24,-1
 0 0 l 1,25,-1
 0 831 l 1,26,-1
 705 831 l 1,27,-1
 705 640 l 1,28,-1
 256 640 l 1,29,-1
 256 512 l 1,30,-1
 640 512 l 1,31,-1
 640 319 l 1,32,-1
 256 319 l 1,33,-1
 256 193 l 1,34,-1
 705 193 l 1,35,-1
 705 0 l 1,24,-1
EndSplineSet
Validated: 1
EndChar

StartChar: Edieresis
Encoding: 203 203 141
Width: 768
GlyphClass: 1
Flags: W
LayerCount: 2
Fore
SplineSet
705 0 m 1,0,-1
 0 0 l 1,1,-1
 0 831 l 1,2,-1
 705 831 l 1,3,-1
 705 640 l 1,4,-1
 256 640 l 1,5,-1
 256 512 l 1,6,-1
 640 512 l 1,7,-1
 640 319 l 1,8,-1
 256 319 l 1,9,-1
 256 193 l 1,10,-1
 705 193 l 1,11,-1
 705 0 l 1,0,-1
512 896 m 1,12,-1
 384 896 l 1,13,-1
 384 1024 l 1,14,-1
 512 1024 l 1,15,-1
 512 896 l 1,12,-1
319 896 m 1,16,-1
 193 896 l 1,17,-1
 193 1024 l 1,18,-1
 319 1024 l 1,19,-1
 319 896 l 1,16,-1
EndSplineSet
Validated: 1
EndChar

StartChar: Igrave
Encoding: 204 204 142
Width: 319
GlyphClass: 1
Flags: W
LayerCount: 2
Fore
SplineSet
256 896 m 1,0,-1
 63 896 l 1,1,2
 63 897 63 897 63 961 c 1,3,-1
 0 961 l 1,4,-1
 0 1152 l 1,5,-1
 193 1152 l 1,6,-1
 193 1024 l 1,7,-1
 256 1024 l 1,8,-1
 256 896 l 1,0,-1
256 0 m 1,9,-1
 0 0 l 1,10,-1
 0 831 l 1,11,-1
 256 831 l 1,12,-1
 256 0 l 1,9,-1
EndSplineSet
Validated: 1
EndChar

StartChar: Iacute
Encoding: 205 205 143
Width: 319
GlyphClass: 1
Flags: W
LayerCount: 2
Fore
SplineSet
193 896 m 1,0,-1
 0 896 l 1,1,-1
 0 1024 l 1,2,-1
 63 1024 l 1,3,-1
 63 1152 l 1,4,-1
 256 1152 l 1,5,6
 256 1153 256 1153 256 961 c 1,7,-1
 193 961 l 1,8,-1
 193 896 l 1,0,-1
256 0 m 1,9,-1
 0 0 l 1,10,-1
 0 831 l 1,11,-1
 256 831 l 1,12,-1
 256 0 l 1,9,-1
EndSplineSet
Validated: 33
EndChar

StartChar: Icircumflex
Encoding: 206 206 144
Width: 319
GlyphClass: 1
Flags: W
LayerCount: 2
Fore
SplineSet
384 896 m 1,0,-1
 256 896 l 1,1,2
 256 897 256 897 256 961 c 1,3,-1
 193 961 l 1,4,-1
 193 1024 l 1,5,-1
 63 1024 l 1,6,-1
 63 961 l 1,7,-1
 0 961 l 1,8,-1
 0 896 l 1,9,-1
 -128 896 l 1,10,-1
 -128 1024 l 1,11,12
 -127 1024 -127 1024 -63 1024 c 1,13,-1
 -63 1087 l 1,14,-1
 0 1087 l 1,15,-1
 0 1152 l 1,16,-1
 256 1152 l 1,17,18
 256 1151 256 1151 256 1087 c 1,19,-1
 319 1087 l 1,20,-1
 319 1024 l 1,21,-1
 384 1024 l 1,22,-1
 384 896 l 1,0,-1
256 0 m 1,23,-1
 0 0 l 1,24,-1
 0 831 l 1,25,-1
 256 831 l 1,26,-1
 256 0 l 1,23,-1
EndSplineSet
Validated: 1
EndChar

StartChar: Idieresis
Encoding: 207 207 145
Width: 384
GlyphClass: 1
Flags: W
LayerCount: 2
Fore
SplineSet
256 0 m 1,0,-1
 0 0 l 1,1,-1
 0 831 l 1,2,-1
 256 831 l 1,3,-1
 256 0 l 1,0,-1
319 896 m 1,4,-1
 193 896 l 1,5,-1
 193 1024 l 1,6,-1
 319 1024 l 1,7,-1
 319 896 l 1,4,-1
63 896 m 1,8,-1
 -63 896 l 1,9,-1
 -63 1024 l 1,10,-1
 63 1024 l 1,11,-1
 63 896 l 1,8,-1
EndSplineSet
Validated: 1
EndChar

StartChar: Eth
Encoding: 208 208 146
Width: 831
GlyphClass: 1
Flags: W
LayerCount: 2
Fore
SplineSet
640 0 m 1,0,-1
 0 0 l 1,1,-1
 0 319 l 1,2,-1
 -63 319 l 1,3,-1
 -63 512 l 1,4,-1
 0 512 l 1,5,-1
 0 831 l 1,6,-1
 640 831 l 1,7,-1
 640 768 l 1,8,9
 641 768 641 768 705 768 c 1,10,-1
 705 640 l 1,11,-1
 768 640 l 1,12,13
 768 641 768 641 768 193 c 1,14,-1
 705 193 l 1,15,-1
 705 63 l 1,16,-1
 640 63 l 1,17,-1
 640 0 l 1,0,-1
256 193 m 1,18,-1
 512 193 l 1,19,-1
 512 256 l 1,20,-1
 575 256 l 1,21,-1
 575 575 l 1,22,-1
 512 575 l 1,23,-1
 512 640 l 1,24,-1
 256 640 l 1,25,-1
 256 512 l 1,26,-1
 449 512 l 1,27,-1
 449 319 l 1,28,-1
 256 319 l 1,29,-1
 256 193 l 1,18,-1
EndSplineSet
Validated: 33
EndChar

StartChar: Ntilde
Encoding: 209 209 147
Width: 896
GlyphClass: 1
Flags: W
LayerCount: 2
Fore
SplineSet
640 896 m 1,0,-1
 384 896 l 1,1,2
 384 897 384 897 384 961 c 1,3,-1
 256 961 l 1,4,-1
 256 896 l 1,5,-1
 128 896 l 1,6,-1
 128 1024 l 1,7,8
 129 1024 129 1024 193 1024 c 1,9,-1
 193 1087 l 1,10,-1
 449 1087 l 1,11,-1
 449 1024 l 1,12,-1
 575 1024 l 1,13,-1
 575 1087 l 1,14,-1
 705 1087 l 1,15,-1
 705 961 l 1,16,-1
 640 961 l 1,17,-1
 640 896 l 1,0,-1
831 0 m 1,18,-1
 512 0 l 1,19,-1
 512 63 l 1,20,-1
 449 63 l 1,21,-1
 449 193 l 1,22,-1
 384 193 l 1,23,-1
 384 319 l 1,24,25
 383 319 383 319 319 319 c 1,26,-1
 319 449 l 1,27,-1
 256 449 l 1,28,-1
 256 0 l 1,29,-1
 0 0 l 1,30,-1
 0 831 l 1,31,-1
 384 831 l 1,32,-1
 384 705 l 1,33,34
 385 705 385 705 449 705 c 1,35,-1
 449 575 l 1,36,-1
 512 575 l 1,37,-1
 512 449 l 1,38,-1
 575 449 l 1,39,-1
 575 831 l 1,40,-1
 831 831 l 1,41,-1
 831 0 l 1,18,-1
EndSplineSet
Validated: 1
EndChar

StartChar: Ograve
Encoding: 210 210 148
Width: 896
GlyphClass: 1
Flags: W
LayerCount: 2
Fore
SplineSet
640 0 m 1,0,1
 641 0 641 0 193 0 c 1,2,-1
 193 63 l 1,3,-1
 63 63 l 1,4,-1
 63 128 l 1,5,-1
 0 128 l 1,6,7
 0 129 0 129 0 705 c 1,8,-1
 63 705 l 1,9,-1
 63 768 l 1,10,-1
 193 768 l 1,11,-1
 193 831 l 1,12,-1
 640 831 l 1,13,-1
 640 768 l 1,14,-1
 768 768 l 1,15,-1
 768 705 l 1,16,-1
 831 705 l 1,17,-1
 831 128 l 1,18,-1
 768 128 l 1,19,20
 768 127 768 127 768 63 c 1,21,-1
 640 63 l 1,22,-1
 640 0 l 1,0,1
319 193 m 1,23,-1
 512 193 l 1,24,-1
 512 256 l 1,25,-1
 575 256 l 1,26,-1
 575 575 l 1,27,-1
 512 575 l 1,28,-1
 512 640 l 1,29,-1
 319 640 l 1,30,31
 319 639 319 639 319 575 c 1,32,-1
 256 575 l 1,33,-1
 256 256 l 1,34,-1
 319 256 l 1,35,-1
 319 193 l 1,23,-1
512 896 m 1,36,-1
 319 896 l 1,37,38
 319 897 319 897 319 961 c 1,39,-1
 256 961 l 1,40,-1
 256 1152 l 1,41,-1
 449 1152 l 1,42,-1
 449 1024 l 1,43,-1
 512 1024 l 1,44,-1
 512 896 l 1,36,-1
EndSplineSet
Validated: 33
EndChar

StartChar: Oacute
Encoding: 211 211 149
Width: 896
GlyphClass: 1
Flags: W
LayerCount: 2
Fore
SplineSet
640 0 m 1,0,1
 641 0 641 0 193 0 c 1,2,-1
 193 63 l 1,3,-1
 63 63 l 1,4,-1
 63 128 l 1,5,-1
 0 128 l 1,6,7
 0 129 0 129 0 705 c 1,8,-1
 63 705 l 1,9,-1
 63 768 l 1,10,-1
 193 768 l 1,11,-1
 193 831 l 1,12,-1
 640 831 l 1,13,-1
 640 768 l 1,14,-1
 768 768 l 1,15,-1
 768 705 l 1,16,-1
 831 705 l 1,17,-1
 831 128 l 1,18,-1
 768 128 l 1,19,20
 768 127 768 127 768 63 c 1,21,-1
 640 63 l 1,22,-1
 640 0 l 1,0,1
319 193 m 1,23,-1
 512 193 l 1,24,-1
 512 256 l 1,25,-1
 575 256 l 1,26,-1
 575 575 l 1,27,-1
 512 575 l 1,28,-1
 512 640 l 1,29,-1
 319 640 l 1,30,31
 319 639 319 639 319 575 c 1,32,-1
 256 575 l 1,33,-1
 256 256 l 1,34,-1
 319 256 l 1,35,-1
 319 193 l 1,23,-1
449 896 m 1,36,-1
 256 896 l 1,37,-1
 256 1024 l 1,38,-1
 319 1024 l 1,39,-1
 319 1152 l 1,40,-1
 512 1152 l 1,41,42
 512 1153 512 1153 512 961 c 1,43,-1
 449 961 l 1,44,-1
 449 896 l 1,36,-1
EndSplineSet
Validated: 33
EndChar

StartChar: Ocircumflex
Encoding: 212 212 150
Width: 896
GlyphClass: 1
Flags: W
LayerCount: 2
Fore
SplineSet
640 0 m 1,0,1
 641 0 641 0 193 0 c 1,2,-1
 193 63 l 1,3,-1
 63 63 l 1,4,-1
 63 128 l 1,5,-1
 0 128 l 1,6,7
 0 129 0 129 0 705 c 1,8,-1
 63 705 l 1,9,-1
 63 768 l 1,10,-1
 193 768 l 1,11,-1
 193 831 l 1,12,-1
 640 831 l 1,13,-1
 640 768 l 1,14,-1
 768 768 l 1,15,-1
 768 705 l 1,16,-1
 831 705 l 1,17,-1
 831 128 l 1,18,-1
 768 128 l 1,19,20
 768 127 768 127 768 63 c 1,21,-1
 640 63 l 1,22,-1
 640 0 l 1,0,1
319 193 m 1,23,-1
 512 193 l 1,24,-1
 512 256 l 1,25,-1
 575 256 l 1,26,-1
 575 575 l 1,27,-1
 512 575 l 1,28,-1
 512 640 l 1,29,-1
 319 640 l 1,30,31
 319 639 319 639 319 575 c 1,32,-1
 256 575 l 1,33,-1
 256 256 l 1,34,-1
 319 256 l 1,35,-1
 319 193 l 1,23,-1
640 896 m 1,36,-1
 512 896 l 1,37,38
 512 897 512 897 512 961 c 1,39,-1
 449 961 l 1,40,-1
 449 1024 l 1,41,-1
 384 1024 l 1,42,-1
 384 961 l 1,43,44
 383 961 383 961 319 961 c 1,45,-1
 319 896 l 1,46,-1
 193 896 l 1,47,-1
 193 1024 l 1,48,-1
 256 1024 l 1,49,-1
 256 1087 l 1,50,-1
 319 1087 l 1,51,-1
 319 1152 l 1,52,-1
 512 1152 l 1,53,54
 512 1151 512 1151 512 1087 c 1,55,-1
 575 1087 l 1,56,-1
 575 1024 l 1,57,-1
 640 1024 l 1,58,-1
 640 896 l 1,36,-1
EndSplineSet
Validated: 33
EndChar

StartChar: Otilde
Encoding: 213 213 151
Width: 896
GlyphClass: 1
Flags: W
LayerCount: 2
Fore
SplineSet
640 0 m 1,0,1
 641 0 641 0 193 0 c 1,2,-1
 193 63 l 1,3,-1
 63 63 l 1,4,-1
 63 128 l 1,5,-1
 0 128 l 1,6,7
 0 129 0 129 0 705 c 1,8,-1
 63 705 l 1,9,-1
 63 768 l 1,10,-1
 193 768 l 1,11,-1
 193 831 l 1,12,-1
 640 831 l 1,13,-1
 640 768 l 1,14,-1
 768 768 l 1,15,-1
 768 705 l 1,16,-1
 831 705 l 1,17,-1
 831 128 l 1,18,-1
 768 128 l 1,19,20
 768 127 768 127 768 63 c 1,21,-1
 640 63 l 1,22,-1
 640 0 l 1,0,1
319 193 m 1,23,-1
 512 193 l 1,24,-1
 512 256 l 1,25,-1
 575 256 l 1,26,-1
 575 575 l 1,27,-1
 512 575 l 1,28,-1
 512 640 l 1,29,-1
 319 640 l 1,30,31
 319 639 319 639 319 575 c 1,32,-1
 256 575 l 1,33,-1
 256 256 l 1,34,-1
 319 256 l 1,35,-1
 319 193 l 1,23,-1
640 896 m 1,36,-1
 384 896 l 1,37,38
 384 897 384 897 384 961 c 1,39,-1
 256 961 l 1,40,-1
 256 896 l 1,41,-1
 128 896 l 1,42,-1
 128 1024 l 1,43,44
 129 1024 129 1024 193 1024 c 1,45,-1
 193 1087 l 1,46,-1
 449 1087 l 1,47,-1
 449 1024 l 1,48,-1
 575 1024 l 1,49,-1
 575 1087 l 1,50,-1
 705 1087 l 1,51,-1
 705 961 l 1,52,-1
 640 961 l 1,53,-1
 640 896 l 1,36,-1
EndSplineSet
Validated: 33
EndChar

StartChar: Odieresis
Encoding: 214 214 152
Width: 896
GlyphClass: 1
Flags: W
LayerCount: 2
Fore
SplineSet
640 0 m 1,0,1
 641 0 641 0 193 0 c 1,2,-1
 193 63 l 1,3,-1
 63 63 l 1,4,-1
 63 128 l 1,5,-1
 0 128 l 1,6,7
 0 129 0 129 0 705 c 1,8,-1
 63 705 l 1,9,-1
 63 768 l 1,10,-1
 193 768 l 1,11,-1
 193 831 l 1,12,-1
 640 831 l 1,13,-1
 640 768 l 1,14,-1
 768 768 l 1,15,-1
 768 705 l 1,16,-1
 831 705 l 1,17,-1
 831 128 l 1,18,-1
 768 128 l 1,19,20
 768 127 768 127 768 63 c 1,21,-1
 640 63 l 1,22,-1
 640 0 l 1,0,1
319 193 m 1,23,-1
 512 193 l 1,24,-1
 512 256 l 1,25,-1
 575 256 l 1,26,-1
 575 575 l 1,27,-1
 512 575 l 1,28,-1
 512 640 l 1,29,-1
 319 640 l 1,30,31
 319 639 319 639 319 575 c 1,32,-1
 256 575 l 1,33,-1
 256 256 l 1,34,-1
 319 256 l 1,35,-1
 319 193 l 1,23,-1
575 896 m 1,36,-1
 449 896 l 1,37,-1
 449 1024 l 1,38,-1
 575 1024 l 1,39,-1
 575 896 l 1,36,-1
384 896 m 1,40,-1
 256 896 l 1,41,-1
 256 1024 l 1,42,-1
 384 1024 l 1,43,-1
 384 896 l 1,40,-1
EndSplineSet
Validated: 33
EndChar

StartChar: multiply
Encoding: 215 215 153
Width: 575
GlyphClass: 1
Flags: W
LayerCount: 2
Fore
SplineSet
512 193 m 1,0,-1
 384 193 l 1,1,-1
 384 256 l 1,2,3
 383 256 383 256 319 256 c 1,4,-1
 319 319 l 1,5,-1
 256 319 l 1,6,-1
 256 256 l 1,7,-1
 193 256 l 1,8,-1
 193 193 l 1,9,-1
 63 193 l 1,10,-1
 63 319 l 1,11,-1
 128 319 l 1,12,-1
 128 384 l 1,13,14
 129 384 129 384 193 384 c 1,15,16
 193 385 193 385 193 449 c 1,17,-1
 128 449 l 1,18,-1
 128 512 l 1,19,20
 127 512 127 512 63 512 c 1,21,-1
 63 640 l 1,22,-1
 193 640 l 1,23,24
 193 639 193 639 193 575 c 1,25,-1
 256 575 l 1,26,-1
 256 512 l 1,27,-1
 319 512 l 1,28,-1
 319 575 l 1,29,-1
 384 575 l 1,30,-1
 384 640 l 1,31,-1
 512 640 l 1,32,-1
 512 512 l 1,33,-1
 449 512 l 1,34,-1
 449 449 l 1,35,-1
 384 449 l 1,36,-1
 384 384 l 1,37,38
 385 384 385 384 449 384 c 1,39,40
 449 383 449 383 449 319 c 1,41,-1
 512 319 l 1,42,-1
 512 193 l 1,0,-1
EndSplineSet
Validated: 1
EndChar

StartChar: Oslash
Encoding: 216 216 154
Width: 896
GlyphClass: 1
Flags: W
LayerCount: 2
Fore
SplineSet
640 0 m 1,0,1
 641 0 641 0 193 0 c 1,2,-1
 193 63 l 1,3,-1
 128 63 l 1,4,-1
 128 0 l 1,5,-1
 0 0 l 1,6,-1
 0 128 l 1,7,-1
 63 128 l 1,8,9
 63 129 63 129 63 193 c 1,10,-1
 0 193 l 1,11,-1
 0 705 l 1,12,-1
 63 705 l 1,13,-1
 63 768 l 1,14,-1
 193 768 l 1,15,-1
 193 831 l 1,16,-1
 640 831 l 1,17,-1
 640 768 l 1,18,19
 641 768 641 768 705 768 c 1,20,-1
 705 831 l 1,21,-1
 831 831 l 1,22,-1
 831 705 l 1,23,-1
 768 705 l 1,24,-1
 768 640 l 1,25,-1
 831 640 l 1,26,-1
 831 128 l 1,27,-1
 768 128 l 1,28,29
 768 127 768 127 768 63 c 1,30,-1
 640 63 l 1,31,-1
 640 0 l 1,0,1
319 193 m 1,32,-1
 512 193 l 1,33,-1
 512 256 l 1,34,-1
 575 256 l 1,35,-1
 575 449 l 1,36,-1
 512 449 l 1,37,-1
 512 384 l 1,38,-1
 449 384 l 1,39,40
 449 383 449 383 449 319 c 1,41,-1
 384 319 l 1,42,-1
 384 256 l 1,43,44
 383 256 383 256 319 256 c 1,45,-1
 319 193 l 1,32,-1
319 384 m 1,46,47
 319 385 319 385 319 449 c 1,48,-1
 384 449 l 1,49,-1
 384 512 l 1,50,51
 385 512 385 512 449 512 c 1,52,-1
 449 575 l 1,53,-1
 512 575 l 1,54,-1
 512 640 l 1,55,-1
 319 640 l 1,56,57
 319 639 319 639 319 575 c 1,58,-1
 256 575 l 1,59,-1
 256 384 l 1,60,-1
 319 384 l 1,46,47
EndSplineSet
Validated: 33
EndChar

StartChar: Ugrave
Encoding: 217 217 155
Width: 831
GlyphClass: 1
Flags: W
LayerCount: 2
Fore
SplineSet
449 896 m 1,0,-1
 256 896 l 1,1,2
 256 897 256 897 256 961 c 1,3,-1
 193 961 l 1,4,-1
 193 1152 l 1,5,-1
 384 1152 l 1,6,-1
 384 1024 l 1,7,8
 385 1024 385 1024 449 1024 c 1,9,-1
 449 896 l 1,0,-1
640 0 m 1,10,-1
 128 0 l 1,11,-1
 128 63 l 1,12,13
 127 63 127 63 63 63 c 1,14,-1
 63 128 l 1,15,-1
 0 128 l 1,16,17
 0 127 0 127 0 831 c 1,18,-1
 256 831 l 1,19,-1
 256 319 l 1,20,-1
 319 319 l 1,21,-1
 319 256 l 1,22,-1
 449 256 l 1,23,-1
 449 319 l 1,24,-1
 512 319 l 1,25,-1
 512 831 l 1,26,-1
 768 831 l 1,27,-1
 768 128 l 1,28,-1
 705 128 l 1,29,30
 705 127 705 127 705 63 c 1,31,-1
 640 63 l 1,32,-1
 640 0 l 1,10,-1
EndSplineSet
Validated: 33
EndChar

StartChar: Uacute
Encoding: 218 218 156
Width: 831
GlyphClass: 1
Flags: W
LayerCount: 2
Fore
SplineSet
449 896 m 1,0,-1
 256 896 l 1,1,-1
 256 1024 l 1,2,-1
 319 1024 l 1,3,-1
 319 1152 l 1,4,-1
 512 1152 l 1,5,6
 512 1153 512 1153 512 961 c 1,7,-1
 449 961 l 1,8,-1
 449 896 l 1,0,-1
640 0 m 1,9,-1
 128 0 l 1,10,-1
 128 63 l 1,11,12
 127 63 127 63 63 63 c 1,13,-1
 63 128 l 1,14,-1
 0 128 l 1,15,16
 0 127 0 127 0 831 c 1,17,-1
 256 831 l 1,18,-1
 256 319 l 1,19,-1
 319 319 l 1,20,-1
 319 256 l 1,21,-1
 449 256 l 1,22,-1
 449 319 l 1,23,-1
 512 319 l 1,24,-1
 512 831 l 1,25,-1
 768 831 l 1,26,-1
 768 128 l 1,27,-1
 705 128 l 1,28,29
 705 127 705 127 705 63 c 1,30,-1
 640 63 l 1,31,-1
 640 0 l 1,9,-1
EndSplineSet
Validated: 33
EndChar

StartChar: Ucircumflex
Encoding: 219 219 157
Width: 831
GlyphClass: 1
Flags: W
LayerCount: 2
Fore
SplineSet
640 896 m 1,0,-1
 512 896 l 1,1,2
 512 897 512 897 512 961 c 1,3,-1
 449 961 l 1,4,-1
 449 1024 l 1,5,-1
 319 1024 l 1,6,-1
 319 961 l 1,7,-1
 256 961 l 1,8,-1
 256 896 l 1,9,-1
 128 896 l 1,10,-1
 128 1024 l 1,11,12
 129 1024 129 1024 193 1024 c 1,13,-1
 193 1087 l 1,14,-1
 256 1087 l 1,15,-1
 256 1152 l 1,16,-1
 512 1152 l 1,17,18
 512 1151 512 1151 512 1087 c 1,19,-1
 575 1087 l 1,20,-1
 575 1024 l 1,21,-1
 640 1024 l 1,22,-1
 640 896 l 1,0,-1
640 0 m 1,23,-1
 128 0 l 1,24,-1
 128 63 l 1,25,26
 127 63 127 63 63 63 c 1,27,-1
 63 128 l 1,28,-1
 0 128 l 1,29,30
 0 127 0 127 0 831 c 1,31,-1
 256 831 l 1,32,-1
 256 319 l 1,33,-1
 319 319 l 1,34,-1
 319 256 l 1,35,-1
 449 256 l 1,36,-1
 449 319 l 1,37,-1
 512 319 l 1,38,-1
 512 831 l 1,39,-1
 768 831 l 1,40,-1
 768 128 l 1,41,-1
 705 128 l 1,42,43
 705 127 705 127 705 63 c 1,44,-1
 640 63 l 1,45,-1
 640 0 l 1,23,-1
EndSplineSet
Validated: 33
EndChar

StartChar: Udieresis
Encoding: 220 220 158
Width: 831
GlyphClass: 1
Flags: W
LayerCount: 2
Fore
SplineSet
640 0 m 1,0,-1
 128 0 l 1,1,-1
 128 63 l 1,2,3
 127 63 127 63 63 63 c 1,4,-1
 63 128 l 1,5,-1
 0 128 l 1,6,7
 0 127 0 127 0 831 c 1,8,-1
 256 831 l 1,9,-1
 256 319 l 1,10,-1
 319 319 l 1,11,-1
 319 256 l 1,12,-1
 449 256 l 1,13,-1
 449 319 l 1,14,-1
 512 319 l 1,15,-1
 512 831 l 1,16,-1
 768 831 l 1,17,-1
 768 128 l 1,18,-1
 705 128 l 1,19,20
 705 127 705 127 705 63 c 1,21,-1
 640 63 l 1,22,-1
 640 0 l 1,0,-1
575 896 m 1,23,-1
 449 896 l 1,24,-1
 449 1024 l 1,25,-1
 575 1024 l 1,26,-1
 575 896 l 1,23,-1
319 896 m 1,27,-1
 193 896 l 1,28,-1
 193 1024 l 1,29,-1
 319 1024 l 1,30,-1
 319 896 l 1,27,-1
EndSplineSet
Validated: 33
EndChar

StartChar: Yacute
Encoding: 221 221 159
Width: 959
GlyphClass: 1
Flags: W
LayerCount: 2
Fore
SplineSet
512 896 m 1,0,-1
 319 896 l 1,1,-1
 319 1024 l 1,2,-1
 384 1024 l 1,3,-1
 384 1152 l 1,4,5
 383 1152 383 1152 575 1152 c 1,6,7
 575 1153 575 1153 575 961 c 1,8,-1
 512 961 l 1,9,-1
 512 896 l 1,0,-1
575 0 m 1,10,-1
 319 0 l 1,11,-1
 319 319 l 1,12,-1
 256 319 l 1,13,-1
 256 384 l 1,14,-1
 193 384 l 1,15,16
 193 385 193 385 193 449 c 1,17,-1
 128 449 l 1,18,-1
 128 575 l 1,19,-1
 0 575 l 1,20,-1
 0 831 l 1,21,-1
 256 831 l 1,22,-1
 256 705 l 1,23,-1
 319 705 l 1,24,-1
 319 640 l 1,25,-1
 384 640 l 1,26,27
 384 639 384 639 384 575 c 1,28,-1
 512 575 l 1,29,-1
 512 640 l 1,30,-1
 575 640 l 1,31,32
 575 641 575 641 575 705 c 1,33,-1
 640 705 l 1,34,-1
 640 831 l 1,35,-1
 896 831 l 1,36,-1
 896 575 l 1,37,-1
 768 575 l 1,38,-1
 768 449 l 1,39,-1
 705 449 l 1,40,-1
 705 384 l 1,41,-1
 640 384 l 1,42,43
 640 383 640 383 640 319 c 1,44,45
 639 319 639 319 575 319 c 1,46,-1
 575 0 l 1,10,-1
EndSplineSet
Validated: 33
EndChar

StartChar: Thorn
Encoding: 222 222 160
Width: 768
GlyphClass: 1
Flags: W
LayerCount: 2
Fore
SplineSet
193 0 m 1,0,-1
 0 0 l 1,1,-1
 0 831 l 1,2,-1
 193 831 l 1,3,-1
 193 705 l 1,4,-1
 512 705 l 1,5,-1
 512 640 l 1,6,-1
 640 640 l 1,7,8
 640 639 640 639 640 575 c 1,9,10
 641 575 641 575 705 575 c 1,11,-1
 705 256 l 1,12,-1
 640 256 l 1,13,-1
 640 193 l 1,14,-1
 512 193 l 1,15,-1
 512 128 l 1,16,-1
 193 128 l 1,17,-1
 193 0 l 1,0,-1
193 319 m 1,18,-1
 512 319 l 1,19,-1
 512 512 l 1,20,-1
 193 512 l 1,21,-1
 193 319 l 1,18,-1
EndSplineSet
Validated: 1
EndChar

StartChar: germandbls
Encoding: 223 223 161
Width: 640
GlyphClass: 1
Flags: W
LayerCount: 2
Fore
SplineSet
512 0 m 1,0,-1
 256 0 l 1,1,-1
 256 63 l 1,2,-1
 193 63 l 1,3,-1
 193 128 l 1,4,-1
 256 128 l 1,5,6
 256 129 256 129 256 193 c 1,7,-1
 319 193 l 1,8,-1
 319 128 l 1,9,-1
 449 128 l 1,10,11
 449 129 449 129 449 193 c 1,12,-1
 384 193 l 1,13,-1
 384 256 l 1,14,15
 383 256 383 256 319 256 c 1,16,-1
 319 319 l 1,17,-1
 256 319 l 1,18,-1
 256 512 l 1,19,-1
 319 512 l 1,20,-1
 319 575 l 1,21,-1
 384 575 l 1,22,-1
 384 705 l 1,23,24
 385 705 385 705 193 705 c 1,25,-1
 193 640 l 1,26,-1
 128 640 l 1,27,-1
 128 0 l 1,28,-1
 0 0 l 1,29,-1
 0 768 l 1,30,-1
 63 768 l 1,31,-1
 63 831 l 1,32,-1
 449 831 l 1,33,-1
 449 768 l 1,34,-1
 512 768 l 1,35,-1
 512 512 l 1,36,-1
 449 512 l 1,37,-1
 449 449 l 1,38,-1
 384 449 l 1,39,-1
 384 384 l 1,40,41
 385 384 385 384 449 384 c 1,42,43
 449 383 449 383 449 319 c 1,44,-1
 512 319 l 1,45,-1
 512 256 l 1,46,-1
 575 256 l 1,47,-1
 575 63 l 1,48,-1
 512 63 l 1,49,-1
 512 0 l 1,0,-1
EndSplineSet
Validated: 33
EndChar

StartChar: agrave
Encoding: 224 224 162
Width: 768
GlyphClass: 1
Flags: W
LayerCount: 2
Fore
SplineSet
705 0 m 1,0,-1
 512 0 l 1,1,-1
 512 63 l 1,2,-1
 449 63 l 1,3,-1
 449 0 l 1,4,-1
 128 0 l 1,5,-1
 128 63 l 1,6,7
 127 63 127 63 63 63 c 1,8,-1
 63 128 l 1,9,-1
 0 128 l 1,10,-1
 0 512 l 1,11,-1
 63 512 l 1,12,-1
 63 575 l 1,13,-1
 128 575 l 1,14,-1
 128 640 l 1,15,16
 129 640 129 640 449 640 c 1,17,18
 449 639 449 639 449 575 c 1,19,-1
 512 575 l 1,20,-1
 512 640 l 1,21,-1
 705 640 l 1,22,-1
 705 0 l 1,0,-1
256 128 m 1,23,-1
 449 128 l 1,24,25
 449 129 449 129 449 193 c 1,26,-1
 512 193 l 1,27,-1
 512 449 l 1,28,-1
 449 449 l 1,29,-1
 449 512 l 1,30,-1
 256 512 l 1,31,-1
 256 449 l 1,32,-1
 193 449 l 1,33,-1
 193 193 l 1,34,-1
 256 193 l 1,35,-1
 256 128 l 1,23,-1
449 705 m 1,36,-1
 256 705 l 1,37,-1
 256 768 l 1,38,-1
 193 768 l 1,39,-1
 193 961 l 1,40,-1
 384 961 l 1,41,-1
 384 831 l 1,42,43
 385 831 385 831 449 831 c 1,44,-1
 449 705 l 1,36,-1
EndSplineSet
Validated: 1
EndChar

StartChar: aacute
Encoding: 225 225 163
Width: 768
GlyphClass: 1
Flags: W
LayerCount: 2
Fore
SplineSet
705 0 m 1,0,-1
 512 0 l 1,1,-1
 512 63 l 1,2,-1
 449 63 l 1,3,-1
 449 0 l 1,4,-1
 128 0 l 1,5,-1
 128 63 l 1,6,7
 127 63 127 63 63 63 c 1,8,-1
 63 128 l 1,9,-1
 0 128 l 1,10,-1
 0 512 l 1,11,-1
 63 512 l 1,12,-1
 63 575 l 1,13,-1
 128 575 l 1,14,-1
 128 640 l 1,15,16
 129 640 129 640 449 640 c 1,17,18
 449 639 449 639 449 575 c 1,19,-1
 512 575 l 1,20,-1
 512 640 l 1,21,-1
 705 640 l 1,22,-1
 705 0 l 1,0,-1
256 128 m 1,23,-1
 449 128 l 1,24,25
 449 129 449 129 449 193 c 1,26,-1
 512 193 l 1,27,-1
 512 449 l 1,28,-1
 449 449 l 1,29,-1
 449 512 l 1,30,-1
 256 512 l 1,31,-1
 256 449 l 1,32,-1
 193 449 l 1,33,-1
 193 193 l 1,34,-1
 256 193 l 1,35,-1
 256 128 l 1,23,-1
449 705 m 1,36,-1
 256 705 l 1,37,-1
 256 831 l 1,38,-1
 319 831 l 1,39,-1
 319 961 l 1,40,-1
 512 961 l 1,41,-1
 512 768 l 1,42,-1
 449 768 l 1,43,-1
 449 705 l 1,36,-1
EndSplineSet
Validated: 1
EndChar

StartChar: acircumflex
Encoding: 226 226 164
Width: 768
GlyphClass: 1
Flags: W
LayerCount: 2
Fore
SplineSet
705 0 m 1,0,-1
 512 0 l 1,1,-1
 512 63 l 1,2,-1
 449 63 l 1,3,-1
 449 0 l 1,4,-1
 128 0 l 1,5,-1
 128 63 l 1,6,7
 127 63 127 63 63 63 c 1,8,-1
 63 128 l 1,9,-1
 0 128 l 1,10,-1
 0 512 l 1,11,-1
 63 512 l 1,12,-1
 63 575 l 1,13,-1
 128 575 l 1,14,-1
 128 640 l 1,15,16
 129 640 129 640 449 640 c 1,17,18
 449 639 449 639 449 575 c 1,19,-1
 512 575 l 1,20,-1
 512 640 l 1,21,-1
 705 640 l 1,22,-1
 705 0 l 1,0,-1
256 128 m 1,23,-1
 449 128 l 1,24,25
 449 129 449 129 449 193 c 1,26,-1
 512 193 l 1,27,-1
 512 449 l 1,28,-1
 449 449 l 1,29,-1
 449 512 l 1,30,-1
 256 512 l 1,31,-1
 256 449 l 1,32,-1
 193 449 l 1,33,-1
 193 193 l 1,34,-1
 256 193 l 1,35,-1
 256 128 l 1,23,-1
575 705 m 1,36,-1
 449 705 l 1,37,-1
 449 768 l 1,38,-1
 384 768 l 1,39,-1
 384 831 l 1,40,41
 383 831 383 831 319 831 c 1,42,-1
 319 768 l 1,43,-1
 256 768 l 1,44,-1
 256 705 l 1,45,-1
 128 705 l 1,46,-1
 128 831 l 1,47,48
 129 831 129 831 193 831 c 1,49,-1
 193 896 l 1,50,-1
 256 896 l 1,51,52
 256 897 256 897 256 961 c 1,53,-1
 449 961 l 1,54,-1
 449 896 l 1,55,-1
 512 896 l 1,56,57
 512 895 512 895 512 831 c 1,58,-1
 575 831 l 1,59,-1
 575 705 l 1,36,-1
EndSplineSet
Validated: 1
EndChar

StartChar: atilde
Encoding: 227 227 165
Width: 768
GlyphClass: 1
Flags: W
LayerCount: 2
Fore
SplineSet
705 0 m 1,0,-1
 512 0 l 1,1,-1
 512 63 l 1,2,-1
 449 63 l 1,3,-1
 449 0 l 1,4,-1
 128 0 l 1,5,-1
 128 63 l 1,6,7
 127 63 127 63 63 63 c 1,8,-1
 63 128 l 1,9,-1
 0 128 l 1,10,-1
 0 512 l 1,11,-1
 63 512 l 1,12,-1
 63 575 l 1,13,-1
 128 575 l 1,14,-1
 128 640 l 1,15,16
 129 640 129 640 449 640 c 1,17,18
 449 639 449 639 449 575 c 1,19,-1
 512 575 l 1,20,-1
 512 640 l 1,21,-1
 705 640 l 1,22,-1
 705 0 l 1,0,-1
256 128 m 1,23,-1
 449 128 l 1,24,25
 449 129 449 129 449 193 c 1,26,-1
 512 193 l 1,27,-1
 512 449 l 1,28,-1
 449 449 l 1,29,-1
 449 512 l 1,30,-1
 256 512 l 1,31,-1
 256 449 l 1,32,-1
 193 449 l 1,33,-1
 193 193 l 1,34,-1
 256 193 l 1,35,-1
 256 128 l 1,23,-1
575 705 m 1,36,-1
 319 705 l 1,37,-1
 319 768 l 1,38,-1
 193 768 l 1,39,-1
 193 705 l 1,40,-1
 63 705 l 1,41,-1
 63 831 l 1,42,-1
 128 831 l 1,43,-1
 128 896 l 1,44,-1
 384 896 l 1,45,46
 384 895 384 895 384 831 c 1,47,-1
 512 831 l 1,48,-1
 512 896 l 1,49,-1
 640 896 l 1,50,-1
 640 768 l 1,51,52
 639 768 639 768 575 768 c 1,53,-1
 575 705 l 1,36,-1
EndSplineSet
Validated: 1
EndChar

StartChar: adieresis
Encoding: 228 228 166
Width: 768
GlyphClass: 1
Flags: W
LayerCount: 2
Fore
SplineSet
705 0 m 1,0,-1
 512 0 l 1,1,-1
 512 63 l 1,2,-1
 449 63 l 1,3,-1
 449 0 l 1,4,-1
 128 0 l 1,5,-1
 128 63 l 1,6,7
 127 63 127 63 63 63 c 1,8,-1
 63 128 l 1,9,-1
 0 128 l 1,10,-1
 0 512 l 1,11,-1
 63 512 l 1,12,-1
 63 575 l 1,13,-1
 128 575 l 1,14,-1
 128 640 l 1,15,16
 129 640 129 640 449 640 c 1,17,18
 449 639 449 639 449 575 c 1,19,-1
 512 575 l 1,20,-1
 512 640 l 1,21,-1
 705 640 l 1,22,-1
 705 0 l 1,0,-1
256 128 m 1,23,-1
 449 128 l 1,24,25
 449 129 449 129 449 193 c 1,26,-1
 512 193 l 1,27,-1
 512 449 l 1,28,-1
 449 449 l 1,29,-1
 449 512 l 1,30,-1
 256 512 l 1,31,-1
 256 449 l 1,32,-1
 193 449 l 1,33,-1
 193 193 l 1,34,-1
 256 193 l 1,35,-1
 256 128 l 1,23,-1
512 705 m 1,36,-1
 384 705 l 1,37,-1
 384 831 l 1,38,-1
 512 831 l 1,39,-1
 512 705 l 1,36,-1
319 705 m 1,40,-1
 193 705 l 1,41,-1
 193 831 l 1,42,-1
 319 831 l 1,43,-1
 319 705 l 1,40,-1
EndSplineSet
Validated: 1
EndChar

StartChar: aring
Encoding: 229 229 167
Width: 768
GlyphClass: 1
Flags: W
LayerCount: 2
Fore
SplineSet
705 0 m 1,0,-1
 512 0 l 1,1,-1
 512 63 l 1,2,-1
 449 63 l 1,3,-1
 449 0 l 1,4,-1
 128 0 l 1,5,-1
 128 63 l 1,6,7
 127 63 127 63 63 63 c 1,8,-1
 63 128 l 1,9,-1
 0 128 l 1,10,-1
 0 512 l 1,11,-1
 63 512 l 1,12,-1
 63 575 l 1,13,-1
 128 575 l 1,14,-1
 128 640 l 1,15,16
 129 640 129 640 449 640 c 1,17,18
 449 639 449 639 449 575 c 1,19,-1
 512 575 l 1,20,-1
 512 640 l 1,21,-1
 705 640 l 1,22,-1
 705 0 l 1,0,-1
256 128 m 1,23,-1
 449 128 l 1,24,25
 449 129 449 129 449 193 c 1,26,-1
 512 193 l 1,27,-1
 512 449 l 1,28,-1
 449 449 l 1,29,-1
 449 512 l 1,30,-1
 256 512 l 1,31,-1
 256 449 l 1,32,-1
 193 449 l 1,33,-1
 193 193 l 1,34,-1
 256 193 l 1,35,-1
 256 128 l 1,23,-1
449 705 m 1,36,-1
 256 705 l 1,37,-1
 256 768 l 1,38,-1
 193 768 l 1,39,-1
 193 896 l 1,40,-1
 256 896 l 1,41,42
 256 897 256 897 256 961 c 1,43,-1
 449 961 l 1,44,-1
 449 896 l 1,45,-1
 512 896 l 1,46,-1
 512 768 l 1,47,-1
 449 768 l 1,48,-1
 449 705 l 1,36,-1
384 768 m 1,49,-1
 384 896 l 1,50,51
 383 896 383 896 319 896 c 1,52,-1
 319 768 l 1,53,-1
 384 768 l 1,49,-1
EndSplineSet
Validated: 1
EndChar

StartChar: ae
Encoding: 230 230 168
Width: 1024
GlyphClass: 1
Flags: W
LayerCount: 2
Fore
SplineSet
896 0 m 1,0,1
 895 0 895 0 575 0 c 1,2,-1
 575 63 l 1,3,-1
 512 63 l 1,4,-1
 512 0 l 1,5,-1
 384 0 l 1,6,-1
 384 63 l 1,7,8
 383 63 383 63 319 63 c 1,9,-1
 319 0 l 1,10,-1
 128 0 l 1,11,-1
 128 63 l 1,12,13
 127 63 127 63 63 63 c 1,14,-1
 63 128 l 1,15,-1
 0 128 l 1,16,-1
 0 512 l 1,17,-1
 63 512 l 1,18,-1
 63 575 l 1,19,-1
 128 575 l 1,20,-1
 128 640 l 1,21,22
 127 640 127 640 319 640 c 1,23,24
 319 639 319 639 319 575 c 1,25,-1
 384 575 l 1,26,-1
 384 640 l 1,27,-1
 512 640 l 1,28,29
 512 639 512 639 512 575 c 1,30,-1
 575 575 l 1,31,-1
 575 640 l 1,32,-1
 961 640 l 1,33,34
 961 639 961 639 961 575 c 1,35,-1
 1024 575 l 1,36,-1
 1024 319 l 1,37,-1
 896 319 l 1,38,-1
 896 256 l 1,39,40
 895 256 895 256 575 256 c 1,41,-1
 575 193 l 1,42,-1
 640 193 l 1,43,-1
 640 128 l 1,44,45
 639 128 639 128 831 128 c 1,46,47
 831 129 831 129 831 193 c 1,48,-1
 1024 193 l 1,49,-1
 1024 63 l 1,50,-1
 896 63 l 1,51,-1
 896 0 l 1,0,1
193 128 m 1,52,-1
 319 128 l 1,53,54
 319 129 319 129 319 193 c 1,55,-1
 384 193 l 1,56,-1
 384 449 l 1,57,58
 383 449 383 449 319 449 c 1,59,-1
 319 512 l 1,60,-1
 193 512 l 1,61,-1
 193 449 l 1,62,-1
 128 449 l 1,63,-1
 128 193 l 1,64,65
 129 193 129 193 193 193 c 1,66,-1
 193 128 l 1,52,-1
575 384 m 1,67,-1
 896 384 l 1,68,69
 896 385 896 385 896 449 c 1,70,71
 895 449 895 449 831 449 c 1,72,-1
 831 512 l 1,73,-1
 640 512 l 1,74,-1
 640 449 l 1,75,76
 639 449 639 449 575 449 c 1,77,-1
 575 384 l 1,67,-1
EndSplineSet
Validated: 33
EndChar

StartChar: ccedilla
Encoding: 231 231 169
Width: 768
GlyphClass: 1
Flags: W
LayerCount: 2
Fore
SplineSet
384 -193 m 1,0,-1
 256 -193 l 1,1,-1
 256 -128 l 1,2,-1
 193 -128 l 1,3,4
 193 -127 193 -127 193 -63 c 1,5,-1
 319 -63 l 1,6,-1
 319 0 l 1,7,-1
 128 0 l 1,8,-1
 128 63 l 1,9,10
 127 63 127 63 63 63 c 1,11,-1
 63 128 l 1,12,-1
 0 128 l 1,13,-1
 0 512 l 1,14,-1
 63 512 l 1,15,-1
 63 575 l 1,16,-1
 128 575 l 1,17,-1
 128 640 l 1,18,19
 127 640 127 640 575 640 c 1,20,21
 575 639 575 639 575 575 c 1,22,-1
 640 575 l 1,23,-1
 640 512 l 1,24,25
 641 512 641 512 705 512 c 1,26,-1
 705 384 l 1,27,-1
 575 384 l 1,28,29
 575 385 575 385 575 449 c 1,30,-1
 449 449 l 1,31,-1
 449 512 l 1,32,-1
 256 512 l 1,33,-1
 256 449 l 1,34,-1
 193 449 l 1,35,-1
 193 193 l 1,36,-1
 256 193 l 1,37,-1
 256 128 l 1,38,-1
 449 128 l 1,39,40
 449 129 449 129 449 193 c 1,41,-1
 575 193 l 1,42,-1
 575 256 l 1,43,-1
 705 256 l 1,44,-1
 705 128 l 1,45,-1
 640 128 l 1,46,47
 640 127 640 127 640 63 c 1,48,49
 639 63 639 63 575 63 c 1,50,-1
 575 0 l 1,51,-1
 449 0 l 1,52,-1
 449 -128 l 1,53,-1
 384 -128 l 1,54,-1
 384 -193 l 1,0,-1
EndSplineSet
Validated: 33
EndChar

StartChar: egrave
Encoding: 232 232 170
Width: 768
GlyphClass: 1
Flags: W
LayerCount: 2
Fore
SplineSet
575 0 m 1,0,-1
 128 0 l 1,1,-1
 128 63 l 1,2,3
 127 63 127 63 63 63 c 1,4,-1
 63 128 l 1,5,-1
 0 128 l 1,6,-1
 0 512 l 1,7,-1
 63 512 l 1,8,-1
 63 575 l 1,9,-1
 128 575 l 1,10,-1
 128 640 l 1,11,12
 127 640 127 640 575 640 c 1,13,14
 575 639 575 639 575 575 c 1,15,-1
 640 575 l 1,16,-1
 640 512 l 1,17,18
 641 512 641 512 705 512 c 1,19,-1
 705 319 l 1,20,-1
 512 319 l 1,21,-1
 512 256 l 1,22,-1
 193 256 l 1,23,-1
 193 193 l 1,24,-1
 256 193 l 1,25,-1
 256 128 l 1,26,-1
 512 128 l 1,27,28
 512 129 512 129 512 193 c 1,29,-1
 705 193 l 1,30,-1
 705 63 l 1,31,-1
 575 63 l 1,32,-1
 575 0 l 1,0,-1
193 384 m 1,33,-1
 512 384 l 1,34,35
 512 385 512 385 512 449 c 1,36,-1
 449 449 l 1,37,-1
 449 512 l 1,38,-1
 256 512 l 1,39,-1
 256 449 l 1,40,-1
 193 449 l 1,41,-1
 193 384 l 1,33,-1
449 705 m 1,42,-1
 256 705 l 1,43,-1
 256 768 l 1,44,-1
 193 768 l 1,45,-1
 193 961 l 1,46,-1
 384 961 l 1,47,-1
 384 831 l 1,48,49
 385 831 385 831 449 831 c 1,50,-1
 449 705 l 1,42,-1
EndSplineSet
Validated: 33
EndChar

StartChar: eacute
Encoding: 233 233 171
Width: 768
GlyphClass: 1
Flags: W
LayerCount: 2
Fore
SplineSet
575 0 m 1,0,-1
 128 0 l 1,1,-1
 128 63 l 1,2,3
 127 63 127 63 63 63 c 1,4,-1
 63 128 l 1,5,-1
 0 128 l 1,6,-1
 0 512 l 1,7,-1
 63 512 l 1,8,-1
 63 575 l 1,9,-1
 128 575 l 1,10,-1
 128 640 l 1,11,12
 127 640 127 640 575 640 c 1,13,14
 575 639 575 639 575 575 c 1,15,-1
 640 575 l 1,16,-1
 640 512 l 1,17,18
 641 512 641 512 705 512 c 1,19,-1
 705 319 l 1,20,-1
 512 319 l 1,21,-1
 512 256 l 1,22,-1
 193 256 l 1,23,-1
 193 193 l 1,24,-1
 256 193 l 1,25,-1
 256 128 l 1,26,-1
 512 128 l 1,27,28
 512 129 512 129 512 193 c 1,29,-1
 705 193 l 1,30,-1
 705 63 l 1,31,-1
 575 63 l 1,32,-1
 575 0 l 1,0,-1
193 384 m 1,33,-1
 512 384 l 1,34,35
 512 385 512 385 512 449 c 1,36,-1
 449 449 l 1,37,-1
 449 512 l 1,38,-1
 256 512 l 1,39,-1
 256 449 l 1,40,-1
 193 449 l 1,41,-1
 193 384 l 1,33,-1
449 705 m 1,42,-1
 256 705 l 1,43,-1
 256 831 l 1,44,-1
 319 831 l 1,45,-1
 319 961 l 1,46,-1
 512 961 l 1,47,-1
 512 768 l 1,48,-1
 449 768 l 1,49,-1
 449 705 l 1,42,-1
EndSplineSet
Validated: 33
EndChar

StartChar: ecircumflex
Encoding: 234 234 172
Width: 768
GlyphClass: 1
Flags: W
LayerCount: 2
Fore
SplineSet
575 0 m 1,0,-1
 128 0 l 1,1,-1
 128 63 l 1,2,3
 127 63 127 63 63 63 c 1,4,-1
 63 128 l 1,5,-1
 0 128 l 1,6,-1
 0 512 l 1,7,-1
 63 512 l 1,8,-1
 63 575 l 1,9,-1
 128 575 l 1,10,-1
 128 640 l 1,11,12
 127 640 127 640 575 640 c 1,13,14
 575 639 575 639 575 575 c 1,15,-1
 640 575 l 1,16,-1
 640 512 l 1,17,18
 641 512 641 512 705 512 c 1,19,-1
 705 319 l 1,20,-1
 512 319 l 1,21,-1
 512 256 l 1,22,-1
 193 256 l 1,23,-1
 193 193 l 1,24,-1
 256 193 l 1,25,-1
 256 128 l 1,26,-1
 512 128 l 1,27,28
 512 129 512 129 512 193 c 1,29,-1
 705 193 l 1,30,-1
 705 63 l 1,31,-1
 575 63 l 1,32,-1
 575 0 l 1,0,-1
193 384 m 1,33,-1
 512 384 l 1,34,35
 512 385 512 385 512 449 c 1,36,-1
 449 449 l 1,37,-1
 449 512 l 1,38,-1
 256 512 l 1,39,-1
 256 449 l 1,40,-1
 193 449 l 1,41,-1
 193 384 l 1,33,-1
575 705 m 1,42,-1
 449 705 l 1,43,-1
 449 768 l 1,44,-1
 384 768 l 1,45,-1
 384 831 l 1,46,47
 383 831 383 831 319 831 c 1,48,-1
 319 768 l 1,49,-1
 256 768 l 1,50,-1
 256 705 l 1,51,-1
 128 705 l 1,52,-1
 128 831 l 1,53,54
 129 831 129 831 193 831 c 1,55,-1
 193 896 l 1,56,-1
 256 896 l 1,57,58
 256 897 256 897 256 961 c 1,59,-1
 449 961 l 1,60,-1
 449 896 l 1,61,-1
 512 896 l 1,62,63
 512 895 512 895 512 831 c 1,64,-1
 575 831 l 1,65,-1
 575 705 l 1,42,-1
EndSplineSet
Validated: 33
EndChar

StartChar: edieresis
Encoding: 235 235 173
Width: 768
GlyphClass: 1
Flags: W
LayerCount: 2
Fore
SplineSet
575 0 m 1,0,-1
 128 0 l 1,1,-1
 128 63 l 1,2,3
 127 63 127 63 63 63 c 1,4,-1
 63 128 l 1,5,-1
 0 128 l 1,6,-1
 0 512 l 1,7,-1
 63 512 l 1,8,-1
 63 575 l 1,9,-1
 128 575 l 1,10,-1
 128 640 l 1,11,12
 127 640 127 640 575 640 c 1,13,14
 575 639 575 639 575 575 c 1,15,-1
 640 575 l 1,16,-1
 640 512 l 1,17,18
 641 512 641 512 705 512 c 1,19,-1
 705 319 l 1,20,-1
 512 319 l 1,21,-1
 512 256 l 1,22,-1
 193 256 l 1,23,-1
 193 193 l 1,24,-1
 256 193 l 1,25,-1
 256 128 l 1,26,-1
 512 128 l 1,27,28
 512 129 512 129 512 193 c 1,29,-1
 705 193 l 1,30,-1
 705 63 l 1,31,-1
 575 63 l 1,32,-1
 575 0 l 1,0,-1
193 384 m 1,33,-1
 512 384 l 1,34,35
 512 385 512 385 512 449 c 1,36,-1
 449 449 l 1,37,-1
 449 512 l 1,38,-1
 256 512 l 1,39,-1
 256 449 l 1,40,-1
 193 449 l 1,41,-1
 193 384 l 1,33,-1
512 705 m 1,42,-1
 384 705 l 1,43,-1
 384 831 l 1,44,-1
 512 831 l 1,45,-1
 512 705 l 1,42,-1
319 705 m 1,46,-1
 193 705 l 1,47,-1
 193 831 l 1,48,-1
 319 831 l 1,49,-1
 319 705 l 1,46,-1
EndSplineSet
Validated: 33
EndChar

StartChar: igrave
Encoding: 236 236 174
Width: 256
GlyphClass: 1
Flags: W
LayerCount: 2
Fore
SplineSet
193 575 m 1,0,-1
 0 575 l 1,1,-1
 0 640 l 1,2,-1
 -63 640 l 1,3,4
 -63 639 -63 639 -63 831 c 1,5,-1
 128 831 l 1,6,-1
 128 705 l 1,7,8
 129 705 129 705 193 705 c 1,9,-1
 193 575 l 1,0,-1
193 0 m 1,10,-1
 0 0 l 1,11,-1
 0 512 l 1,12,-1
 193 512 l 1,13,-1
 193 0 l 1,10,-1
EndSplineSet
Validated: 33
EndChar

StartChar: iacute
Encoding: 237 237 175
Width: 256
GlyphClass: 1
Flags: W
LayerCount: 2
Fore
SplineSet
193 575 m 1,0,-1
 0 575 l 1,1,-1
 0 705 l 1,2,-1
 63 705 l 1,3,-1
 63 831 l 1,4,-1
 256 831 l 1,5,-1
 256 640 l 1,6,-1
 193 640 l 1,7,-1
 193 575 l 1,0,-1
193 0 m 1,8,-1
 0 0 l 1,9,-1
 0 512 l 1,10,-1
 193 512 l 1,11,-1
 193 0 l 1,8,-1
EndSplineSet
Validated: 1
EndChar

StartChar: icircumflex
Encoding: 238 238 176
Width: 319
GlyphClass: 1
Flags: W
LayerCount: 2
Fore
SplineSet
193 0 m 1,0,-1
 0 0 l 1,1,-1
 0 512 l 1,2,-1
 193 512 l 1,3,-1
 193 0 l 1,0,-1
256 575 m 1,4,-1
 128 575 l 1,5,-1
 128 640 l 1,6,7
 127 640 127 640 63 640 c 1,8,9
 63 639 63 639 63 575 c 1,10,-1
 -63 575 l 1,11,-1
 -63 640 l 1,12,-1
 0 640 l 1,13,14
 0 641 0 641 0 705 c 1,15,-1
 63 705 l 1,16,-1
 63 768 l 1,17,-1
 128 768 l 1,18,-1
 128 705 l 1,19,20
 129 705 129 705 193 705 c 1,21,-1
 193 640 l 1,22,-1
 256 640 l 1,23,-1
 256 575 l 1,4,-1
EndSplineSet
Validated: 1
EndChar

StartChar: idieresis
Encoding: 239 239 177
Width: 319
GlyphClass: 1
Flags: W
LayerCount: 2
Fore
SplineSet
193 0 m 1,0,-1
 0 0 l 1,1,-1
 0 512 l 1,2,-1
 193 512 l 1,3,-1
 193 0 l 1,0,-1
256 575 m 1,4,-1
 128 575 l 1,5,-1
 128 705 l 1,6,-1
 256 705 l 1,7,-1
 256 575 l 1,4,-1
63 575 m 1,8,-1
 -63 575 l 1,9,-1
 -63 705 l 1,10,-1
 63 705 l 1,11,-1
 63 575 l 1,8,-1
EndSplineSet
Validated: 1
EndChar

StartChar: eth
Encoding: 240 240 178
Width: 575
GlyphClass: 1
Flags: W
LayerCount: 2
Fore
SplineSet
193 575 m 1,0,-1
 193 640 l 1,1,-1
 256 640 l 1,2,3
 256 639 256 639 256 575 c 1,4,-1
 193 575 l 1,0,-1
449 0 m 1,5,-1
 128 0 l 1,6,-1
 128 63 l 1,7,8
 127 63 127 63 63 63 c 1,9,-1
 63 128 l 1,10,-1
 0 128 l 1,11,-1
 0 384 l 1,12,-1
 63 384 l 1,13,14
 63 385 63 385 63 449 c 1,15,-1
 128 449 l 1,16,-1
 128 512 l 1,17,18
 127 512 127 512 319 512 c 1,19,-1
 319 640 l 1,20,-1
 256 640 l 1,21,22
 256 641 256 641 256 705 c 1,23,-1
 193 705 l 1,24,-1
 193 768 l 1,25,-1
 319 768 l 1,26,-1
 319 705 l 1,27,-1
 384 705 l 1,28,-1
 384 640 l 1,29,30
 385 640 385 640 449 640 c 1,31,-1
 449 512 l 1,32,-1
 512 512 l 1,33,-1
 512 63 l 1,34,-1
 449 63 l 1,35,-1
 449 0 l 1,5,-1
193 128 m 1,36,-1
 319 128 l 1,37,38
 319 129 319 129 319 193 c 1,39,-1
 384 193 l 1,40,-1
 384 319 l 1,41,42
 383 319 383 319 319 319 c 1,43,-1
 319 384 l 1,44,-1
 193 384 l 1,45,46
 193 383 193 383 193 319 c 1,47,-1
 128 319 l 1,48,-1
 128 193 l 1,49,50
 129 193 129 193 193 193 c 1,51,-1
 193 128 l 1,36,-1
384 449 m 1,52,-1
 384 512 l 1,53,54
 383 512 383 512 319 512 c 1,55,-1
 319 449 l 1,56,-1
 384 449 l 1,52,-1
384 705 m 1,57,-1
 384 768 l 1,58,59
 385 768 385 768 449 768 c 1,60,-1
 449 705 l 1,61,-1
 384 705 l 1,57,-1
EndSplineSet
Validated: 37
EndChar

StartChar: ntilde
Encoding: 241 241 179
Width: 768
GlyphClass: 1
Flags: W
LayerCount: 2
Fore
SplineSet
705 0 m 1,0,-1
 512 0 l 1,1,-1
 512 449 l 1,2,-1
 449 449 l 1,3,-1
 449 512 l 1,4,-1
 256 512 l 1,5,-1
 256 384 l 1,6,-1
 193 384 l 1,7,-1
 193 0 l 1,8,-1
 0 0 l 1,9,-1
 0 640 l 1,10,-1
 193 640 l 1,11,12
 193 639 193 639 193 575 c 1,13,-1
 256 575 l 1,14,-1
 256 640 l 1,15,-1
 575 640 l 1,16,17
 575 639 575 639 575 575 c 1,18,-1
 640 575 l 1,19,-1
 640 512 l 1,20,21
 641 512 641 512 705 512 c 1,22,-1
 705 0 l 1,0,-1
575 705 m 1,23,-1
 319 705 l 1,24,-1
 319 768 l 1,25,-1
 193 768 l 1,26,-1
 193 705 l 1,27,-1
 63 705 l 1,28,-1
 63 831 l 1,29,-1
 128 831 l 1,30,-1
 128 896 l 1,31,-1
 384 896 l 1,32,33
 384 895 384 895 384 831 c 1,34,-1
 512 831 l 1,35,-1
 512 896 l 1,36,-1
 640 896 l 1,37,-1
 640 768 l 1,38,39
 639 768 639 768 575 768 c 1,40,-1
 575 705 l 1,23,-1
EndSplineSet
Validated: 1
EndChar

StartChar: ograve
Encoding: 242 242 180
Width: 768
GlyphClass: 1
Flags: W
LayerCount: 2
Fore
SplineSet
575 0 m 1,0,-1
 128 0 l 1,1,-1
 128 63 l 1,2,3
 127 63 127 63 63 63 c 1,4,-1
 63 128 l 1,5,-1
 0 128 l 1,6,-1
 0 512 l 1,7,-1
 63 512 l 1,8,-1
 63 575 l 1,9,-1
 128 575 l 1,10,-1
 128 640 l 1,11,12
 127 640 127 640 575 640 c 1,13,14
 575 639 575 639 575 575 c 1,15,-1
 640 575 l 1,16,-1
 640 512 l 1,17,18
 641 512 641 512 705 512 c 1,19,-1
 705 128 l 1,20,-1
 640 128 l 1,21,22
 640 127 640 127 640 63 c 1,23,24
 639 63 639 63 575 63 c 1,25,-1
 575 0 l 1,0,-1
256 128 m 1,26,-1
 449 128 l 1,27,28
 449 129 449 129 449 193 c 1,29,-1
 512 193 l 1,30,-1
 512 449 l 1,31,-1
 449 449 l 1,32,-1
 449 512 l 1,33,-1
 256 512 l 1,34,-1
 256 449 l 1,35,-1
 193 449 l 1,36,-1
 193 193 l 1,37,-1
 256 193 l 1,38,-1
 256 128 l 1,26,-1
449 705 m 1,39,-1
 256 705 l 1,40,-1
 256 768 l 1,41,-1
 193 768 l 1,42,-1
 193 961 l 1,43,-1
 384 961 l 1,44,-1
 384 831 l 1,45,46
 385 831 385 831 449 831 c 1,47,-1
 449 705 l 1,39,-1
EndSplineSet
Validated: 33
EndChar

StartChar: oacute
Encoding: 243 243 181
Width: 768
GlyphClass: 1
Flags: W
LayerCount: 2
Fore
SplineSet
575 0 m 1,0,-1
 128 0 l 1,1,-1
 128 63 l 1,2,3
 127 63 127 63 63 63 c 1,4,-1
 63 128 l 1,5,-1
 0 128 l 1,6,-1
 0 512 l 1,7,-1
 63 512 l 1,8,-1
 63 575 l 1,9,-1
 128 575 l 1,10,-1
 128 640 l 1,11,12
 127 640 127 640 575 640 c 1,13,14
 575 639 575 639 575 575 c 1,15,-1
 640 575 l 1,16,-1
 640 512 l 1,17,18
 641 512 641 512 705 512 c 1,19,-1
 705 128 l 1,20,-1
 640 128 l 1,21,22
 640 127 640 127 640 63 c 1,23,24
 639 63 639 63 575 63 c 1,25,-1
 575 0 l 1,0,-1
256 128 m 1,26,-1
 449 128 l 1,27,28
 449 129 449 129 449 193 c 1,29,-1
 512 193 l 1,30,-1
 512 449 l 1,31,-1
 449 449 l 1,32,-1
 449 512 l 1,33,-1
 256 512 l 1,34,-1
 256 449 l 1,35,-1
 193 449 l 1,36,-1
 193 193 l 1,37,-1
 256 193 l 1,38,-1
 256 128 l 1,26,-1
449 705 m 1,39,-1
 256 705 l 1,40,-1
 256 831 l 1,41,-1
 319 831 l 1,42,-1
 319 961 l 1,43,-1
 512 961 l 1,44,-1
 512 768 l 1,45,-1
 449 768 l 1,46,-1
 449 705 l 1,39,-1
EndSplineSet
Validated: 33
EndChar

StartChar: ocircumflex
Encoding: 244 244 182
Width: 768
GlyphClass: 1
Flags: W
LayerCount: 2
Fore
SplineSet
575 0 m 1,0,-1
 128 0 l 1,1,-1
 128 63 l 1,2,3
 127 63 127 63 63 63 c 1,4,-1
 63 128 l 1,5,-1
 0 128 l 1,6,-1
 0 512 l 1,7,-1
 63 512 l 1,8,-1
 63 575 l 1,9,-1
 128 575 l 1,10,-1
 128 640 l 1,11,12
 127 640 127 640 575 640 c 1,13,14
 575 639 575 639 575 575 c 1,15,-1
 640 575 l 1,16,-1
 640 512 l 1,17,18
 641 512 641 512 705 512 c 1,19,-1
 705 128 l 1,20,-1
 640 128 l 1,21,22
 640 127 640 127 640 63 c 1,23,24
 639 63 639 63 575 63 c 1,25,-1
 575 0 l 1,0,-1
256 128 m 1,26,-1
 449 128 l 1,27,28
 449 129 449 129 449 193 c 1,29,-1
 512 193 l 1,30,-1
 512 449 l 1,31,-1
 449 449 l 1,32,-1
 449 512 l 1,33,-1
 256 512 l 1,34,-1
 256 449 l 1,35,-1
 193 449 l 1,36,-1
 193 193 l 1,37,-1
 256 193 l 1,38,-1
 256 128 l 1,26,-1
575 705 m 1,39,-1
 449 705 l 1,40,-1
 449 768 l 1,41,-1
 384 768 l 1,42,-1
 384 831 l 1,43,44
 383 831 383 831 319 831 c 1,45,-1
 319 768 l 1,46,-1
 256 768 l 1,47,-1
 256 705 l 1,48,-1
 128 705 l 1,49,-1
 128 831 l 1,50,51
 129 831 129 831 193 831 c 1,52,-1
 193 896 l 1,53,-1
 256 896 l 1,54,55
 256 897 256 897 256 961 c 1,56,-1
 449 961 l 1,57,-1
 449 896 l 1,58,-1
 512 896 l 1,59,60
 512 895 512 895 512 831 c 1,61,-1
 575 831 l 1,62,-1
 575 705 l 1,39,-1
EndSplineSet
Validated: 33
EndChar

StartChar: otilde
Encoding: 245 245 183
Width: 768
GlyphClass: 1
Flags: W
LayerCount: 2
Fore
SplineSet
575 0 m 1,0,-1
 128 0 l 1,1,-1
 128 63 l 1,2,3
 127 63 127 63 63 63 c 1,4,-1
 63 128 l 1,5,-1
 0 128 l 1,6,-1
 0 512 l 1,7,-1
 63 512 l 1,8,-1
 63 575 l 1,9,-1
 128 575 l 1,10,-1
 128 640 l 1,11,12
 127 640 127 640 575 640 c 1,13,14
 575 639 575 639 575 575 c 1,15,-1
 640 575 l 1,16,-1
 640 512 l 1,17,18
 641 512 641 512 705 512 c 1,19,-1
 705 128 l 1,20,-1
 640 128 l 1,21,22
 640 127 640 127 640 63 c 1,23,24
 639 63 639 63 575 63 c 1,25,-1
 575 0 l 1,0,-1
256 128 m 1,26,-1
 449 128 l 1,27,28
 449 129 449 129 449 193 c 1,29,-1
 512 193 l 1,30,-1
 512 449 l 1,31,-1
 449 449 l 1,32,-1
 449 512 l 1,33,-1
 256 512 l 1,34,-1
 256 449 l 1,35,-1
 193 449 l 1,36,-1
 193 193 l 1,37,-1
 256 193 l 1,38,-1
 256 128 l 1,26,-1
575 705 m 1,39,-1
 319 705 l 1,40,-1
 319 768 l 1,41,-1
 193 768 l 1,42,-1
 193 705 l 1,43,-1
 63 705 l 1,44,-1
 63 831 l 1,45,-1
 128 831 l 1,46,-1
 128 896 l 1,47,-1
 384 896 l 1,48,49
 384 895 384 895 384 831 c 1,50,-1
 512 831 l 1,51,-1
 512 896 l 1,52,-1
 640 896 l 1,53,-1
 640 768 l 1,54,55
 639 768 639 768 575 768 c 1,56,-1
 575 705 l 1,39,-1
EndSplineSet
Validated: 33
EndChar

StartChar: odieresis
Encoding: 246 246 184
Width: 768
GlyphClass: 1
Flags: W
LayerCount: 2
Fore
SplineSet
575 0 m 1,0,-1
 128 0 l 1,1,-1
 128 63 l 1,2,3
 127 63 127 63 63 63 c 1,4,-1
 63 128 l 1,5,-1
 0 128 l 1,6,-1
 0 512 l 1,7,-1
 63 512 l 1,8,-1
 63 575 l 1,9,-1
 128 575 l 1,10,-1
 128 640 l 1,11,12
 127 640 127 640 575 640 c 1,13,14
 575 639 575 639 575 575 c 1,15,-1
 640 575 l 1,16,-1
 640 512 l 1,17,18
 641 512 641 512 705 512 c 1,19,-1
 705 128 l 1,20,-1
 640 128 l 1,21,22
 640 127 640 127 640 63 c 1,23,24
 639 63 639 63 575 63 c 1,25,-1
 575 0 l 1,0,-1
256 128 m 1,26,-1
 449 128 l 1,27,28
 449 129 449 129 449 193 c 1,29,-1
 512 193 l 1,30,-1
 512 449 l 1,31,-1
 449 449 l 1,32,-1
 449 512 l 1,33,-1
 256 512 l 1,34,-1
 256 449 l 1,35,-1
 193 449 l 1,36,-1
 193 193 l 1,37,-1
 256 193 l 1,38,-1
 256 128 l 1,26,-1
512 705 m 1,39,-1
 384 705 l 1,40,-1
 384 831 l 1,41,-1
 512 831 l 1,42,-1
 512 705 l 1,39,-1
319 705 m 1,43,-1
 193 705 l 1,44,-1
 193 831 l 1,45,-1
 319 831 l 1,46,-1
 319 705 l 1,43,-1
EndSplineSet
Validated: 33
EndChar

StartChar: divide
Encoding: 247 247 185
Width: 768
GlyphClass: 1
Flags: W
LayerCount: 2
Fore
SplineSet
449 0 m 1,0,-1
 256 0 l 1,1,-1
 256 193 l 1,2,-1
 449 193 l 1,3,-1
 449 0 l 1,0,-1
705 256 m 1,4,-1
 0 256 l 1,5,-1
 0 449 l 1,6,-1
 705 449 l 1,7,-1
 705 256 l 1,4,-1
449 512 m 1,8,-1
 256 512 l 1,9,-1
 256 705 l 1,10,-1
 449 705 l 1,11,-1
 449 512 l 1,8,-1
EndSplineSet
Validated: 1
EndChar

StartChar: oslash
Encoding: 248 248 186
Width: 768
GlyphClass: 1
Flags: W
LayerCount: 2
Fore
SplineSet
0 -63 m 1,0,-1
 0 63 l 1,1,-1
 63 63 l 1,2,-1
 63 128 l 1,3,-1
 0 128 l 1,4,-1
 0 512 l 1,5,-1
 63 512 l 1,6,-1
 63 575 l 1,7,-1
 128 575 l 1,8,-1
 128 640 l 1,9,-1
 640 640 l 1,10,11
 640 641 640 641 640 705 c 1,12,13
 641 705 641 705 705 705 c 1,14,-1
 705 575 l 1,15,-1
 640 575 l 1,16,-1
 640 512 l 1,17,18
 641 512 641 512 705 512 c 1,19,-1
 705 128 l 1,20,-1
 640 128 l 1,21,22
 640 127 640 127 640 63 c 1,23,24
 639 63 639 63 575 63 c 1,25,-1
 575 0 l 1,26,-1
 63 0 l 1,27,-1
 63 -63 l 1,28,-1
 0 -63 l 1,0,-1
256 128 m 1,29,-1
 449 128 l 1,30,31
 449 129 449 129 449 193 c 1,32,-1
 512 193 l 1,33,-1
 512 384 l 1,34,-1
 449 384 l 1,35,36
 449 383 449 383 449 319 c 1,37,-1
 384 319 l 1,38,-1
 384 256 l 1,39,40
 383 256 383 256 319 256 c 1,41,-1
 319 193 l 1,42,-1
 256 193 l 1,43,-1
 256 128 l 1,29,-1
256 256 m 1,44,-1
 256 319 l 1,45,-1
 319 319 l 1,46,-1
 319 384 l 1,47,-1
 384 384 l 1,48,49
 384 385 384 385 384 449 c 1,50,51
 385 449 385 449 449 449 c 1,52,-1
 449 512 l 1,53,-1
 256 512 l 1,54,-1
 256 449 l 1,55,-1
 193 449 l 1,56,-1
 193 256 l 1,57,-1
 256 256 l 1,44,-1
EndSplineSet
Validated: 1
EndChar

StartChar: ugrave
Encoding: 249 249 187
Width: 768
GlyphClass: 1
Flags: W
LayerCount: 2
Fore
SplineSet
705 0 m 1,0,-1
 512 0 l 1,1,-1
 512 63 l 1,2,-1
 449 63 l 1,3,-1
 449 0 l 1,4,-1
 128 0 l 1,5,-1
 128 63 l 1,6,7
 127 63 127 63 63 63 c 1,8,-1
 63 128 l 1,9,-1
 0 128 l 1,10,-1
 0 640 l 1,11,-1
 193 640 l 1,12,13
 193 641 193 641 193 193 c 1,14,-1
 256 193 l 1,15,-1
 256 128 l 1,16,-1
 449 128 l 1,17,18
 449 129 449 129 449 193 c 1,19,-1
 512 193 l 1,20,-1
 512 640 l 1,21,-1
 705 640 l 1,22,-1
 705 0 l 1,0,-1
449 705 m 1,23,-1
 256 705 l 1,24,-1
 256 768 l 1,25,-1
 193 768 l 1,26,-1
 193 961 l 1,27,-1
 384 961 l 1,28,-1
 384 831 l 1,29,30
 385 831 385 831 449 831 c 1,31,-1
 449 705 l 1,23,-1
EndSplineSet
Validated: 33
EndChar

StartChar: uacute
Encoding: 250 250 188
Width: 768
GlyphClass: 1
Flags: W
LayerCount: 2
Fore
SplineSet
705 0 m 1,0,-1
 512 0 l 1,1,-1
 512 63 l 1,2,-1
 449 63 l 1,3,-1
 449 0 l 1,4,-1
 128 0 l 1,5,-1
 128 63 l 1,6,7
 127 63 127 63 63 63 c 1,8,-1
 63 128 l 1,9,-1
 0 128 l 1,10,-1
 0 640 l 1,11,-1
 193 640 l 1,12,13
 193 641 193 641 193 193 c 1,14,-1
 256 193 l 1,15,-1
 256 128 l 1,16,-1
 449 128 l 1,17,18
 449 129 449 129 449 193 c 1,19,-1
 512 193 l 1,20,-1
 512 640 l 1,21,-1
 705 640 l 1,22,-1
 705 0 l 1,0,-1
449 705 m 1,23,-1
 256 705 l 1,24,-1
 256 831 l 1,25,-1
 319 831 l 1,26,-1
 319 961 l 1,27,-1
 512 961 l 1,28,-1
 512 768 l 1,29,-1
 449 768 l 1,30,-1
 449 705 l 1,23,-1
EndSplineSet
Validated: 33
EndChar

StartChar: ucircumflex
Encoding: 251 251 189
Width: 768
GlyphClass: 1
Flags: W
LayerCount: 2
Fore
SplineSet
705 0 m 1,0,-1
 512 0 l 1,1,-1
 512 63 l 1,2,-1
 449 63 l 1,3,-1
 449 0 l 1,4,-1
 128 0 l 1,5,-1
 128 63 l 1,6,7
 127 63 127 63 63 63 c 1,8,-1
 63 128 l 1,9,-1
 0 128 l 1,10,-1
 0 640 l 1,11,-1
 193 640 l 1,12,13
 193 641 193 641 193 193 c 1,14,-1
 256 193 l 1,15,-1
 256 128 l 1,16,-1
 449 128 l 1,17,18
 449 129 449 129 449 193 c 1,19,-1
 512 193 l 1,20,-1
 512 640 l 1,21,-1
 705 640 l 1,22,-1
 705 0 l 1,0,-1
575 705 m 1,23,-1
 449 705 l 1,24,-1
 449 768 l 1,25,-1
 384 768 l 1,26,-1
 384 831 l 1,27,28
 383 831 383 831 319 831 c 1,29,-1
 319 768 l 1,30,-1
 256 768 l 1,31,-1
 256 705 l 1,32,-1
 128 705 l 1,33,-1
 128 831 l 1,34,35
 129 831 129 831 193 831 c 1,36,-1
 193 896 l 1,37,-1
 256 896 l 1,38,39
 256 897 256 897 256 961 c 1,40,-1
 449 961 l 1,41,-1
 449 896 l 1,42,-1
 512 896 l 1,43,44
 512 895 512 895 512 831 c 1,45,-1
 575 831 l 1,46,-1
 575 705 l 1,23,-1
EndSplineSet
Validated: 33
EndChar

StartChar: udieresis
Encoding: 252 252 190
Width: 768
GlyphClass: 1
Flags: W
LayerCount: 2
Fore
SplineSet
705 0 m 1,0,-1
 512 0 l 1,1,-1
 512 63 l 1,2,-1
 449 63 l 1,3,-1
 449 0 l 1,4,-1
 128 0 l 1,5,-1
 128 63 l 1,6,7
 127 63 127 63 63 63 c 1,8,-1
 63 128 l 1,9,-1
 0 128 l 1,10,-1
 0 640 l 1,11,-1
 193 640 l 1,12,13
 193 641 193 641 193 193 c 1,14,-1
 256 193 l 1,15,-1
 256 128 l 1,16,-1
 449 128 l 1,17,18
 449 129 449 129 449 193 c 1,19,-1
 512 193 l 1,20,-1
 512 640 l 1,21,-1
 705 640 l 1,22,-1
 705 0 l 1,0,-1
512 705 m 1,23,-1
 384 705 l 1,24,-1
 384 831 l 1,25,-1
 512 831 l 1,26,-1
 512 705 l 1,23,-1
319 705 m 1,27,-1
 193 705 l 1,28,-1
 193 831 l 1,29,-1
 319 831 l 1,30,-1
 319 705 l 1,27,-1
EndSplineSet
Validated: 33
EndChar

StartChar: yacute
Encoding: 253 253 191
Width: 768
GlyphClass: 1
Flags: W
LayerCount: 2
Fore
SplineSet
449 575 m 1,0,-1
 256 575 l 1,1,-1
 256 705 l 1,2,-1
 319 705 l 1,3,-1
 319 831 l 1,4,-1
 512 831 l 1,5,-1
 512 640 l 1,6,-1
 449 640 l 1,7,-1
 449 575 l 1,0,-1
512 -256 m 1,8,-1
 128 -256 l 1,9,-1
 128 -193 l 1,10,-1
 0 -193 l 1,11,-1
 0 0 l 1,12,-1
 193 0 l 1,13,-1
 193 -128 l 1,14,-1
 449 -128 l 1,15,16
 449 -127 449 -127 449 -63 c 1,17,-1
 512 -63 l 1,18,-1
 512 63 l 1,19,-1
 193 63 l 1,20,-1
 193 128 l 1,21,-1
 63 128 l 1,22,-1
 63 256 l 1,23,-1
 0 256 l 1,24,-1
 0 575 l 1,25,-1
 193 575 l 1,26,-1
 193 319 l 1,27,-1
 256 319 l 1,28,-1
 256 256 l 1,29,-1
 449 256 l 1,30,-1
 449 319 l 1,31,-1
 512 319 l 1,32,-1
 512 575 l 1,33,-1
 705 575 l 1,34,-1
 705 -128 l 1,35,-1
 640 -128 l 1,36,37
 640 -129 640 -129 640 -193 c 1,38,-1
 512 -193 l 1,39,-1
 512 -256 l 1,8,-1
EndSplineSet
Validated: 1
EndChar

StartChar: thorn
Encoding: 254 254 192
Width: 703
GlyphClass: 1
Flags: W
LayerCount: 2
Fore
SplineSet
193 -63 m 1,0,-1
 0 -63 l 1,1,-1
 0 896 l 1,2,-1
 193 896 l 1,3,-1
 193 640 l 1,4,-1
 256 640 l 1,5,6
 256 641 256 641 256 705 c 1,7,-1
 512 705 l 1,8,-1
 512 640 l 1,9,-1
 575 640 l 1,10,11
 575 639 575 639 575 575 c 1,12,-1
 640 575 l 1,13,-1
 640 256 l 1,14,15
 639 256 639 256 575 256 c 1,16,-1
 575 193 l 1,17,-1
 512 193 l 1,18,-1
 512 128 l 1,19,-1
 256 128 l 1,20,21
 256 129 256 129 256 193 c 1,22,-1
 193 193 l 1,23,-1
 193 -63 l 1,0,-1
256 256 m 1,24,-1
 449 256 l 1,25,-1
 449 319 l 1,26,-1
 512 319 l 1,27,-1
 512 512 l 1,28,-1
 449 512 l 1,29,-1
 449 575 l 1,30,-1
 256 575 l 1,31,-1
 256 512 l 1,32,-1
 193 512 l 1,33,-1
 193 319 l 1,34,-1
 256 319 l 1,35,-1
 256 256 l 1,24,-1
EndSplineSet
Validated: 1
EndChar

StartChar: ydieresis
Encoding: 255 255 193
Width: 768
GlyphClass: 1
Flags: W
LayerCount: 2
Fore
SplineSet
512 -256 m 1,0,-1
 128 -256 l 1,1,-1
 128 -193 l 1,2,-1
 0 -193 l 1,3,-1
 0 0 l 1,4,-1
 193 0 l 1,5,-1
 193 -128 l 1,6,-1
 449 -128 l 1,7,8
 449 -127 449 -127 449 -63 c 1,9,-1
 512 -63 l 1,10,-1
 512 63 l 1,11,-1
 193 63 l 1,12,-1
 193 128 l 1,13,-1
 63 128 l 1,14,-1
 63 256 l 1,15,-1
 0 256 l 1,16,-1
 0 640 l 1,17,-1
 193 640 l 1,18,19
 193 639 193 639 193 319 c 1,20,-1
 256 319 l 1,21,-1
 256 256 l 1,22,-1
 449 256 l 1,23,-1
 449 319 l 1,24,-1
 512 319 l 1,25,-1
 512 640 l 1,26,-1
 705 640 l 1,27,-1
 705 -128 l 1,28,-1
 640 -128 l 1,29,30
 640 -129 640 -129 640 -193 c 1,31,-1
 512 -193 l 1,32,-1
 512 -256 l 1,0,-1
512 705 m 1,33,-1
 384 705 l 1,34,-1
 384 831 l 1,35,-1
 512 831 l 1,36,-1
 512 705 l 1,33,-1
319 705 m 1,37,-1
 193 705 l 1,38,-1
 193 831 l 1,39,-1
 319 831 l 1,40,-1
 319 705 l 1,37,-1
EndSplineSet
Validated: 1
EndChar

StartChar: pi
Encoding: 960 960 194
Width: 768
GlyphClass: 1
Flags: W
LayerCount: 2
Fore
SplineSet
640 0 m 1,0,1
 641 0 641 0 449 0 c 1,2,-1
 449 63 l 1,3,-1
 384 63 l 1,4,-1
 384 384 l 1,5,6
 383 384 383 384 319 384 c 1,7,-1
 319 0 l 1,8,-1
 128 0 l 1,9,-1
 128 384 l 1,10,-1
 0 384 l 1,11,12
 0 383 0 383 0 575 c 1,13,-1
 705 575 l 1,14,-1
 705 384 l 1,15,-1
 575 384 l 1,16,-1
 575 128 l 1,17,-1
 640 128 l 1,18,-1
 640 0 l 1,0,1
EndSplineSet
Validated: 33
EndChar

StartChar: uni1416
Encoding: 5142 5142 195
Width: 703
GlyphClass: 1
Flags: W
LayerCount: 2
Fore
SplineSet
128 -128 m 1,0,-1
 0 -128 l 1,1,-1
 0 768 l 1,2,-1
 128 768 l 1,3,-1
 128 705 l 1,4,-1
 256 705 l 1,5,-1
 256 640 l 1,6,-1
 319 640 l 1,7,8
 319 639 319 639 319 575 c 1,9,-1
 449 575 l 1,10,-1
 449 512 l 1,11,-1
 512 512 l 1,12,-1
 512 449 l 1,13,-1
 575 449 l 1,14,-1
 575 384 l 1,15,-1
 640 384 l 1,16,-1
 640 256 l 1,17,18
 639 256 639 256 575 256 c 1,19,-1
 575 193 l 1,20,-1
 512 193 l 1,21,-1
 512 128 l 1,22,-1
 449 128 l 1,23,24
 449 127 449 127 449 63 c 1,25,-1
 319 63 l 1,26,-1
 319 0 l 1,27,-1
 256 0 l 1,28,-1
 256 -63 l 1,29,-1
 128 -63 l 1,30,-1
 128 -128 l 1,0,-1
193 63 m 1,31,-1
 193 128 l 1,32,-1
 256 128 l 1,33,34
 256 129 256 129 256 193 c 1,35,-1
 384 193 l 1,36,-1
 384 256 l 1,37,38
 385 256 385 256 449 256 c 1,39,-1
 449 384 l 1,40,-1
 384 384 l 1,41,42
 384 385 384 385 384 449 c 1,43,-1
 256 449 l 1,44,-1
 256 512 l 1,45,-1
 193 512 l 1,46,-1
 193 575 l 1,47,-1
 128 575 l 1,48,-1
 128 63 l 1,49,-1
 193 63 l 1,31,-1
640 575 m 1,50,-1
 512 575 l 1,51,-1
 512 705 l 1,52,-1
 640 705 l 1,53,-1
 640 575 l 1,50,-1
384 768 m 1,54,-1
 256 768 l 1,55,-1
 256 896 l 1,56,-1
 384 896 l 1,57,-1
 384 768 l 1,54,-1
EndSplineSet
Validated: 1
EndChar

StartChar: uni141B
Encoding: 5147 5147 196
Width: 687
GlyphClass: 1
Flags: W
LayerCount: 2
Fore
SplineSet
640 -128 m 1,0,-1
 512 -128 l 1,1,2
 512 -127 512 -127 512 -63 c 1,3,-1
 384 -63 l 1,4,-1
 384 0 l 1,5,6
 383 0 383 0 319 0 c 1,7,-1
 319 63 l 1,8,-1
 193 63 l 1,9,-1
 193 128 l 1,10,-1
 128 128 l 1,11,12
 128 129 128 129 128 193 c 1,13,14
 127 193 127 193 63 193 c 1,15,-1
 63 256 l 1,16,-1
 0 256 l 1,17,-1
 0 384 l 1,18,-1
 63 384 l 1,19,20
 63 385 63 385 63 449 c 1,21,-1
 128 449 l 1,22,-1
 128 512 l 1,23,24
 129 512 129 512 193 512 c 1,25,-1
 193 575 l 1,26,-1
 319 575 l 1,27,-1
 319 640 l 1,28,-1
 384 640 l 1,29,30
 384 641 384 641 384 705 c 1,31,-1
 512 705 l 1,32,-1
 512 768 l 1,33,-1
 640 768 l 1,34,-1
 640 -128 l 1,0,-1
512 63 m 1,35,-1
 512 575 l 1,36,-1
 449 575 l 1,37,-1
 449 512 l 1,38,-1
 384 512 l 1,39,-1
 384 449 l 1,40,-1
 256 449 l 1,41,-1
 256 384 l 1,42,-1
 193 384 l 1,43,-1
 193 256 l 1,44,-1
 256 256 l 1,45,-1
 256 193 l 1,46,-1
 384 193 l 1,47,-1
 384 128 l 1,48,49
 385 128 385 128 449 128 c 1,50,51
 449 127 449 127 449 63 c 1,52,-1
 512 63 l 1,35,-1
128 575 m 1,53,-1
 0 575 l 1,54,-1
 0 705 l 1,55,-1
 128 705 l 1,56,-1
 128 575 l 1,53,-1
384 768 m 1,57,-1
 256 768 l 1,58,-1
 256 896 l 1,59,-1
 384 896 l 1,60,-1
 384 768 l 1,57,-1
EndSplineSet
Validated: 1
EndChar

StartChar: emdash
Encoding: 8212 8212 197
Width: 959
GlyphClass: 1
Flags: W
LayerCount: 2
Fore
SplineSet
896 319 m 1,0,-1
 0 319 l 1,1,-1
 0 449 l 1,2,-1
 896 449 l 1,3,-1
 896 319 l 1,0,-1
EndSplineSet
Validated: 1
EndChar

StartChar: uni2016
Encoding: 8214 8214 198
Width: 831
GlyphClass: 1
Flags: W
LayerCount: 2
Fore
SplineSet
768 -63 m 1,0,-1
 575 -63 l 1,1,-1
 575 896 l 1,2,-1
 768 896 l 1,3,-1
 768 -63 l 1,0,-1
512 -63 m 1,4,-1
 319 -63 l 1,5,-1
 319 896 l 1,6,-1
 512 896 l 1,7,-1
 512 -63 l 1,4,-1
EndSplineSet
Validated: 1
EndChar

StartChar: quoteleft
Encoding: 8216 8216 199
Width: 319
GlyphClass: 1
Flags: W
LayerCount: 2
Fore
SplineSet
256 640 m 1,0,-1
 63 640 l 1,1,2
 63 641 63 641 63 705 c 1,3,-1
 0 705 l 1,4,-1
 0 896 l 1,5,-1
 193 896 l 1,6,-1
 193 768 l 1,7,-1
 256 768 l 1,8,-1
 256 640 l 1,0,-1
EndSplineSet
Validated: 1
EndChar

StartChar: quoteright
Encoding: 8217 8217 200
Width: 319
GlyphClass: 1
Flags: W
LayerCount: 2
Fore
SplineSet
128 640 m 1,0,1
 127 640 127 640 63 640 c 1,2,-1
 0 640 l 1,3,4
 0 641 0 641 0 705 c 1,5,-1
 0 768 l 1,6,-1
 63 768 l 1,7,-1
 63 831 l 1,8,-1
 63 896 l 1,9,-1
 128 896 l 1,10,11
 129 896 129 896 193 896 c 1,12,-1
 256 896 l 1,13,14
 256 895 256 895 256 831 c 1,15,-1
 256 768 l 1,16,-1
 256 705 l 1,17,-1
 193 705 l 1,18,-1
 193 640 l 1,19,-1
 128 640 l 1,0,1
EndSplineSet
Validated: 1
EndChar

StartChar: quotedblleft
Encoding: 8220 8220 201
Width: 640
GlyphClass: 1
Flags: W
LayerCount: 2
Fore
SplineSet
575 640 m 1,0,-1
 384 640 l 1,1,2
 384 641 384 641 384 705 c 1,3,4
 383 705 383 705 319 705 c 1,5,-1
 319 896 l 1,6,-1
 512 896 l 1,7,-1
 512 768 l 1,8,-1
 575 768 l 1,9,-1
 575 640 l 1,0,-1
256 640 m 1,10,-1
 63 640 l 1,11,12
 63 641 63 641 63 705 c 1,13,-1
 0 705 l 1,14,-1
 0 896 l 1,15,-1
 193 896 l 1,16,-1
 193 768 l 1,17,-1
 256 768 l 1,18,-1
 256 640 l 1,10,-1
EndSplineSet
Validated: 1
EndChar

StartChar: quotedblright
Encoding: 8221 8221 202
Width: 640
GlyphClass: 1
Flags: W
LayerCount: 2
Fore
SplineSet
512 640 m 1,0,-1
 319 640 l 1,1,-1
 319 768 l 1,2,-1
 384 768 l 1,3,-1
 384 896 l 1,4,5
 383 896 383 896 575 896 c 1,6,7
 575 897 575 897 575 705 c 1,8,-1
 512 705 l 1,9,-1
 512 640 l 1,0,-1
193 640 m 1,10,-1
 0 640 l 1,11,-1
 0 768 l 1,12,-1
 63 768 l 1,13,-1
 63 896 l 1,14,-1
 256 896 l 1,15,16
 256 897 256 897 256 705 c 1,17,-1
 193 705 l 1,18,-1
 193 640 l 1,10,-1
EndSplineSet
Validated: 33
EndChar

StartChar: bullet
Encoding: 8226 8226 203
Width: 384
GlyphClass: 1
Flags: W
LayerCount: 2
Fore
SplineSet
256 256 m 1,0,-1
 128 256 l 1,1,-1
 128 319 l 1,2,3
 127 319 127 319 63 319 c 1,4,-1
 63 449 l 1,5,-1
 128 449 l 1,6,-1
 128 512 l 1,7,-1
 256 512 l 1,8,-1
 256 449 l 1,9,-1
 319 449 l 1,10,-1
 319 319 l 1,11,-1
 256 319 l 1,12,-1
 256 256 l 1,0,-1
EndSplineSet
Validated: 1
EndChar

StartChar: ellipsis
Encoding: 8230 8230 204
Width: 768
GlyphClass: 1
Flags: W
LayerCount: 2
Fore
SplineSet
705 0 m 1,0,-1
 512 0 l 1,1,-1
 512 193 l 1,2,-1
 705 193 l 1,3,-1
 705 0 l 1,0,-1
449 0 m 1,4,-1
 256 0 l 1,5,-1
 256 193 l 1,6,-1
 449 193 l 1,7,-1
 449 0 l 1,4,-1
193 0 m 1,8,-1
 0 0 l 1,9,-1
 0 193 l 1,10,-1
 193 193 l 1,11,-1
 193 0 l 1,8,-1
EndSplineSet
Validated: 1
EndChar

StartChar: minute
Encoding: 8242 8242 205
Width: 319
GlyphClass: 1
Flags: W
LayerCount: 2
Fore
SplineSet
128 640 m 1,0,-1
 0 640 l 1,1,2
 0 639 0 639 0 831 c 1,3,-1
 63 831 l 1,4,-1
 63 896 l 1,5,-1
 256 896 l 1,6,-1
 256 768 l 1,7,-1
 193 768 l 1,8,-1
 193 705 l 1,9,-1
 128 705 l 1,10,-1
 128 640 l 1,0,-1
EndSplineSet
Validated: 33
EndChar

StartChar: second
Encoding: 8243 8243 206
Width: 640
GlyphClass: 1
Flags: W
LayerCount: 2
Fore
SplineSet
512 640 m 1,0,-1
 319 640 l 1,1,-1
 319 768 l 1,2,-1
 384 768 l 1,3,-1
 384 896 l 1,4,5
 383 896 383 896 575 896 c 1,6,7
 575 897 575 897 575 705 c 1,8,-1
 512 705 l 1,9,-1
 512 640 l 1,0,-1
193 640 m 1,10,-1
 0 640 l 1,11,-1
 0 768 l 1,12,-1
 63 768 l 1,13,-1
 63 896 l 1,14,-1
 256 896 l 1,15,16
 256 897 256 897 256 705 c 1,17,-1
 193 705 l 1,18,-1
 193 640 l 1,10,-1
EndSplineSet
Validated: 33
EndChar

StartChar: Euro
Encoding: 8364 8364 207
Width: 768
GlyphClass: 1
Flags: W
LayerCount: 2
Fore
SplineSet
640 0 m 1,0,-1
 128 0 l 1,1,-1
 128 63 l 1,2,3
 127 63 127 63 63 63 c 1,4,-1
 63 128 l 1,5,-1
 0 128 l 1,6,-1
 0 256 l 1,7,-1
 -63 256 l 1,8,-1
 -63 384 l 1,9,-1
 0 384 l 1,10,11
 0 385 0 385 0 449 c 1,12,-1
 -63 449 l 1,13,-1
 -63 575 l 1,14,-1
 0 575 l 1,15,-1
 0 705 l 1,16,-1
 63 705 l 1,17,-1
 63 768 l 1,18,-1
 128 768 l 1,19,-1
 128 831 l 1,20,-1
 640 831 l 1,21,-1
 640 768 l 1,22,23
 641 768 641 768 705 768 c 1,24,-1
 705 575 l 1,25,-1
 512 575 l 1,26,-1
 512 640 l 1,27,-1
 193 640 l 1,28,29
 193 639 193 639 193 575 c 1,30,-1
 512 575 l 1,31,-1
 512 449 l 1,32,-1
 193 449 l 1,33,-1
 193 384 l 1,34,-1
 512 384 l 1,35,-1
 512 256 l 1,36,-1
 193 256 l 1,37,-1
 193 193 l 1,38,-1
 512 193 l 1,39,-1
 512 256 l 1,40,-1
 705 256 l 1,41,-1
 705 63 l 1,42,-1
 640 63 l 1,43,-1
 640 0 l 1,0,-1
EndSplineSet
Validated: 5
EndChar

StartChar: trademark
Encoding: 8482 8482 208
Width: 959
GlyphClass: 1
Flags: W
LayerCount: 2
Fore
SplineSet
512 640 m 1,0,1
 512 641 512 641 512 961 c 1,2,-1
 640 961 l 1,3,-1
 640 896 l 1,4,5
 641 896 641 896 705 896 c 1,6,7
 705 897 705 897 705 961 c 1,8,-1
 896 961 l 1,9,-1
 896 640 l 1,10,-1
 768 640 l 1,11,-1
 768 768 l 1,12,-1
 705 768 l 1,13,-1
 705 705 l 1,14,-1
 640 705 l 1,15,-1
 640 768 l 1,16,17
 639 768 639 768 575 768 c 1,18,-1
 575 640 l 1,19,-1
 512 640 l 1,0,1
319 640 m 1,20,-1
 193 640 l 1,21,22
 193 639 193 639 193 831 c 1,23,-1
 128 831 l 1,24,-1
 128 961 l 1,25,26
 129 961 129 961 449 961 c 1,27,-1
 449 831 l 1,28,-1
 319 831 l 1,29,-1
 319 640 l 1,20,-1
EndSplineSet
Validated: 33
EndChar

StartChar: infinity
Encoding: 8734 8734 209
Width: 768
GlyphClass: 1
Flags: W
LayerCount: 2
Fore
SplineSet
640 256 m 1,0,1
 641 256 641 256 449 256 c 1,2,-1
 449 319 l 1,3,-1
 384 319 l 1,4,-1
 384 384 l 1,5,6
 383 384 383 384 319 384 c 1,7,8
 319 383 319 383 319 319 c 1,9,-1
 256 319 l 1,10,-1
 256 256 l 1,11,-1
 63 256 l 1,12,-1
 63 319 l 1,13,-1
 0 319 l 1,14,-1
 0 575 l 1,15,-1
 63 575 l 1,16,-1
 63 640 l 1,17,-1
 256 640 l 1,18,19
 256 639 256 639 256 575 c 1,20,-1
 319 575 l 1,21,-1
 319 512 l 1,22,-1
 384 512 l 1,23,-1
 384 575 l 1,24,25
 385 575 385 575 449 575 c 1,26,-1
 449 640 l 1,27,-1
 640 640 l 1,28,29
 640 639 640 639 640 575 c 1,30,31
 641 575 641 575 705 575 c 1,32,-1
 705 319 l 1,33,-1
 640 319 l 1,34,-1
 640 256 l 1,0,1
449 384 m 1,35,-1
 575 384 l 1,36,-1
 575 512 l 1,37,-1
 449 512 l 1,38,-1
 449 384 l 1,35,-1
128 384 m 1,39,-1
 256 384 l 1,40,-1
 256 512 l 1,41,-1
 128 512 l 1,42,-1
 128 384 l 1,39,-1
EndSplineSet
Validated: 33
EndChar

StartChar: approxequal
Encoding: 8776 8776 210
Width: 896
GlyphClass: 1
Flags: W
LayerCount: 2
Fore
SplineSet
640 63 m 1,0,1
 641 63 641 63 449 63 c 1,2,-1
 449 128 l 1,3,-1
 384 128 l 1,4,5
 384 129 384 129 384 193 c 1,6,7
 385 193 385 193 193 193 c 1,8,-1
 193 128 l 1,9,-1
 128 128 l 1,10,11
 128 127 128 127 128 63 c 1,12,-1
 0 63 l 1,13,-1
 0 256 l 1,14,-1
 63 256 l 1,15,-1
 63 319 l 1,16,-1
 128 319 l 1,17,-1
 128 384 l 1,18,-1
 384 384 l 1,19,20
 384 383 384 383 384 319 c 1,21,-1
 512 319 l 1,22,-1
 512 256 l 1,23,-1
 575 256 l 1,24,-1
 575 319 l 1,25,-1
 705 319 l 1,26,-1
 705 384 l 1,27,-1
 831 384 l 1,28,29
 831 385 831 385 831 193 c 1,30,-1
 768 193 l 1,31,-1
 768 128 l 1,32,-1
 640 128 l 1,33,-1
 640 63 l 1,0,1
640 384 m 1,34,35
 641 384 641 384 449 384 c 1,36,37
 449 385 449 385 449 449 c 1,38,-1
 384 449 l 1,39,-1
 384 512 l 1,40,41
 385 512 385 512 193 512 c 1,42,-1
 193 449 l 1,43,-1
 128 449 l 1,44,-1
 128 384 l 1,45,-1
 0 384 l 1,46,47
 0 383 0 383 0 575 c 1,48,-1
 63 575 l 1,49,-1
 63 640 l 1,50,-1
 128 640 l 1,51,52
 128 641 128 641 128 705 c 1,53,-1
 384 705 l 1,54,-1
 384 640 l 1,55,-1
 512 640 l 1,56,57
 512 639 512 639 512 575 c 1,58,-1
 575 575 l 1,59,-1
 575 640 l 1,60,-1
 705 640 l 1,61,62
 705 641 705 641 705 705 c 1,63,-1
 831 705 l 1,64,-1
 831 512 l 1,65,-1
 768 512 l 1,66,-1
 768 449 l 1,67,-1
 640 449 l 1,68,-1
 640 384 l 1,34,35
EndSplineSet
Validated: 37
EndChar

StartChar: notequal
Encoding: 8800 8800 211
Width: 896
GlyphClass: 1
Flags: W
LayerCount: 2
Fore
SplineSet
128 0 m 1,0,-1
 0 0 l 1,1,-1
 0 319 l 1,2,-1
 256 319 l 1,3,-1
 256 384 l 1,4,-1
 319 384 l 1,5,6
 319 385 319 385 319 449 c 1,7,-1
 0 449 l 1,8,-1
 0 640 l 1,9,-1
 575 640 l 1,10,11
 575 641 575 641 575 705 c 1,12,-1
 640 705 l 1,13,-1
 640 768 l 1,14,15
 641 768 641 768 705 768 c 1,16,-1
 705 831 l 1,17,-1
 831 831 l 1,18,-1
 831 705 l 1,19,-1
 768 705 l 1,20,-1
 768 640 l 1,21,-1
 831 640 l 1,22,23
 831 641 831 641 831 449 c 1,24,-1
 512 449 l 1,25,-1
 512 384 l 1,26,-1
 449 384 l 1,27,28
 449 383 449 383 449 319 c 1,29,-1
 831 319 l 1,30,-1
 831 128 l 1,31,-1
 193 128 l 1,32,33
 193 127 193 127 193 63 c 1,34,-1
 128 63 l 1,35,-1
 128 0 l 1,0,-1
EndSplineSet
Validated: 33
EndChar

StartChar: uni3001
Encoding: 12289 12289 213
Width: 512
GlyphClass: 1
Flags: W
LayerCount: 2
Fore
SplineSet
449 -128 m 1,0,-1
 319 -128 l 1,1,2
 319 -127 319 -127 319 -63 c 1,3,-1
 256 -63 l 1,4,-1
 256 0 l 1,5,-1
 193 0 l 1,6,-1
 193 63 l 1,7,-1
 128 63 l 1,8,-1
 128 193 l 1,9,-1
 256 193 l 1,10,-1
 256 128 l 1,11,-1
 319 128 l 1,12,13
 319 127 319 127 319 63 c 1,14,-1
 384 63 l 1,15,-1
 384 0 l 1,16,17
 385 0 385 0 449 0 c 1,18,-1
 449 -128 l 1,0,-1
EndSplineSet
Validated: 1
EndChar

StartChar: uni3002
Encoding: 12290 12290 214
Width: 512
GlyphClass: 1
Flags: W
LayerCount: 2
Fore
SplineSet
384 -63 m 1,0,1
 385 -63 385 -63 193 -63 c 1,2,-1
 193 0 l 1,3,-1
 128 0 l 1,4,-1
 128 128 l 1,5,6
 129 128 129 128 193 128 c 1,7,8
 193 129 193 129 193 193 c 1,9,-1
 384 193 l 1,10,-1
 384 128 l 1,11,12
 385 128 385 128 449 128 c 1,13,-1
 449 0 l 1,14,-1
 384 0 l 1,15,-1
 384 -63 l 1,0,1
319 0 m 1,16,-1
 319 128 l 1,17,-1
 256 128 l 1,18,-1
 256 0 l 1,19,-1
 319 0 l 1,16,-1
EndSplineSet
Validated: 33
EndChar

StartChar: uni3003
Encoding: 12291 12291 215
Width: 896
GlyphClass: 1
Flags: W
LayerCount: 2
Fore
SplineSet
705 193 m 1,0,-1
 575 193 l 1,1,-1
 575 319 l 1,2,-1
 640 319 l 1,3,-1
 640 449 l 1,4,5
 641 449 641 449 705 449 c 1,6,-1
 705 575 l 1,7,-1
 831 575 l 1,8,-1
 831 384 l 1,9,-1
 768 384 l 1,10,-1
 768 256 l 1,11,-1
 705 256 l 1,12,-1
 705 193 l 1,0,-1
449 193 m 1,13,-1
 319 193 l 1,14,-1
 319 319 l 1,15,-1
 384 319 l 1,16,-1
 384 449 l 1,17,18
 385 449 385 449 449 449 c 1,19,-1
 449 575 l 1,20,-1
 575 575 l 1,21,-1
 575 384 l 1,22,-1
 512 384 l 1,23,-1
 512 256 l 1,24,-1
 449 256 l 1,25,-1
 449 193 l 1,13,-1
EndSplineSet
Validated: 1
EndChar

StartChar: uni3008
Encoding: 12296 12296 216
Width: 959
GlyphClass: 1
Flags: W
LayerCount: 2
Fore
SplineSet
831 -63 m 1,0,-1
 831 0 l 1,1,-1
 768 0 l 1,2,-1
 768 128 l 1,3,-1
 705 128 l 1,4,-1
 705 256 l 1,5,-1
 640 256 l 1,6,-1
 640 512 l 1,7,8
 641 512 641 512 705 512 c 1,9,-1
 705 640 l 1,10,-1
 768 640 l 1,11,-1
 768 768 l 1,12,-1
 831 768 l 1,13,-1
 831 831 l 1,14,-1
 896 831 l 1,15,-1
 896 640 l 1,16,17
 895 640 895 640 831 640 c 1,18,-1
 831 512 l 1,19,-1
 768 512 l 1,20,-1
 768 256 l 1,21,-1
 831 256 l 1,22,-1
 831 128 l 1,23,-1
 896 128 l 1,24,25
 896 129 896 129 896 -63 c 1,26,-1
 831 -63 l 1,0,-1
EndSplineSet
Validated: 33
EndChar

StartChar: uni3009
Encoding: 12297 12297 217
Width: 319
GlyphClass: 1
Flags: W
LayerCount: 2
Fore
SplineSet
0 -63 m 1,0,-1
 0 128 l 1,1,-1
 63 128 l 1,2,-1
 63 256 l 1,3,-1
 128 256 l 1,4,-1
 128 512 l 1,5,6
 127 512 127 512 63 512 c 1,7,-1
 63 640 l 1,8,-1
 0 640 l 1,9,10
 0 639 0 639 0 831 c 1,11,-1
 63 831 l 1,12,-1
 63 768 l 1,13,-1
 128 768 l 1,14,-1
 128 640 l 1,15,16
 129 640 129 640 193 640 c 1,17,-1
 193 512 l 1,18,-1
 256 512 l 1,19,-1
 256 256 l 1,20,-1
 193 256 l 1,21,-1
 193 128 l 1,22,-1
 128 128 l 1,23,-1
 128 0 l 1,24,25
 127 0 127 0 63 0 c 1,26,-1
 63 -63 l 1,27,-1
 0 -63 l 1,0,-1
EndSplineSet
Validated: 33
EndChar

StartChar: uni300A
Encoding: 12298 12298 218
Width: 959
GlyphClass: 1
Flags: W
LayerCount: 2
Fore
SplineSet
831 -63 m 1,0,-1
 831 0 l 1,1,-1
 768 0 l 1,2,-1
 768 128 l 1,3,-1
 705 128 l 1,4,-1
 705 256 l 1,5,-1
 640 256 l 1,6,-1
 640 128 l 1,7,8
 641 128 641 128 705 128 c 1,9,10
 705 129 705 129 705 -63 c 1,11,-1
 640 -63 l 1,12,-1
 640 0 l 1,13,14
 639 0 639 0 575 0 c 1,15,-1
 575 128 l 1,16,-1
 512 128 l 1,17,-1
 512 256 l 1,18,-1
 449 256 l 1,19,-1
 449 512 l 1,20,-1
 512 512 l 1,21,-1
 512 640 l 1,22,-1
 575 640 l 1,23,-1
 575 768 l 1,24,-1
 640 768 l 1,25,-1
 640 831 l 1,26,27
 641 831 641 831 705 831 c 1,28,-1
 705 640 l 1,29,-1
 640 640 l 1,30,-1
 640 512 l 1,31,32
 639 512 639 512 575 512 c 1,33,-1
 575 256 l 1,34,-1
 640 256 l 1,35,-1
 640 512 l 1,36,37
 641 512 641 512 705 512 c 1,38,-1
 705 640 l 1,39,-1
 768 640 l 1,40,-1
 768 768 l 1,41,-1
 831 768 l 1,42,-1
 831 831 l 1,43,-1
 896 831 l 1,44,-1
 896 640 l 1,45,46
 895 640 895 640 831 640 c 1,47,-1
 831 512 l 1,48,-1
 768 512 l 1,49,-1
 768 256 l 1,50,-1
 831 256 l 1,51,-1
 831 128 l 1,52,-1
 896 128 l 1,53,54
 896 129 896 129 896 -63 c 1,55,-1
 831 -63 l 1,0,-1
EndSplineSet
Validated: 37
EndChar

StartChar: uni300B
Encoding: 12299 12299 219
Width: 512
GlyphClass: 1
Flags: W
LayerCount: 2
Fore
SplineSet
193 -63 m 1,0,-1
 193 128 l 1,1,-1
 128 128 l 1,2,-1
 128 0 l 1,3,4
 127 0 127 0 63 0 c 1,5,-1
 63 -63 l 1,6,-1
 0 -63 l 1,7,-1
 0 128 l 1,8,-1
 63 128 l 1,9,-1
 63 256 l 1,10,-1
 128 256 l 1,11,-1
 128 512 l 1,12,13
 127 512 127 512 63 512 c 1,14,-1
 63 640 l 1,15,-1
 0 640 l 1,16,17
 0 639 0 639 0 831 c 1,18,-1
 63 831 l 1,19,-1
 63 768 l 1,20,-1
 128 768 l 1,21,-1
 128 640 l 1,22,23
 129 640 129 640 193 640 c 1,24,25
 193 639 193 639 193 831 c 1,26,-1
 256 831 l 1,27,-1
 256 768 l 1,28,-1
 319 768 l 1,29,-1
 319 640 l 1,30,-1
 384 640 l 1,31,-1
 384 512 l 1,32,33
 385 512 385 512 449 512 c 1,34,-1
 449 256 l 1,35,-1
 384 256 l 1,36,-1
 384 128 l 1,37,38
 383 128 383 128 319 128 c 1,39,-1
 319 0 l 1,40,-1
 256 0 l 1,41,-1
 256 -63 l 1,42,-1
 193 -63 l 1,0,-1
256 128 m 1,43,-1
 256 256 l 1,44,-1
 193 256 l 1,45,-1
 193 128 l 1,46,-1
 256 128 l 1,43,-1
319 256 m 1,47,-1
 319 512 l 1,48,-1
 256 512 l 1,49,-1
 256 640 l 1,50,-1
 193 640 l 1,51,-1
 193 512 l 1,52,-1
 256 512 l 1,53,-1
 256 256 l 1,54,-1
 319 256 l 1,47,-1
EndSplineSet
Validated: 37
EndChar

StartChar: uni300C
Encoding: 12300 12300 220
Width: 831
GlyphClass: 1
Flags: W
LayerCount: 2
Fore
SplineSet
575 384 m 1,0,-1
 384 384 l 1,1,2
 384 385 384 385 384 961 c 1,3,-1
 768 961 l 1,4,-1
 768 768 l 1,5,-1
 575 768 l 1,6,-1
 575 384 l 1,0,-1
EndSplineSet
Validated: 1
EndChar

StartChar: uni300D
Encoding: 12301 12301 221
Width: 447
GlyphClass: 1
Flags: W
LayerCount: 2
Fore
SplineSet
384 -63 m 1,0,-1
 0 -63 l 1,1,-1
 0 128 l 1,2,-1
 193 128 l 1,3,4
 193 127 193 127 193 575 c 1,5,-1
 384 575 l 1,6,-1
 384 -63 l 1,0,-1
EndSplineSet
Validated: 33
EndChar

StartChar: uni3010
Encoding: 12304 12304 222
Width: 959
GlyphClass: 1
Flags: W
LayerCount: 2
Fore
SplineSet
896 0 m 1,0,-1
 640 0 l 1,1,-1
 640 896 l 1,2,-1
 896 896 l 1,3,-1
 896 768 l 1,4,5
 895 768 895 768 831 768 c 1,6,-1
 831 705 l 1,7,-1
 768 705 l 1,8,-1
 768 193 l 1,9,-1
 831 193 l 1,10,-1
 831 128 l 1,11,-1
 896 128 l 1,12,-1
 896 0 l 1,0,-1
EndSplineSet
Validated: 1
EndChar

StartChar: uni3011
Encoding: 12305 12305 223
Width: 319
GlyphClass: 1
Flags: W
LayerCount: 2
Fore
SplineSet
256 0 m 1,0,-1
 0 0 l 1,1,-1
 0 128 l 1,2,-1
 63 128 l 1,3,4
 63 129 63 129 63 193 c 1,5,-1
 128 193 l 1,6,-1
 128 705 l 1,7,8
 127 705 127 705 63 705 c 1,9,-1
 63 768 l 1,10,-1
 0 768 l 1,11,-1
 0 896 l 1,12,-1
 256 896 l 1,13,-1
 256 0 l 1,0,-1
EndSplineSet
Validated: 1
EndChar

StartChar: uni4E00
Encoding: 19968 19968 224
Width: 959
GlyphClass: 1
Flags: W
LayerCount: 2
Fore
SplineSet
831 384 m 1,0,-1
 768 384 l 1,1,-1
 705 384 l 1,2,-1
 640 384 l 1,3,4
 639 384 639 384 575 384 c 1,5,-1
 512 384 l 1,6,-1
 449 384 l 1,7,-1
 384 384 l 1,8,9
 383 384 383 384 319 384 c 1,10,-1
 256 384 l 1,11,-1
 193 384 l 1,12,-1
 128 384 l 1,13,14
 128 385 128 385 128 449 c 1,15,-1
 128 512 l 1,16,17
 129 512 129 512 193 512 c 1,18,-1
 256 512 l 1,19,-1
 319 512 l 1,20,-1
 384 512 l 1,21,22
 385 512 385 512 449 512 c 1,23,-1
 512 512 l 1,24,-1
 575 512 l 1,25,-1
 640 512 l 1,26,27
 641 512 641 512 705 512 c 1,28,-1
 768 512 l 1,29,-1
 831 512 l 1,30,-1
 896 512 l 1,31,-1
 896 449 l 1,32,-1
 896 384 l 1,33,-1
 831 384 l 1,0,-1
EndSplineSet
Validated: 1
EndChar
